<svg width="12" height="6" viewBox="0 0 12 6" fill="none" xmlns="http://www.w3.org/2000/svg">
<path fill-rule="evenodd" clip-rule="evenodd" d="M0.24316 0.377488C0.614052 -0.0675907 1.27553 -0.127731 1.72061 0.24316L5.63534 3.50537L9.55005 0.243176C9.99513 -0.127715 10.6566 -0.0675747 11.0275 0.377504C11.3984 0.822582 11.3382 1.48406 10.8932 1.85495L6.70333 5.34641C6.66359 5.44401 6.60835 5.53722 6.53729 5.6225C6.30786 5.89782 5.96723 6.02584 5.63541 5.99565C5.30354 6.02591 4.96284 5.89789 4.73336 5.62251C4.66229 5.53722 4.60705 5.44399 4.5673 5.34638L0.377488 1.85493C-0.0675907 1.48404 -0.127731 0.822567 0.24316 0.377488Z" fill="black"/>
</svg>