<svg width="12" height="7" viewBox="0 0 12 7" fill="none" xmlns="http://www.w3.org/2000/svg">
<path fill-rule="evenodd" clip-rule="evenodd" d="M0.24316 0.816984C0.614052 0.359189 1.27553 0.29733 1.72061 0.678819C3.96753 2.60472 7.30312 2.60473 9.55005 0.678835C9.99513 0.297347 10.6566 0.359206 11.0275 0.817001C11.3984 1.2748 11.3382 1.95517 10.8932 2.33666L6.95406 5.71297C6.78939 5.85411 6.67382 6.04334 6.53729 6.21185C6.43669 6.33602 6.31472 6.43106 6.18148 6.49603C5.84543 6.65989 5.42541 6.65993 5.08933 6.49612C4.95603 6.43115 4.834 6.33609 4.73336 6.21187C4.59682 6.04333 4.48123 5.85407 4.31654 5.7129L0.377488 2.33664C-0.0675907 1.95515 -0.127731 1.27478 0.24316 0.816984Z" fill="white"/>
</svg>
