<svg width="20" height="20" viewBox="0 0 20 20" fill="none" xmlns="http://www.w3.org/2000/svg">
<path fill-rule="evenodd" clip-rule="evenodd" d="M9.42719 10.0862V5.93313C9.42719 5.02066 10.5496 5.02066 10.5496 5.93313V9.67459H12.9067C13.647 9.67459 13.6031 10.7596 12.9816 10.7596H9.91356C9.62166 10.7596 9.42719 10.4332 9.42719 10.0862ZM3.62793 9.78684C3.62793 10.8879 3.73544 11.7994 4.23904 12.8049C5.08497 14.494 6.5122 15.7772 8.36482 16.2369C9.33301 16.4771 9.97131 16.5092 10.9633 16.3739C11.2257 16.3382 11.3453 16.3039 11.5818 16.2442C13.1058 15.8594 14.2449 15.0018 15.1731 13.7743C15.7991 12.9464 16.3489 11.452 16.3489 10.3855C16.3489 9.56558 16.349 9.29516 16.1464 8.49269C15.9727 7.80457 15.6001 6.9618 15.1892 6.41936C14.1558 5.05523 12.7308 4.03811 10.9967 3.80245C10.1972 3.69382 9.81325 3.68932 9.01348 3.79836C8.75109 3.83413 8.63155 3.86839 8.39496 3.92812C5.98959 4.53543 4.0337 6.65678 3.7047 9.07791C3.67134 9.32343 3.62793 9.51049 3.62793 9.78684Z" fill="#FFB489" fill-opacity="0.5"/>
<path fill-rule="evenodd" clip-rule="evenodd" d="M2.50537 10.3106L2.54267 9.41248C2.57374 8.75678 2.85471 7.79559 3.10876 7.17248C3.28489 6.74054 3.52272 6.35129 3.7651 5.95809C3.92635 5.69652 4.60183 4.86766 4.82503 4.69832C4.9294 4.61916 4.98034 4.56161 5.07709 4.46398C5.23091 4.30875 5.42024 4.18689 5.60012 4.05165C6.42664 3.43024 7.18541 3.12151 8.14729 2.85738C8.98313 2.62785 9.07803 2.70955 9.77402 2.61336C10.237 2.54936 11.3231 2.71838 11.8293 2.85738C11.9735 2.89698 12.0705 2.91188 12.2182 2.95478L12.9018 3.20655C13.6007 3.49147 14.0783 3.8314 14.6545 4.25997C15.6355 4.98955 16.6162 6.39505 16.9986 7.52809C17.0449 7.66532 17.0794 7.71778 17.1196 7.85608C17.1625 8.00385 17.1773 8.10082 17.217 8.24508C17.3429 8.70375 17.5214 9.86339 17.461 10.3003C17.37 10.9589 17.4836 10.9559 17.217 11.9271C17.1773 12.0713 17.1625 12.1683 17.1196 12.316L16.8678 12.9996C16.5829 13.6985 16.2429 14.176 15.8144 14.7523L15.1515 15.4738C14.9582 15.6204 14.8073 15.7965 14.3764 16.1205C14.0006 16.403 13.6352 16.6054 13.2059 16.8207C12.5638 17.1428 11.777 17.3674 11.0575 17.4783C10.7756 17.5218 10.4572 17.5236 10.2025 17.5588C9.62153 17.6391 8.38443 17.3991 7.75831 17.2173C6.84551 16.9523 6.06752 16.4666 5.32203 15.9121C4.82505 15.5425 4.32586 14.969 3.95387 14.4742C3.67133 14.0984 3.46895 13.733 3.25364 13.3037C3.14109 13.0793 3.0683 12.9117 2.97798 12.644L2.75959 11.9271C2.69133 11.6785 2.6439 11.4659 2.59599 11.1553C2.52526 10.6968 2.56925 10.6406 2.50537 10.3106ZM9.47326 0.433105H10.5061C11.1114 0.466173 11.7218 0.557254 12.3309 0.709497C12.6525 0.789889 12.9202 0.874889 13.2204 0.979849C13.9836 1.2467 14.8816 1.71534 15.5099 2.1699C17.3885 3.52893 18.7373 5.4209 19.2975 7.69855C19.4531 8.33123 19.5421 8.97597 19.5664 9.62194V10.3543C19.5296 11.3369 19.345 12.3127 19.0197 13.2433C18.9202 13.5276 18.8104 13.8085 18.6812 14.0647C17.5617 16.2857 16.2416 17.6037 14.017 18.7168C12.8917 19.2799 11.5171 19.5707 10.1334 19.5893H9.84024C8.44921 19.5695 7.0661 19.2744 5.93476 18.7041C3.7138 17.5846 2.39582 16.2646 1.28271 14.04C0.61917 12.7138 0.410156 11.2646 0.410156 9.74933C0.410156 7.94383 1.10359 5.93179 2.14695 4.48961C3.90641 2.05755 6.58802 0.589295 9.47326 0.433105Z" fill="#FFB489" fill-opacity="0.5"/>
</svg>
