<svg width="15" height="12" viewBox="0 0 15 12" fill="none" xmlns="http://www.w3.org/2000/svg">
<path fill-rule="evenodd" clip-rule="evenodd" d="M14.0369 0.0989736C14.3535 0.226798 14.6716 0.527552 14.8296 0.848428C14.9385 1.06965 14.9485 1.11404 14.9002 1.16026C14.8693 1.18986 13.19 2.24553 11.1686 3.50617L7.49327 5.79816L3.78369 3.47325C1.7434 2.19453 0.0648684 1.1391 0.053632 1.12783C0.0423557 1.11655 0.0785355 1.00817 0.13404 0.886919C0.33012 0.45862 0.75324 0.11798 1.19863 0.0297221C1.29741 0.0101579 4.1329 -0.00279196 7.59205 0.000515222L13.808 0.00649211L14.0369 0.0989736ZM3.81684 6.19988C5.81665 7.45258 7.47203 8.47753 7.49546 8.47753C7.51889 8.47753 9.20268 7.43756 11.2372 6.16649C13.2718 4.89542 14.9473 3.85545 14.9606 3.85545C14.974 3.85545 14.98 5.67093 14.9742 7.88981L14.9635 10.9242L14.8366 11.1668C14.6763 11.4735 14.3398 11.7852 14.0369 11.9075L13.808 12H7.49244H1.17692L0.947925 11.9075C0.645099 11.7852 0.308564 11.4735 0.148225 11.1668L0.021397 10.9242L0.0106785 7.86483L0 3.80548L0.0903696 3.86386C0.140097 3.89597 1.817 4.94722 3.81684 6.19988Z" fill="#C1C1C1" fill-opacity="0.5"/>
</svg>
