<svg width="154" height="154" viewBox="0 0 154 154" fill="none" xmlns="http://www.w3.org/2000/svg">
<rect x="17" y="13" width="128" height="128" rx="64" fill="#E3EDF1"/>
<path fill-rule="evenodd" clip-rule="evenodd" d="M41.5344 101.697C45.982 102.994 55.6416 106.71 60.135 108.853L62.8503 110.148L71.3092 110.15C80.4386 110.153 81.1496 110.225 83.0413 111.332C84.1732 111.994 85.2553 113.231 85.5904 114.244C85.7205 114.638 85.8971 114.961 85.9823 114.961C86.0676 114.961 87.958 114.191 90.183 113.25C93.9921 111.639 94.6389 111.272 101.24 106.978C105.096 104.47 108.695 102.222 109.237 101.982C110.393 101.471 112.252 101.398 113.484 101.817C114.567 102.185 115.928 103.41 116.526 104.554C117.532 106.479 116.901 109.031 114.966 110.857C114.527 111.272 109.533 115.144 103.869 119.462C97.2561 124.504 92.9301 127.648 91.7791 128.251C84.6143 132.002 73.1468 136.489 68.4563 137.378C66.1903 137.807 62.2905 137.808 59.832 137.38C58.7776 137.196 53.1692 135.858 47.3692 134.407C41.5693 132.955 36.2321 131.677 35.5091 131.567C34.7861 131.457 32.7896 131.431 31.0723 131.509L27.9501 131.651V132.535C27.9501 133.704 27.2511 135.085 26.3648 135.668C25.9058 135.97 24.0093 136.502 21.0744 137.151C16.7916 138.099 16.4655 138.142 15.9702 137.818C15.6792 137.627 15.3468 137.255 15.2313 136.991C14.8597 136.14 8.88108 106.796 9.0018 106.416C9.27656 105.551 10.0121 105.273 14.521 104.331C17.0265 103.807 19.4708 103.376 19.9528 103.373C21.4026 103.364 22.3645 104.234 23.0095 106.138C23.0165 106.158 23.7794 105.995 24.7047 105.775C26.1177 105.439 26.6037 105.195 27.7358 104.254C29.7219 102.604 32.1838 101.477 34.6327 101.097C36.1826 100.856 39.7019 101.162 41.5344 101.697ZM33.3288 104.909C31.7758 105.458 29.8427 106.695 29.2156 107.542C28.6729 108.275 28.2318 108.46 25.5752 109.068C23.807 109.473 23.5432 109.592 23.6344 109.94C23.6924 110.162 24.506 114.361 25.442 119.272L27.144 128.2L31.984 128.198L36.8237 128.197L48.2171 131.076C60.1876 134.1 62.7787 134.587 65.6507 134.348C69.9311 133.991 78.1617 131.043 87.6738 126.459L91.4165 124.655L101.696 116.836C107.35 112.535 112.346 108.635 112.798 108.169C113.854 107.079 113.898 106.264 112.945 105.464C112.163 104.806 111.279 104.738 110.267 105.257C109.881 105.455 106.46 107.638 102.664 110.107L95.7624 114.597L90.6135 116.744C87.1263 118.198 85.3586 119.048 85.1359 119.378C84.348 120.546 83.7225 121.103 82.5514 121.677L81.3016 122.29L69.2032 122.352C57.2912 122.412 57.098 122.406 56.6596 121.969C56.0623 121.372 56.0702 120.191 56.6753 119.644C57.1131 119.248 57.722 119.221 68.7808 119.118C79.3735 119.018 80.4892 118.973 81.1336 118.622C81.9732 118.163 82.5067 117.232 82.5067 116.224C82.5067 115.277 82.0363 114.633 80.9037 114.028C80.0065 113.549 79.7898 113.536 70.6751 113.429L61.3633 113.318L58.4054 111.862C55.0708 110.22 50.1947 108.258 44.0541 106.085C39.9394 104.63 39.8607 104.611 37.2619 104.531C35.0109 104.46 34.4451 104.515 33.3288 104.909ZM15.6998 107.54C14.0837 107.89 12.7401 108.202 12.7138 108.232C12.6168 108.347 17.9874 133.964 18.1408 134.117C18.3069 134.283 23.7862 133.171 24.2682 132.874C24.481 132.743 24.0288 130.002 22.2801 120.824C21.0352 114.29 19.9201 108.477 19.8023 107.905C19.5442 106.655 19.7133 106.67 15.6998 107.54ZM53.2786 119.628C54.0137 120.259 54.0571 121.369 53.3737 122.051C52.7019 122.722 50.5102 122.708 49.8299 122.029C49.1395 121.339 49.1906 120.278 49.9456 119.63C50.7808 118.913 52.4445 118.912 53.2786 119.628Z" fill="black"/>
<path fill-rule="evenodd" clip-rule="evenodd" d="M77.2047 35.6876C77.9306 36.1085 78.5347 36.8206 79.8339 38.788C82.466 42.7739 83.6001 43.1305 87.8969 41.3243C91.6199 39.7592 93.6052 39.9714 95.105 42.0942L95.7623 43.0246V46.7935C95.7623 50.5387 95.766 50.5678 96.365 51.4726C97.1139 52.6037 98.0368 53.078 100.689 53.6954C103.231 54.2869 104.121 54.6464 104.937 55.4114C105.768 56.1903 106.17 57.1778 106.17 58.4412C106.17 59.8178 105.623 60.8546 103.659 63.2027C102.058 65.1156 101.477 66.3666 101.689 67.4451C101.729 67.6488 101.816 68.0765 101.883 68.3955C101.95 68.7147 102.843 69.9733 103.868 71.1925C104.893 72.4118 105.88 73.7625 106.06 74.1941C106.833 76.0415 106.153 78.2482 104.486 79.3043C103.63 79.8464 102.831 80.11 99.2007 81.0494C98.0285 81.3527 96.6369 82.5782 96.2971 83.6065C96.117 84.1512 96.0877 85.3232 96.1983 87.5355C96.3534 90.6351 96.3466 90.7075 95.7912 91.8313C95.0515 93.3282 94.0382 94.0145 92.3925 94.1335C91.3224 94.2107 90.8038 94.0913 88.7431 93.2923C85.9033 92.1912 84.7977 92.0276 83.5131 92.5174C82.3433 92.9635 81.775 93.5804 80.3184 95.9854C78.0704 99.6974 76.0654 100.611 73.3984 99.1375C72.7538 98.7816 72.0967 98.0019 70.7845 96.037C69.3258 93.8524 68.8676 93.3295 68.0541 92.9197C66.5265 92.1505 65.4135 92.2592 62.6444 93.4476C59.2575 94.9012 57.3222 94.8495 55.8413 93.2656C54.8231 92.1768 54.6548 91.3312 54.7249 87.6514C54.787 84.3807 54.7666 84.1856 54.278 83.4011C53.5768 82.275 52.3358 81.6314 49.7507 81.0525C47.3226 80.5091 46.5434 80.184 45.623 79.3307C44.7122 78.4865 44.3826 77.7153 44.3826 76.4274C44.3826 74.9347 44.8824 73.9541 46.8186 71.6469C48.5914 69.5344 48.7647 69.1835 48.7647 67.7059C48.7647 66.2088 48.5793 65.8435 46.7025 63.6413C44.7073 61.3004 44.1635 60.2744 44.1635 58.8504C44.1635 56.6854 45.6473 55.2027 48.5456 54.4714C51.6665 53.6838 52.338 53.4232 53.159 52.6829C54.3807 51.5807 54.5352 50.8957 54.3531 47.3848C54.1743 43.936 54.365 42.9537 55.4245 41.8671C56.9968 40.2545 58.5262 40.1843 62.0559 41.5623C64.8506 42.6534 65.901 42.7682 67.2789 42.1333C68.3567 41.6367 68.7754 41.1659 70.1222 38.937C71.2258 37.1103 72.2313 35.8956 72.9756 35.49C74.2873 34.7753 75.7488 34.8435 77.2047 35.6876ZM74.2521 38.8823C74.0084 39.153 73.3018 40.2239 72.6818 41.2619C70.8676 44.2994 68.884 45.7055 66.0383 45.9709C64.5874 46.1061 64.5907 46.1069 59.6771 44.3182C57.5959 43.5606 57.4418 43.8236 57.7832 47.553C58.1149 51.1775 57.6346 52.9581 55.8093 54.8708C54.648 56.0874 53.535 56.6595 51.0653 57.3095C48.3074 58.035 47.7316 58.2583 47.5761 58.6626C47.4001 59.121 47.6799 59.5609 49.459 61.6218C51.6299 64.1366 52.1608 65.332 52.1608 67.7059C52.1608 70.0337 51.6444 71.2135 49.5274 73.7222C48.715 74.6848 47.9468 75.6982 47.8204 75.9739C47.4442 76.7945 48.1409 77.2189 50.9137 77.8584C52.2763 78.1728 53.7909 78.6335 54.2797 78.8825C55.4526 79.48 56.9076 80.9982 57.5551 82.3C58.0395 83.2737 58.0772 83.6054 58.0853 86.9592C58.0901 88.9455 58.1699 90.6928 58.2626 90.8425C58.5584 91.3203 59.3982 91.1407 61.8346 90.0787C64.0539 89.1113 64.3352 89.0424 66.0791 89.04C67.7511 89.0373 68.1003 89.1126 69.4112 89.7571C71.0803 90.5775 71.854 91.3907 73.5448 94.1029C74.8522 96.1996 75.4639 96.6595 76.137 96.0513C76.3706 95.8404 77.1054 94.7579 77.77 93.6456C79.8466 90.171 81.8876 88.8199 85.0262 88.8426C86.5878 88.854 87.0613 88.968 89.3651 89.8868C90.8439 90.4767 92.1236 90.8635 92.3541 90.7904C92.9411 90.6044 93.0132 90.0424 92.7702 87.5497C92.4021 83.7743 92.8458 81.9458 94.5888 80.058C95.8727 78.667 96.9314 78.1098 99.5374 77.4534C101.997 76.8343 102.811 76.5243 102.952 76.1539C103.125 75.698 102.71 75.0377 101.012 73.0683C98.9724 70.702 98.4778 69.6688 98.3416 67.4871C98.1963 65.1627 98.7208 63.9032 101.041 61.0011C102.054 59.7344 102.883 58.5614 102.883 58.394C102.883 57.879 101.996 57.4837 99.5107 56.8917C96.7511 56.2342 95.2511 55.4943 94.2058 54.2747C92.5579 52.3525 92.1296 50.6765 92.3695 47.0912C92.5502 44.3926 92.4045 43.6407 91.7012 43.6407C91.4499 43.6407 90.141 44.1038 88.7926 44.67C86.5352 45.6178 86.1932 45.7002 84.4785 45.7092C82.918 45.7175 82.4207 45.6272 81.411 45.1524C79.6341 44.3167 78.8668 43.5656 77.3024 41.1305C75.426 38.2096 75.0844 37.9578 74.2521 38.8823ZM79.8348 49.1116C85.1316 50.3785 89.6877 54.0671 92.1283 59.0643C93.7441 62.3728 93.9998 63.5105 93.9959 67.3778C93.9921 71.126 93.7332 72.3785 92.3513 75.3322C89.8353 80.7101 84.9412 84.6115 79.1105 85.8874C76.9766 86.3545 72.8697 86.2523 70.675 85.6778C65.424 84.3033 60.992 80.7854 58.5408 76.0469C57.1489 73.3558 56.6377 71.4045 56.4957 68.2384C56.3538 65.0758 56.7407 62.7848 57.8533 60.1978C58.9674 57.6075 59.8855 56.2095 61.6918 54.3521C66.5081 49.3999 73.091 47.4983 79.8348 49.1116ZM71.5514 52.3902C67.037 53.5925 63.3613 56.5515 61.3892 60.5708C60.2354 62.9224 59.8585 64.598 59.8585 67.3778C59.8585 70.1575 60.2354 71.8331 61.3892 74.1847C63.4095 78.3027 67.5661 81.5546 72.019 82.501C74.0915 82.9416 77.8885 82.7913 79.7678 82.1943C85.5446 80.3594 89.52 75.7625 90.5393 69.7394C90.8423 67.9481 90.8588 67.3108 90.6432 65.6939C90.1478 61.9793 88.675 58.9582 86.1327 56.4427C83.1869 53.5278 79.9757 52.1685 75.7144 52.0327C73.7004 51.9686 72.8649 52.0403 71.5514 52.3902ZM77.4043 60.8283L78.9845 62.4838L81.4181 62.1261C83.6457 61.7988 83.8965 61.7979 84.384 62.1169C85.3334 62.738 85.1082 63.5267 82.9172 67.2561C81.8175 69.128 80.7669 70.8316 80.5826 71.0422C80.282 71.3859 79.736 71.4251 75.2534 71.4251H70.2591L69.7348 70.7141C68.9627 69.667 65.6724 63.9314 65.6247 63.5492C65.5309 62.7981 65.6641 62.4468 66.1683 62.1169C66.656 61.7979 66.9088 61.799 69.1737 62.132L71.6465 62.4954L72.0608 61.983C72.898 60.9482 74.1686 59.6395 74.5527 59.4163C75.3642 58.9449 75.8237 59.1724 77.4043 60.8283ZM74.0349 64.1042C72.8452 65.4801 72.5509 65.5974 70.9489 65.3346C70.3163 65.2309 69.7986 65.1721 69.7986 65.204C69.7986 65.236 70.2256 65.9844 70.7475 66.8669L71.6964 68.4716L75.2306 68.5318L78.7647 68.5917L79.7542 66.9041C80.2984 65.9759 80.7211 65.194 80.6937 65.1666C80.6663 65.1393 80.151 65.2101 79.5484 65.3241C78.0204 65.6136 77.6685 65.4727 76.4937 64.0994C75.9258 63.4359 75.3761 62.8929 75.2718 62.8929C75.1677 62.8929 74.611 63.4381 74.0349 64.1042ZM80.5186 74.1893C80.7684 74.5063 80.9728 74.8868 80.9728 75.0349C80.9728 75.183 80.7684 75.5634 80.5186 75.8804L80.0647 76.4569H75.309C69.9213 76.4569 69.5795 76.372 69.5795 75.0349C69.5795 73.6977 69.9213 73.6128 75.309 73.6128H80.0647L80.5186 74.1893Z" fill="url(#paint0_linear_174_3694)"/>
<defs>
<linearGradient id="paint0_linear_174_3694" x1="63" y1="46.4444" x2="75.2061" y2="200.027" gradientUnits="userSpaceOnUse">
<stop stop-color="#D54C00"/>
<stop offset="1" stop-color="#D30000"/>
</linearGradient>
</defs>
</svg>
