<svg width="93" height="98" viewBox="0 0 93 98" fill="none" xmlns="http://www.w3.org/2000/svg">
<g clip-path="url(#clip0_174_3938)">
<path fill-rule="evenodd" clip-rule="evenodd" d="M42.6284 40.8366C42.9482 42.662 39.272 50.831 38.4728 53.0215C37.514 55.4403 36.635 56.2161 33.5183 56.2161C29.8421 56.2161 27.6845 56.7637 26.4857 55.1664C8.18506 30.9334 34.7969 3.36871 58.2917 14.1846C59.4905 14.778 62.8469 16.2838 63.2465 17.288C58.5317 16.9685 53.0174 17.2421 48.2225 17.2421C45.4256 17.2421 43.5875 16.9685 42.3887 19.0678C41.6696 20.3 40.7903 22.81 40.2311 24.2702C38.7926 27.83 37.4339 31.3898 35.9954 34.9492C35.3561 36.501 33.6779 39.5585 35.9156 40.1976C38.1533 40.7907 40.5506 39.5129 42.6284 40.8366ZM65.6441 62.2856C67.1624 61.7837 70.3589 58.3154 71.318 56.992C69.4001 54.8468 67.4021 53.6605 64.9247 55.8966C61.8881 58.6805 64.6052 60.4603 65.6441 62.2856ZM50.2205 84.1457L50.3801 81.6813C47.9828 81.6813 43.1081 82.4571 43.028 79.6732C42.9482 76.844 47.8229 77.5284 50.2205 77.574L50.3801 75.1096C46.784 75.1096 39.1121 74.1057 39.1922 79.6732C39.1922 81.7728 40.8704 83.4154 42.7085 83.9177C44.3867 84.374 48.3023 84.1457 50.2205 84.1457ZM25.2869 84.0545C28.883 84.0545 28.883 84.5108 29.9219 82.5027L34.637 82.4571C35.3561 84.5108 35.5961 84.0545 38.9525 84.0545C37.6736 81.0881 35.2763 78.213 34.0775 75.2923H30.1616C29.4425 77.2547 26.4056 81.4989 25.2869 84.0545ZM65.8838 84.0089L69.6398 84.0545L70.5188 82.5027L75.2339 82.4571C76.0328 84.5564 76.5125 84.0545 79.5491 84.0545C78.4304 81.4077 75.3935 77.1176 74.7542 75.2923H70.8386L65.8838 84.0089ZM72.9809 77.6327L73.7291 78.8377L74.477 80.0431H72.9809H71.4848L72.2327 78.8377L72.9809 77.6327ZM8.26486 81.7269C7.62556 82.7767 6.02746 82.6855 4.82866 81.9552C3.78976 81.2705 2.51116 81.3621 0.593262 81.5901C1.15246 84.7391 7.94536 85.2867 10.9022 83.4613C12.98 82.1835 12.5804 80.2667 10.2629 79.354C8.66446 78.7605 5.38816 78.8518 4.82866 77.3003C6.66676 76.6157 6.66676 77.2088 7.94536 77.6196C9.06406 78.0303 10.5827 77.8023 11.8613 77.8023C10.4228 73.5581 3.39016 75.0183 1.87186 76.0225C-0.126138 77.4371 1.15246 79.354 2.91076 80.084C4.58896 80.723 7.14616 80.7686 8.26486 81.7269ZM80.3483 83.9177L83.9444 84.0545V79.9015C85.0634 80.3123 86.1023 81.864 87.1412 82.6855C89.1389 84.374 88.5797 84.0545 91.9361 84.0545V75.2923H88.3397L88.4198 79.6732C87.6206 79.2169 87.4607 79.0801 86.7416 78.3042C86.1023 77.6196 85.7027 77.3459 84.9833 76.7525C83.1455 75.2011 83.9444 75.0639 80.4284 75.3379L80.3483 83.9177ZM13.0598 84.0545H17.1356V81.0425L20.5718 80.9513V84.0545H24.6476V75.2923H20.5718V78.5325H17.2154L17.1356 75.2923H13.0598V84.0545ZM52.1384 84.0089L55.7345 84.0545L55.6547 79.6276C56.7734 80.2211 57.8123 81.9096 58.6913 82.4115C59.0909 81.9096 60.8492 79.8559 61.3286 79.5364L61.4084 84.0545H65.1644V75.2923C59.8103 75.2923 62.6072 74.8815 58.6913 78.8061C57.8123 78.2586 55.9742 75.4747 55.0952 75.2923H52.0583L52.1384 84.0089ZM64.5251 63.381L62.4473 60.5059C60.05 61.6013 59.7302 62.4227 55.6547 63.7917C49.9007 65.663 43.7474 65.5715 38.1533 63.4722L33.0386 60.9622C32.0798 60.3235 31.9997 60.4147 31.4405 59.73C36.395 59.8212 41.5097 59.73 46.4645 59.73C49.3412 59.7756 51.0194 59.9583 52.1384 58.0415C52.9376 56.5813 53.7368 54.2537 54.3761 52.702C55.7345 49.1425 57.173 45.5827 58.6115 42.0229C59.2508 40.5627 60.929 37.5507 58.8512 36.8661C56.5337 36.0902 53.0174 37.5964 52.0583 35.999C51.419 34.9492 55.2551 26.4154 55.8143 24.8636C57.8921 19.6153 58.4516 20.7107 67.2422 20.7107C70.5188 24.6809 73.3958 28.971 74.0351 36.0902C74.5946 43.0271 72.5966 49.0969 69.4001 53.4778C70.1192 54.2081 71.3978 55.212 72.2768 55.6227C76.5125 48.7773 78.83 42.16 77.2316 33.489C76.0328 26.9173 73.2359 21.5778 68.6807 17.2421C68.2013 16.6946 67.562 15.9643 66.9227 15.4624C54.4559 5.28557 36.395 6.28945 26.0063 16.9685C24.3278 18.7482 24.3278 18.5658 22.7297 20.7563C9.46366 38.6914 19.8527 64.1569 41.8292 68.173C47.8229 69.2681 54.5357 68.4466 59.9699 65.8454C61.6481 65.024 63.1667 64.0201 64.5251 63.381Z" fill="white"/>
<path d="M4.49606 92.0308H2.3092V96.2583H1.51758V91.3426H5.28769V96.2583H4.49606V92.0308Z" fill="white" fill-opacity="0.5"/>
<path d="M6.81311 91.3426H7.35735L7.50578 91.9325H7.54536C7.69709 91.7031 7.8917 91.5294 8.12919 91.4114C8.37327 91.2869 8.65034 91.2246 8.96039 91.2246C9.62008 91.2246 10.1115 91.418 10.4348 91.8047C10.758 92.1914 10.9197 92.8239 10.9197 93.7021C10.9197 94.1151 10.8636 94.4887 10.7514 94.8229C10.6459 95.1506 10.4942 95.4292 10.2963 95.6586C10.0984 95.888 9.85756 96.065 9.5739 96.1895C9.29683 96.314 8.98678 96.3763 8.64374 96.3763C8.39966 96.3763 8.20505 96.3599 8.05992 96.3271C7.92138 96.3009 7.76966 96.2518 7.60473 96.1797V98.2246H6.81311V91.3426ZM8.81196 91.9128C8.47552 91.9128 8.20835 92.0013 8.01044 92.1783C7.81913 92.3487 7.6839 92.6108 7.60473 92.9648V95.403C7.72348 95.4947 7.85871 95.5668 8.01044 95.6193C8.16217 95.6652 8.36337 95.6881 8.61405 95.6881C9.06924 95.6881 9.42877 95.521 9.69264 95.1867C9.96311 94.8459 10.0984 94.3477 10.0984 93.6923C10.0984 93.4236 10.0753 93.1811 10.0291 92.9648C9.98291 92.7419 9.90704 92.5551 9.80149 92.4044C9.70254 92.2471 9.5706 92.1258 9.40568 92.0406C9.24735 91.9554 9.04945 91.9128 8.81196 91.9128Z" fill="white" fill-opacity="0.5"/>
<path d="M11.8896 93.8005C11.8896 92.9681 12.0743 92.3323 12.4437 91.8931C12.8197 91.4475 13.3574 91.2246 14.0566 91.2246C14.4261 91.2246 14.746 91.2869 15.0165 91.4114C15.2935 91.5294 15.5211 91.7031 15.6992 91.9325C15.8774 92.1553 16.0093 92.4273 16.0951 92.7485C16.1808 93.0631 16.2237 93.4137 16.2237 93.8005C16.2237 94.6328 16.0357 95.2719 15.6597 95.7176C15.2902 96.1567 14.7559 96.3763 14.0566 96.3763C13.6872 96.3763 13.364 96.3173 13.0869 96.1993C12.8164 96.0748 12.5921 95.9011 12.414 95.6783C12.2359 95.4489 12.104 95.1769 12.0182 94.8622C11.9324 94.5411 11.8896 94.1872 11.8896 93.8005ZM12.7109 93.8005C12.7109 94.0495 12.734 94.2887 12.7801 94.5181C12.8329 94.7475 12.9121 94.9475 13.0176 95.1179C13.1232 95.2883 13.2617 95.4259 13.4332 95.5308C13.6047 95.6357 13.8125 95.6881 14.0566 95.6881C14.9538 95.6946 15.4024 95.0654 15.4024 93.8005C15.4024 93.5448 15.376 93.3023 15.3232 93.0729C15.277 92.8435 15.2012 92.6436 15.0956 92.4732C14.9901 92.3028 14.8515 92.1684 14.68 92.0701C14.5085 91.9652 14.3007 91.9128 14.0566 91.9128C13.1595 91.9063 12.7109 92.5355 12.7109 93.8005Z" fill="white" fill-opacity="0.5"/>
<path d="M21.7876 97.5069H21.2532L21.1048 96.2583H17.3842L17.2357 97.5069H16.7014V95.5701H17.2852C17.338 95.498 17.4072 95.3702 17.493 95.1867C17.5788 94.9966 17.6612 94.7344 17.7404 94.4002C17.8261 94.0593 17.8987 93.6399 17.9581 93.1417C18.024 92.6371 18.0636 92.0373 18.0768 91.3426H21.0652V95.5701H21.7876V97.5069ZM20.2736 95.5701V92.0308H18.7893C18.7761 92.3061 18.753 92.6076 18.72 92.9353C18.687 93.2564 18.6409 93.5809 18.5815 93.9086C18.5287 94.2298 18.4594 94.5345 18.3737 94.8229C18.2879 95.1113 18.189 95.3604 18.0768 95.5701H20.2736Z" fill="white" fill-opacity="0.5"/>
<path d="M22.6882 91.7064C22.9389 91.5556 23.2291 91.4442 23.559 91.3721C23.8954 91.3 24.2451 91.2639 24.6079 91.2639C24.9509 91.2639 25.2247 91.3098 25.4292 91.4016C25.6403 91.4933 25.7986 91.6146 25.9042 91.7653C26.0163 91.9095 26.0889 92.0701 26.1219 92.2471C26.1614 92.424 26.1812 92.601 26.1812 92.778C26.1812 93.1712 26.1713 93.5547 26.1515 93.9283C26.1318 94.3019 26.1219 94.6558 26.1219 94.9901C26.1219 95.2326 26.1318 95.462 26.1515 95.6783C26.1713 95.8946 26.2076 96.0945 26.2604 96.278H25.6766L25.4688 95.5898H25.4193C25.3599 95.6815 25.2841 95.7733 25.1917 95.8651C25.1059 95.9503 25.0004 96.0289 24.875 96.101C24.7497 96.1666 24.6046 96.2223 24.4397 96.2681C24.2747 96.314 24.0867 96.337 23.8756 96.337C23.6645 96.337 23.4666 96.3042 23.2819 96.2387C23.1038 96.1731 22.9488 96.0814 22.8168 95.9634C22.6849 95.8388 22.5793 95.6914 22.5002 95.521C22.4276 95.3505 22.3913 95.1572 22.3913 94.9409C22.3913 94.6525 22.4507 94.4133 22.5694 94.2232C22.6882 94.0266 22.8531 93.8725 23.0642 93.7611C23.2819 93.6431 23.5392 93.5612 23.836 93.5153C24.1395 93.4629 24.4726 93.4367 24.8355 93.4367C24.9278 93.4367 25.0169 93.4367 25.1026 93.4367C25.195 93.4367 25.2874 93.4432 25.3797 93.4564C25.3995 93.2597 25.4094 93.0828 25.4094 92.9255C25.4094 92.565 25.3368 92.3126 25.1917 92.1684C25.0466 92.0242 24.7827 91.9521 24.4001 91.9521C24.2879 91.9521 24.1659 91.962 24.034 91.9816C23.9086 91.9947 23.7767 92.0177 23.6381 92.0505C23.5062 92.0767 23.3776 92.1127 23.2522 92.1586C23.1335 92.1979 23.0279 92.2438 22.9356 92.2962L22.6882 91.7064ZM24.0933 95.6488C24.278 95.6488 24.443 95.6258 24.5881 95.5799C24.7332 95.5275 24.8586 95.4652 24.9641 95.3931C25.0697 95.3145 25.1554 95.2293 25.2214 95.1375C25.294 95.0458 25.3467 94.9573 25.3797 94.8721V94.0561C25.2874 94.0495 25.1917 94.0462 25.0927 94.0462C25.0004 94.0397 24.908 94.0364 24.8157 94.0364C24.6112 94.0364 24.41 94.0495 24.2121 94.0757C24.0208 94.0954 23.8492 94.138 23.6975 94.2035C23.5524 94.2625 23.4336 94.3477 23.3413 94.4592C23.2555 94.564 23.2126 94.6984 23.2126 94.8622C23.2126 95.0917 23.2951 95.2817 23.46 95.4325C23.6249 95.5767 23.836 95.6488 24.0933 95.6488Z" fill="white" fill-opacity="0.5"/>
<path d="M29.2893 94.0856L27.8347 96.2583H26.9243L28.4878 94.0069L28.8242 93.712L28.3195 93.3384L27.0332 91.3426H27.8743L29.2398 93.4662H29.7544V91.3426H30.5262V93.5645L30.9913 93.4269L32.3667 91.3426H33.1979L31.8522 93.3384L31.4662 93.653L31.9709 94.0462L33.4354 96.2583H32.4954L31.0407 94.0462H30.5262V96.2583H29.7544V93.9479L29.2893 94.0856Z" fill="white" fill-opacity="0.5"/>
<path d="M34.12 91.7064C34.3706 91.5556 34.6609 91.4442 34.9908 91.3721C35.3272 91.3 35.6768 91.2639 36.0397 91.2639C36.3827 91.2639 36.6565 91.3098 36.861 91.4016C37.0721 91.4933 37.2304 91.6146 37.3359 91.7653C37.4481 91.9095 37.5207 92.0701 37.5536 92.2471C37.5932 92.424 37.613 92.601 37.613 92.778C37.613 93.1712 37.6031 93.5547 37.5833 93.9283C37.5635 94.3019 37.5536 94.6558 37.5536 94.9901C37.5536 95.2326 37.5635 95.462 37.5833 95.6783C37.6031 95.8946 37.6394 96.0945 37.6922 96.278H37.1083L36.9005 95.5898H36.8511C36.7917 95.6815 36.7158 95.7733 36.6235 95.8651C36.5377 95.9503 36.4322 96.0289 36.3068 96.101C36.1815 96.1666 36.0364 96.2223 35.8714 96.2681C35.7065 96.314 35.5185 96.337 35.3074 96.337C35.0963 96.337 34.8984 96.3042 34.7137 96.2387C34.5356 96.1731 34.3805 96.0814 34.2486 95.9634C34.1167 95.8388 34.0111 95.6914 33.932 95.521C33.8594 95.3505 33.8231 95.1572 33.8231 94.9409C33.8231 94.6525 33.8825 94.4133 34.0012 94.2232C34.12 94.0266 34.2849 93.8725 34.496 93.7611C34.7137 93.6431 34.971 93.5612 35.2678 93.5153C35.5713 93.4629 35.9044 93.4367 36.2672 93.4367C36.3596 93.4367 36.4487 93.4367 36.5344 93.4367C36.6268 93.4367 36.7191 93.4432 36.8115 93.4564C36.8313 93.2597 36.8412 93.0828 36.8412 92.9255C36.8412 92.565 36.7686 92.3126 36.6235 92.1684C36.4783 92.0242 36.2145 91.9521 35.8319 91.9521C35.7197 91.9521 35.5977 91.962 35.4657 91.9816C35.3404 91.9947 35.2085 92.0177 35.0699 92.0505C34.938 92.0767 34.8093 92.1127 34.684 92.1586C34.5653 92.1979 34.4597 92.2438 34.3674 92.2962L34.12 91.7064ZM35.5251 95.6488C35.7098 95.6488 35.8747 95.6258 36.0199 95.5799C36.165 95.5275 36.2903 95.4652 36.3959 95.3931C36.5014 95.3145 36.5872 95.2293 36.6532 95.1375C36.7257 95.0458 36.7785 94.9573 36.8115 94.8721V94.0561C36.7191 94.0495 36.6235 94.0462 36.5245 94.0462C36.4322 94.0397 36.3398 94.0364 36.2475 94.0364C36.043 94.0364 35.8417 94.0495 35.6438 94.0757C35.4525 94.0954 35.281 94.138 35.1293 94.2035C34.9842 94.2625 34.8654 94.3477 34.7731 94.4592C34.6873 94.564 34.6444 94.6984 34.6444 94.8622C34.6444 95.0917 34.7269 95.2817 34.8918 95.4325C35.0567 95.5767 35.2678 95.6488 35.5251 95.6488Z" fill="white" fill-opacity="0.5"/>
<path d="M45.1205 95.9339C44.9226 96.0781 44.6884 96.1862 44.418 96.2583C44.1475 96.337 43.8638 96.3763 43.567 96.3763C43.1843 96.3763 42.8611 96.3173 42.5972 96.1993C42.3334 96.0748 42.1157 95.9011 41.9441 95.6783C41.7792 95.4489 41.6572 95.1769 41.578 94.8622C41.5054 94.5411 41.4692 94.1872 41.4692 93.8005C41.4692 92.9681 41.6539 92.3323 42.0233 91.8931C42.3927 91.4475 42.9238 91.2246 43.6164 91.2246C43.9331 91.2246 44.2003 91.2508 44.418 91.3033C44.6423 91.3491 44.8435 91.418 45.0216 91.5097L44.794 92.1881C44.6423 92.1029 44.474 92.0373 44.2893 91.9915C44.1046 91.939 43.9067 91.9128 43.6956 91.9128C42.7589 91.9128 42.2905 92.542 42.2905 93.8005C42.2905 94.0495 42.3136 94.2887 42.3597 94.5181C42.4125 94.741 42.495 94.9409 42.6071 95.1179C42.7259 95.2883 42.8776 95.4259 43.0623 95.5308C43.2536 95.6357 43.4878 95.6881 43.7649 95.6881C44.0024 95.6881 44.2135 95.652 44.3982 95.5799C44.5895 95.5078 44.7445 95.4259 44.8632 95.3342L45.1205 95.9339Z" fill="white" fill-opacity="0.5"/>
<path d="M46.1315 91.7064C46.3822 91.5556 46.6725 91.4442 47.0023 91.3721C47.3388 91.3 47.6884 91.2639 48.0512 91.2639C48.3943 91.2639 48.668 91.3098 48.8726 91.4016C49.0836 91.4933 49.242 91.6146 49.3475 91.7653C49.4597 91.9095 49.5322 92.0701 49.5652 92.2471C49.6048 92.424 49.6246 92.601 49.6246 92.778C49.6246 93.1712 49.6147 93.5547 49.5949 93.9283C49.5751 94.3019 49.5652 94.6558 49.5652 94.9901C49.5652 95.2326 49.5751 95.462 49.5949 95.6783C49.6147 95.8946 49.651 96.0945 49.7038 96.278H49.1199L48.9121 95.5898H48.8626C48.8033 95.6815 48.7274 95.7733 48.6351 95.8651C48.5493 95.9503 48.4437 96.0289 48.3184 96.101C48.1931 96.1666 48.0479 96.2223 47.883 96.2681C47.7181 96.314 47.5301 96.337 47.319 96.337C47.1079 96.337 46.91 96.3042 46.7253 96.2387C46.5471 96.1731 46.3921 96.0814 46.2602 95.9634C46.1282 95.8388 46.0227 95.6914 45.9435 95.521C45.871 95.3505 45.8347 95.1572 45.8347 94.9409C45.8347 94.6525 45.8941 94.4133 46.0128 94.2232C46.1315 94.0266 46.2965 93.8725 46.5076 93.7611C46.7253 93.6431 46.9825 93.5612 47.2794 93.5153C47.5829 93.4629 47.916 93.4367 48.2788 93.4367C48.3712 93.4367 48.4602 93.4367 48.546 93.4367C48.6384 93.4367 48.7307 93.4432 48.8231 93.4564C48.8429 93.2597 48.8528 93.0828 48.8528 92.9255C48.8528 92.565 48.7802 92.3126 48.6351 92.1684C48.4899 92.0242 48.2261 91.9521 47.8434 91.9521C47.7313 91.9521 47.6092 91.962 47.4773 91.9816C47.352 91.9947 47.22 92.0177 47.0815 92.0505C46.9496 92.0767 46.8209 92.1127 46.6956 92.1586C46.5768 92.1979 46.4713 92.2438 46.3789 92.2962L46.1315 91.7064ZM47.5367 95.6488C47.7214 95.6488 47.8863 95.6258 48.0314 95.5799C48.1766 95.5275 48.3019 95.4652 48.4075 95.3931C48.513 95.3145 48.5988 95.2293 48.6647 95.1375C48.7373 95.0458 48.7901 94.9573 48.8231 94.8721V94.0561C48.7307 94.0495 48.6351 94.0462 48.5361 94.0462C48.4438 94.0397 48.3514 94.0364 48.259 94.0364C48.0545 94.0364 47.8533 94.0495 47.6554 94.0757C47.4641 94.0954 47.2926 94.138 47.1409 94.2035C46.9957 94.2625 46.877 94.3477 46.7846 94.4592C46.6989 94.564 46.656 94.6984 46.656 94.8622C46.656 95.0917 46.7385 95.2817 46.9034 95.4325C47.0683 95.5767 47.2794 95.6488 47.5367 95.6488Z" fill="white" fill-opacity="0.5"/>
<path d="M55.2065 93.3384L55.2658 92.4044H55.2164L54.8601 93.1614L53.6628 95.0884H53.3857L52.1389 93.1614L51.8124 92.4044H51.7728L51.852 93.3285V96.2583H51.1197V91.3426H51.9014L53.2868 93.5448L53.5737 94.1151H53.5935L53.8904 93.5252L55.1867 91.3426H55.9783V96.2583H55.2065V93.3384Z" fill="white" fill-opacity="0.5"/>
<path d="M57.2205 93.8005C57.2205 92.9681 57.4052 92.3323 57.7746 91.8931C58.1506 91.4475 58.6883 91.2246 59.3875 91.2246C59.757 91.2246 60.0769 91.2869 60.3474 91.4114C60.6245 91.5294 60.852 91.7031 61.0302 91.9325C61.2083 92.1553 61.3402 92.4273 61.426 92.7485C61.5117 93.0631 61.5546 93.4137 61.5546 93.8005C61.5546 94.6328 61.3666 95.2719 60.9906 95.7176C60.6212 96.1567 60.0868 96.3763 59.3875 96.3763C59.0181 96.3763 58.6949 96.3173 58.4178 96.1993C58.1473 96.0748 57.923 95.9011 57.7449 95.6783C57.5668 95.4489 57.4349 95.1769 57.3491 94.8622C57.2634 94.5411 57.2205 94.1872 57.2205 93.8005ZM58.0418 93.8005C58.0418 94.0495 58.0649 94.2887 58.111 94.5181C58.1638 94.7475 58.243 94.9475 58.3485 95.1179C58.4541 95.2883 58.5926 95.4259 58.7641 95.5308C58.9357 95.6357 59.1435 95.6881 59.3875 95.6881C60.2847 95.6946 60.7333 95.0654 60.7333 93.8005C60.7333 93.5448 60.7069 93.3023 60.6541 93.0729C60.608 92.8435 60.5321 92.6436 60.4265 92.4732C60.321 92.3028 60.1825 92.1684 60.0109 92.0701C59.8394 91.9652 59.6316 91.9128 59.3875 91.9128C58.4904 91.9063 58.0418 92.5355 58.0418 93.8005Z" fill="white" fill-opacity="0.5"/>
<path d="M66.177 95.9339C65.9791 96.0781 65.7449 96.1862 65.4745 96.2583C65.204 96.337 64.9203 96.3763 64.6235 96.3763C64.2409 96.3763 63.9176 96.3173 63.6537 96.1993C63.3899 96.0748 63.1722 95.9011 63.0006 95.6783C62.8357 95.4489 62.7137 95.1769 62.6345 94.8622C62.562 94.5411 62.5257 94.1872 62.5257 93.8005C62.5257 92.9681 62.7104 92.3323 63.0798 91.8931C63.4492 91.4475 63.9803 91.2246 64.6729 91.2246C64.9896 91.2246 65.2568 91.2508 65.4745 91.3033C65.6988 91.3491 65.9 91.418 66.0781 91.5097L65.8505 92.1881C65.6988 92.1029 65.5305 92.0373 65.3458 91.9915C65.1611 91.939 64.9632 91.9128 64.7521 91.9128C63.8154 91.9128 63.347 92.542 63.347 93.8005C63.347 94.0495 63.3701 94.2887 63.4162 94.5181C63.469 94.741 63.5515 94.9409 63.6636 95.1179C63.7824 95.2883 63.9341 95.4259 64.1188 95.5308C64.3101 95.6357 64.5443 95.6881 64.8214 95.6881C65.0589 95.6881 65.27 95.652 65.4547 95.5799C65.646 95.5078 65.801 95.4259 65.9198 95.3342L66.177 95.9339Z" fill="white" fill-opacity="0.5"/>
<path d="M67.2672 91.3524C67.4981 91.3393 67.7389 91.3229 67.9896 91.3033C68.2468 91.2836 68.5635 91.2738 68.9395 91.2738C69.5926 91.2738 70.061 91.3754 70.3447 91.5785C70.6283 91.7752 70.7701 92.0767 70.7701 92.483C70.7701 92.7124 70.7009 92.9386 70.5624 93.1614C70.4304 93.3777 70.2094 93.5383 69.8994 93.6431V93.6825C70.2886 93.7546 70.5624 93.8889 70.7207 94.0856C70.879 94.2822 70.9582 94.5444 70.9582 94.8721C70.9582 95.3833 70.7735 95.7536 70.404 95.983C70.0346 96.2124 69.4805 96.3271 68.7416 96.3271C68.4645 96.3271 68.2073 96.3173 67.9698 96.2976C67.7323 96.2845 67.4981 96.2681 67.2672 96.2485V91.3524ZM68.0588 95.5996C68.1842 95.6127 68.3062 95.6225 68.425 95.6291C68.5503 95.6357 68.6954 95.6389 68.8604 95.6389C69.3024 95.6389 69.6289 95.5767 69.84 95.4521C70.0577 95.3276 70.1665 95.1146 70.1665 94.8131C70.1665 94.5771 70.0742 94.3871 69.8895 94.2429C69.7114 94.0921 69.3914 94.0167 68.9296 94.0167H68.0588V95.5996ZM69.0286 93.417C69.1473 93.417 69.2628 93.3974 69.3749 93.358C69.4871 93.3187 69.586 93.2663 69.6718 93.2007C69.7641 93.1286 69.8367 93.0467 69.8895 92.9549C69.9488 92.8632 69.9785 92.7649 69.9785 92.66C69.9785 92.3978 69.8994 92.2176 69.741 92.1193C69.5827 92.0144 69.3056 91.962 68.9098 91.962C68.6987 91.962 68.5305 91.9652 68.4052 91.9718C68.2864 91.9784 68.171 91.9849 68.0588 91.9915V93.417H69.0286Z" fill="white" fill-opacity="0.5"/>
<path d="M72.126 91.7064C72.3767 91.5556 72.667 91.4442 72.9968 91.3721C73.3333 91.3 73.6829 91.2639 74.0457 91.2639C74.3888 91.2639 74.6625 91.3098 74.867 91.4016C75.0781 91.4933 75.2365 91.6146 75.342 91.7653C75.4542 91.9095 75.5267 92.0701 75.5597 92.2471C75.5993 92.424 75.6191 92.601 75.6191 92.778C75.6191 93.1712 75.6092 93.5547 75.5894 93.9283C75.5696 94.3019 75.5597 94.6558 75.5597 94.9901C75.5597 95.2326 75.5696 95.462 75.5894 95.6783C75.6092 95.8946 75.6455 96.0945 75.6982 96.278H75.1144L74.9066 95.5898H74.8571C74.7978 95.6815 74.7219 95.7733 74.6296 95.8651C74.5438 95.9503 74.4382 96.0289 74.3129 96.101C74.1876 96.1666 74.0424 96.2223 73.8775 96.2681C73.7126 96.314 73.5246 96.337 73.3135 96.337C73.1024 96.337 72.9045 96.3042 72.7198 96.2387C72.5416 96.1731 72.3866 96.0814 72.2547 95.9634C72.1227 95.8388 72.0172 95.6914 71.938 95.521C71.8655 95.3505 71.8292 95.1572 71.8292 94.9409C71.8292 94.6525 71.8885 94.4133 72.0073 94.2232C72.126 94.0266 72.291 93.8725 72.5021 93.7611C72.7198 93.6431 72.977 93.5612 73.2739 93.5153C73.5774 93.4629 73.9105 93.4367 74.2733 93.4367C74.3657 93.4367 74.4547 93.4367 74.5405 93.4367C74.6329 93.4367 74.7252 93.4432 74.8176 93.4564C74.8373 93.2597 74.8472 93.0828 74.8472 92.9255C74.8472 92.565 74.7747 92.3126 74.6296 92.1684C74.4844 92.0242 74.2205 91.9521 73.8379 91.9521C73.7258 91.9521 73.6037 91.962 73.4718 91.9816C73.3465 91.9947 73.2145 92.0177 73.076 92.0505C72.9441 92.0767 72.8154 92.1127 72.6901 92.1586C72.5713 92.1979 72.4658 92.2438 72.3734 92.2962L72.126 91.7064ZM73.5312 95.6488C73.7159 95.6488 73.8808 95.6258 74.0259 95.5799C74.1711 95.5275 74.2964 95.4652 74.402 95.3931C74.5075 95.3145 74.5933 95.2293 74.6592 95.1375C74.7318 95.0458 74.7846 94.9573 74.8176 94.8721V94.0561C74.7252 94.0495 74.6296 94.0462 74.5306 94.0462C74.4382 94.0397 74.3459 94.0364 74.2535 94.0364C74.049 94.0364 73.8478 94.0495 73.6499 94.0757C73.4586 94.0954 73.2871 94.138 73.1354 94.2035C72.9902 94.2625 72.8715 94.3477 72.7791 94.4592C72.6934 94.564 72.6505 94.6984 72.6505 94.8622C72.6505 95.0917 72.733 95.2817 72.8979 95.4325C73.0628 95.5767 73.2739 95.6488 73.5312 95.6488Z" fill="white" fill-opacity="0.5"/>
<path d="M79.776 92.0308H78.3412C78.3214 92.3061 78.3016 92.6043 78.2818 92.9255C78.2621 93.2401 78.2324 93.5579 78.1928 93.8791C78.1532 94.1937 78.1004 94.4985 78.0345 94.7934C77.9685 95.0818 77.8827 95.3374 77.7772 95.5603C77.6782 95.7831 77.5529 95.9634 77.4012 96.101C77.256 96.2321 77.0812 96.2976 76.8767 96.2976C76.7514 96.2976 76.6425 96.2911 76.5502 96.278C76.4578 96.2649 76.3754 96.2419 76.3028 96.2092L76.4215 95.5505C76.5007 95.5767 76.5864 95.5898 76.6788 95.5898C76.8107 95.5898 76.9295 95.5341 77.035 95.4226C77.1406 95.3112 77.2329 95.1015 77.3121 94.7934C77.3913 94.4788 77.4572 94.0462 77.51 93.4957C77.5628 92.9451 77.5991 92.2274 77.6189 91.3426H80.5677V96.2583H79.776V92.0308Z" fill="white" fill-opacity="0.5"/>
<path d="M81.8138 93.8005C81.8138 92.9681 81.9985 92.3323 82.3679 91.8931C82.7439 91.4475 83.2816 91.2246 83.9808 91.2246C84.3503 91.2246 84.6702 91.2869 84.9407 91.4114C85.2178 91.5294 85.4454 91.7031 85.6235 91.9325C85.8016 92.1553 85.9335 92.4273 86.0193 92.7485C86.105 93.0631 86.1479 93.4137 86.1479 93.8005C86.1479 94.6328 85.9599 95.2719 85.5839 95.7176C85.2145 96.1567 84.6801 96.3763 83.9808 96.3763C83.6114 96.3763 83.2882 96.3173 83.0111 96.1993C82.7406 96.0748 82.5163 95.9011 82.3382 95.6783C82.1601 95.4489 82.0282 95.1769 81.9424 94.8622C81.8567 94.5411 81.8138 94.1872 81.8138 93.8005ZM82.6351 93.8005C82.6351 94.0495 82.6582 94.2887 82.7044 94.5181C82.7571 94.7475 82.8363 94.9475 82.9418 95.1179C83.0474 95.2883 83.1859 95.4259 83.3574 95.5308C83.529 95.6357 83.7368 95.6881 83.9808 95.6881C84.878 95.6946 85.3266 95.0654 85.3266 93.8005C85.3266 93.5448 85.3002 93.3023 85.2474 93.0729C85.2013 92.8435 85.1254 92.6436 85.0199 92.4732C84.9143 92.3028 84.7758 92.1684 84.6042 92.0701C84.4327 91.9652 84.2249 91.9128 83.9808 91.9128C83.0837 91.9063 82.6351 92.5355 82.6351 93.8005Z" fill="white" fill-opacity="0.5"/>
<path d="M87.396 91.3524C87.6269 91.3393 87.8677 91.3229 88.1184 91.3033C88.3757 91.2836 88.6923 91.2738 89.0683 91.2738C89.7214 91.2738 90.1898 91.3754 90.4735 91.5785C90.7571 91.7752 90.899 92.0767 90.899 92.483C90.899 92.7124 90.8297 92.9386 90.6912 93.1614C90.5592 93.3777 90.3382 93.5383 90.0282 93.6431V93.6825C90.4174 93.7546 90.6912 93.8889 90.8495 94.0856C91.0078 94.2822 91.087 94.5444 91.087 94.8721C91.087 95.3833 90.9023 95.7536 90.5329 95.983C90.1634 96.2124 89.6093 96.3271 88.8704 96.3271C88.5934 96.3271 88.3361 96.3173 88.0986 96.2976C87.8611 96.2845 87.6269 96.2681 87.396 96.2485V91.3524ZM88.1877 95.5996C88.313 95.6127 88.435 95.6225 88.5538 95.6291C88.6791 95.6357 88.8243 95.6389 88.9892 95.6389C89.4312 95.6389 89.7577 95.5767 89.9688 95.4521C90.1865 95.3276 90.2954 95.1146 90.2954 94.8131C90.2954 94.5771 90.203 94.3871 90.0183 94.2429C89.8402 94.0921 89.5202 94.0167 89.0584 94.0167H88.1877V95.5996ZM89.1574 93.417C89.2761 93.417 89.3916 93.3974 89.5037 93.358C89.6159 93.3187 89.7148 93.2663 89.8006 93.2007C89.893 93.1286 89.9655 93.0467 90.0183 92.9549C90.0777 92.8632 90.1074 92.7649 90.1074 92.66C90.1074 92.3978 90.0282 92.2176 89.8699 92.1193C89.7115 92.0144 89.4345 91.962 89.0387 91.962C88.8276 91.962 88.6593 91.9652 88.534 91.9718C88.4153 91.9784 88.2998 91.9849 88.1877 91.9915V93.417H89.1574Z" fill="white" fill-opacity="0.5"/>
</g>
<defs>
<clipPath id="clip0_174_3938">
<rect width="93" height="98" fill="white"/>
</clipPath>
</defs>
</svg>
