<svg width="154" height="154" viewBox="0 0 154 154" fill="none" xmlns="http://www.w3.org/2000/svg">
<g clip-path="url(#clip0_174_3700)">
<rect x="17" y="15.1973" width="128" height="129.684" rx="64" fill="#E3EDF1"/>
<path fill-rule="evenodd" clip-rule="evenodd" d="M122.368 99.961C122.368 97.0708 125.642 97.9929 125.642 99.3392C125.642 100.645 125.516 101.412 123.8 101.412C122.845 101.412 122.368 100.929 122.368 99.961ZM119.095 99.7537C119.095 102.636 121.208 104.729 124.21 104.729C130.202 104.729 130.7 94.7788 123.8 94.7788C121.545 94.7788 119.095 96.9367 119.095 99.7537Z" fill="url(#paint0_linear_174_3700)"/>
<path fill-rule="evenodd" clip-rule="evenodd" d="M83.6995 99.7537C83.6995 97.6382 87.1776 97.4199 87.1776 99.7537C87.1776 102.184 83.6995 101.808 83.6995 99.7537ZM82.2471 103.536C84.0895 105.244 87.0892 105.137 88.9771 103.235C92.0794 100.11 89.8311 94.7788 85.3363 94.7788C84.2269 94.7788 83.1127 95.2745 82.2471 96.0462V103.536Z" fill="url(#paint1_linear_174_3700)"/>
<path d="M64.2401 51.9708C68.9779 51.9708 72.8186 48.026 72.8186 43.1599C72.8186 38.2939 68.9779 34.3491 64.2401 34.3491C59.5023 34.3491 55.6616 38.2939 55.6616 43.1599C55.6616 48.026 59.5023 51.9708 64.2401 51.9708Z" stroke="#382716" stroke-width="3" stroke-miterlimit="22.9256"/>
<path d="M64.2402 39.8999V46.4194M61.0229 43.1596H67.4577" stroke="#382716" stroke-width="3" stroke-miterlimit="22.9256"/>
<path d="M64.3554 75.9595C69.0931 75.9595 72.9339 72.0148 72.9339 67.1487C72.9339 62.2826 69.0931 58.3379 64.3554 58.3379C59.6176 58.3379 55.7769 62.2826 55.7769 67.1487C55.7769 72.0148 59.6176 75.9595 64.3554 75.9595Z" stroke="#382716" stroke-width="3" stroke-miterlimit="22.9256"/>
<path d="M64.2402 39.8999V46.4194M61.0229 43.1596H67.4577" stroke="#382716" stroke-width="3" stroke-miterlimit="22.9256"/>
<path d="M64.2402 63.8882V70.4077M61.0229 67.1479H67.4577" stroke="#382716" stroke-width="3" stroke-miterlimit="22.9256"/>
<path d="M64.8822 101.103C69.62 101.103 73.4607 97.1584 73.4607 92.2923C73.4607 87.4262 69.62 83.4814 64.8822 83.4814C60.1444 83.4814 56.3037 87.4262 56.3037 92.2923C56.3037 97.1584 60.1444 101.103 64.8822 101.103Z" stroke="#382716" stroke-width="3" stroke-miterlimit="22.9256"/>
<path d="M64.8823 89.0332V95.5527M61.665 92.2929H68.0998" stroke="#382716" stroke-width="3" stroke-miterlimit="22.9256"/>
<path d="M64.8823 89.0332V95.5527M61.665 92.2929H68.0998" stroke="#382716" stroke-width="3" stroke-miterlimit="22.9256"/>
<path fill-rule="evenodd" clip-rule="evenodd" d="M124.619 107.838C122.028 107.838 120.495 107.709 118.324 105.509C114.223 101.355 115.866 94.4785 120.463 92.4341C126.317 89.8307 131.984 94.1673 131.984 99.3389C131.984 102.025 131.482 103.654 129.688 105.512C128.569 106.671 126.794 107.838 124.619 107.838ZM145.283 79.4392V84.8233C145.134 85.8114 144.79 86.487 144.055 86.487C141.647 86.487 142.214 84.8369 142.214 81.0975H124.005C122.725 81.0975 121.959 79.9481 121.959 78.6101C121.959 66.8231 121.029 66.7873 125.846 66.7946C127.96 66.7978 130.075 66.7947 132.189 66.7947C131.87 66.3122 130.501 64.3072 129.938 64.3072H117.253V90.6328C127.256 83.8465 136.831 93.6776 135.053 101.412H142.214V91.8765C142.214 90.2243 145.283 90.2243 145.283 91.8765V102.448C145.283 103.382 144.429 104.222 143.831 104.501C142.915 104.93 135.375 104.728 134.03 104.728C133.834 105.47 132.939 106.702 132.443 107.266C130.206 109.818 127.317 111.154 123.596 111.154C119.395 111.154 114.617 107.5 113.98 104.728H105.182C105.725 105.875 105.593 107.216 103.954 107.216C102.695 107.216 102.273 106.314 101.908 104.728H95.5661C93.4249 108.828 90.0549 111.154 85.1317 111.154C84.1826 111.154 83.2027 110.976 82.2471 110.666V107.257C83.3651 107.742 84.5427 107.838 86.1547 107.838C91.3675 107.838 95.1622 101.493 92.8423 96.5017C91.9064 94.4882 91 93.4761 89.0245 92.4928C87.3837 91.6761 86.7543 91.6692 84.9271 91.6692C83.9079 91.6692 83.0229 91.9003 82.2471 92.2637V88.3526H96.7937C98.5343 88.3526 99.1865 89.2563 99.7211 90.5687L102.61 98.0064C102.897 98.7332 103.105 99.2361 103.368 99.9329C103.839 101.178 103.754 101.412 104.364 101.412H112.752C112.752 94.9167 114.184 95.374 114.184 93.7421V85.4506H82.2471V82.134H87.5868V65.1364H82.2471V62.0271H103.545C103.935 62.0271 106.019 60.1856 106.473 59.8113L109.321 57.5143C110.294 56.7099 114.185 53.321 115.207 53.321H131.984V49.797H113.775C113.291 49.797 111.168 51.6556 110.679 52.05L104.746 56.8176C103.371 57.9279 103.193 58.5031 101.295 58.5031C98.8337 58.5031 84.7971 58.764 82.2471 58.2968V55.2648C82.9223 55.1171 83.8099 55.1852 84.7224 55.1864L100.695 55.2012C102.128 55.2008 101.78 55.1445 102.614 54.4504L107.05 50.8607C108.074 50.0343 108.941 49.3097 110.004 48.4637C111.06 47.6232 112.078 46.4805 113.161 46.4805H132.598C133.7 46.4805 135.053 47.597 135.053 48.7607C135.053 54.257 135.969 56.6376 131.166 56.6376H117.253V60.9906H130.347C131.793 60.9906 132.377 61.7824 133.039 62.6162L141.98 74.4944C142.645 75.3964 145.283 78.2948 145.283 79.4392ZM93.5201 91.6692H96.7937C97.1474 93.2077 100.231 100.345 100.476 101.412H96.589C96.6079 100.553 96.7937 100.621 96.7937 100.168C96.7937 98.5294 96.3427 96.5511 95.8334 95.3368C95.1195 93.6345 94.4119 93.0185 93.5201 91.6692ZM125.232 69.904H134.235C134.866 69.904 137.009 73.187 137.422 73.7227C137.984 74.4523 138.367 75.0462 138.912 75.7366C139.488 76.4658 139.93 76.9334 140.373 77.781H125.232V69.904ZM102.318 75.5008V82.134H90.6558V65.1364H102.318C102.318 67.5137 101.878 69.6967 103.954 69.6967C106.082 69.6967 105.591 66.6445 105.591 64.5145C106.411 64.2928 111.039 60.2474 111.934 59.5396C112.528 59.0691 113.552 58.0524 114.184 57.8813V82.134H105.591C105.591 80.4995 105.84 75.6172 105.249 74.6033C104.443 73.2181 102.318 73.7808 102.318 75.5008Z" fill="url(#paint2_linear_174_3700)"/>
<path d="M11.2812 40.6953H45.7365M11.2812 45.6744H30.756" stroke="#382716" stroke-width="3" stroke-miterlimit="22.9256"/>
<path d="M11.3965 64.6841H45.8518M11.3965 69.6632H30.8712" stroke="#382716" stroke-width="3" stroke-miterlimit="22.9256"/>
<path d="M11.9238 89.8286H46.3791M11.9238 94.8077H31.3985" stroke="#382716" stroke-width="3" stroke-miterlimit="22.9256"/>
<path d="M83.5316 4.05273H80.8662V154.38H83.5316V4.05273Z" fill="#382716"/>
</g>
<defs>
<linearGradient id="paint0_linear_174_3700" x1="123.967" y1="95.8843" x2="125.228" y2="110.707" gradientUnits="userSpaceOnUse">
<stop stop-color="#D54C00"/>
<stop offset="1" stop-color="#D30000"/>
</linearGradient>
<linearGradient id="paint1_linear_174_3700" x1="86.3302" y1="95.886" x2="87.835" y2="110.685" gradientUnits="userSpaceOnUse">
<stop stop-color="#D54C00"/>
<stop offset="1" stop-color="#D30000"/>
</linearGradient>
<linearGradient id="paint2_linear_174_3700" x1="113.765" y1="53.6664" x2="122.002" y2="150.006" gradientUnits="userSpaceOnUse">
<stop stop-color="#D54C00"/>
<stop offset="1" stop-color="#D30000"/>
</linearGradient>
<clipPath id="clip0_174_3700">
<rect width="154" height="154" fill="white"/>
</clipPath>
</defs>
</svg>
