<svg width="154" height="154" viewBox="0 0 154 154" fill="none" xmlns="http://www.w3.org/2000/svg">
<rect x="16.4258" y="13" width="128" height="128" rx="64" fill="#E3EDF1"/>
<path fill-rule="evenodd" clip-rule="evenodd" d="M80.1726 134.887H76.7978C76.7978 131.818 76.4401 127.93 78.0975 125.43C78.8454 124.301 80.1974 122.781 81.6491 122.443C82.1573 122.815 83.5308 124.811 84.0595 125.516C84.5024 126.107 84.8346 126.558 85.2268 127.091C87.2722 129.868 88.9531 126.506 90.297 125.607C91.6409 126.506 93.3218 129.868 95.3672 127.091L98.945 122.443C101.715 123.088 103.796 126.817 103.796 130.458V134.887H100.421V128.138H97.0466V134.887H83.5474V128.138H80.1726V134.887ZM90.9298 121.388H95.1483C94.9854 121.998 94.8482 122.013 94.429 122.567C94.0749 123.035 93.8532 123.421 93.4609 123.708C92.7072 123.203 91.7044 122.061 90.9298 121.388ZM87.1332 123.708C86.7559 123.432 85.5965 121.953 85.4458 121.388H89.6643C88.8896 122.061 87.8869 123.203 87.1332 123.708ZM83.5474 110.42V106.623C83.5474 105.798 85.1482 105.207 85.4458 104.092C86.4799 104.368 87.2465 105.535 89.5711 106.506C93.0658 107.964 93.331 107.889 97.0466 107.889C97.0466 111.612 97.2776 115.24 93.1857 117.316C89.2952 119.29 83.5474 116.876 83.5474 110.42ZM101.898 111.264H100.421V107.889H101.898C102.838 107.889 103.796 108.743 103.796 109.576C103.796 110.409 102.838 111.264 101.898 111.264ZM76.7978 109.576C76.7978 108.743 77.7556 107.889 78.6962 107.889H80.1726V111.264H78.6962C77.7556 111.264 76.7978 110.409 76.7978 109.576ZM80.1726 104.092C80.1726 100.401 79.4004 94.3896 85.6567 94.3896H94.9374C101.265 94.3896 100.421 100.647 100.421 104.514C95.8595 104.514 93.2563 104.887 89.3814 102.477C88.517 101.939 87.6157 101.201 87.2139 100.215C86.7317 99.0311 86.9357 97.7644 85.2348 97.7644C82.363 97.7644 84.4754 103.09 80.1726 104.092ZM68.3086 83.3693L68.3608 94.3896H57.3927L68.3086 83.3693ZM76.7978 104.725C74.3585 106.016 73.423 107.05 73.423 109.998C73.423 111.59 74.5548 113.106 75.565 113.762C77.3134 114.897 78.1242 114.638 80.8054 114.638C81.0021 115.483 81.2644 115.949 81.6321 116.554C81.8604 116.929 81.8557 116.947 82.1399 117.312C82.5707 117.865 82.4946 117.441 82.7037 118.224C80.9194 118.64 79.3549 119.38 77.9698 120.451C77.5303 120.791 77.0228 121.388 76.5869 121.388H54.8616V97.7644H70.0482C71.0685 97.7644 71.7356 97.0973 71.7356 96.077V80.8904H88.6096V91.0148C84.4686 91.0148 80.6825 90.5362 77.9359 95.1058C76.3388 97.7631 76.7978 100.706 76.7978 104.725ZM51.4868 96.077V123.075C51.4868 125.228 53.795 124.763 55.9162 124.763H74.4777C74.3104 125.481 73.9965 125.96 73.7667 126.794C73.1814 128.918 73.423 134.016 73.423 136.575C73.423 137.595 74.0901 138.262 75.1104 138.262H105.484C106.504 138.262 107.171 137.595 107.171 136.575C107.171 130.749 107.962 126.125 104.27 121.969C102.69 120.192 100.555 118.845 97.8903 118.224C98.1444 117.273 99.3255 116.626 99.7887 114.638C102.319 114.638 103.215 114.896 104.9 113.844C107.454 112.25 107.885 108.759 106.127 106.402C105.562 105.644 104.653 105.178 103.796 104.725C103.796 100.706 104.255 97.7631 102.658 95.1058C99.9115 90.5362 96.1254 91.0148 91.9844 91.0148V79.203C91.9844 78.1827 91.3173 77.5156 90.297 77.5156H70.0482C68.8491 77.5156 66.2868 80.5388 65.0387 81.7868L53.4379 93.3877C52.7725 94.053 51.4868 94.9319 51.4868 96.077Z" fill="url(#paint0_linear_174_3782)"/>
<path fill-rule="evenodd" clip-rule="evenodd" d="M46.4246 45.4549C46.4246 38.1283 55.5121 34.1927 60.8179 39.4986C61.2856 39.9663 62.2325 41.3395 62.5229 42.0121C63.5194 44.319 63.5191 46.5908 62.5229 48.8977L60.6969 51.5012C55.9656 56.2633 56.5627 47.254 56.564 68.8826C56.5641 70.0683 56.6901 69.8684 56.0926 70.5203C55.7012 70.9472 55.3208 71.3021 54.8616 71.6096C52.9457 70.3266 53.1742 69.8129 53.1742 68.4457C53.1742 67.4881 54.8616 67.2555 54.8616 65.7037C54.8616 64.7453 54.4111 64.6035 54.0179 64.0163C55.2902 62.1163 55.3152 62.1816 53.6322 60.3944C52.5886 59.2862 53.5245 56.5149 53.1347 54.5641C52.7453 52.6146 50.8275 54.1176 47.9879 50.2193C47.1875 49.1204 46.4246 47.231 46.4246 45.4549ZM43.0498 44.8221C43.0498 50.2223 45.2118 53.7846 49.7994 56.2121C49.7994 57.3388 49.8041 58.4658 49.7937 59.5925C49.7741 61.7238 49.8244 61.1063 50.6431 62.3289C49.4214 64.1532 49.4214 63.8793 50.6431 65.7037C49.4463 67.491 49.7994 66.7038 49.7994 70.7659C49.7994 71.9237 53.7038 75.8281 54.8616 75.8281C56.0654 75.8281 57.538 73.8886 58.2892 73.1388C60.0887 71.3425 59.9284 72.027 59.9239 68.6567C59.9184 64.5086 59.9238 60.3602 59.9238 56.2121C71.9053 49.8722 66.4301 33.6431 55.4944 33.6431H54.2289C48.4811 33.6431 43.0498 39.0743 43.0498 44.8221Z" fill="url(#paint1_linear_174_3782)"/>
<path fill-rule="evenodd" clip-rule="evenodd" d="M13.0986 89.7491L15.4654 92.234L19.3778 88.4347L19.4207 118.651C19.4056 120.274 19.5339 121.388 21.1138 121.388H48.1122V118.013H22.8012V88.4835L26.6491 92.2289L29.0828 89.9134C28.5597 89.1132 24.694 85.4217 23.4867 84.2122C20.6943 81.4149 20.7476 82.2056 16.948 86.0051C15.9649 86.9883 14.0847 89.0887 13.0986 89.7491Z" fill="black"/>
<path fill-rule="evenodd" clip-rule="evenodd" d="M70.0483 53.8919H86.9223V69.9222L82.9634 66.0767L80.6451 68.4961C81.1647 69.2934 85.0312 72.9856 86.2368 74.1935C88.406 76.3664 88.6994 76.4849 90.8773 74.299C92.1395 73.032 96.0459 69.3103 96.6249 68.4458L94.14 66.0789L90.3484 69.9735L90.2974 54.1025C90.3022 52.2028 90.5304 50.5171 88.6097 50.5171H70.0483V53.8919Z" fill="black"/>
<path fill-rule="evenodd" clip-rule="evenodd" d="M61.6113 102.826H71.7357V99.4517H61.6113V102.826Z" fill="black"/>
<path fill-rule="evenodd" clip-rule="evenodd" d="M61.6113 107.888H71.7357V104.514H61.6113V107.888Z" fill="black"/>
<path fill-rule="evenodd" clip-rule="evenodd" d="M61.6113 112.951H71.7357V109.576H61.6113V112.951Z" fill="black"/>
<path fill-rule="evenodd" clip-rule="evenodd" d="M53.1743 42.0799H56.5491V38.7051H53.1743V42.0799Z" fill="url(#paint2_linear_174_3782)"/>
<path fill-rule="evenodd" clip-rule="evenodd" d="M56.5488 102.826H59.9236V99.4517H56.5488V102.826Z" fill="black"/>
<path fill-rule="evenodd" clip-rule="evenodd" d="M56.5488 107.888H59.9236V104.514H56.5488V107.888Z" fill="black"/>
<path fill-rule="evenodd" clip-rule="evenodd" d="M56.5488 112.951H59.9236V109.576H56.5488V112.951Z" fill="black"/>
<path fill-rule="evenodd" clip-rule="evenodd" d="M36.0696 75.4074H39.4444C39.4444 72.3378 39.8021 68.4505 38.1448 65.95C37.3968 64.8216 36.0448 63.301 34.5931 62.9629C34.0849 63.3352 32.7114 65.3312 32.1827 66.0365C31.7398 66.6274 31.4077 67.0787 31.0154 67.6112C28.97 70.3878 27.2891 67.0266 25.9452 66.1267C24.6013 67.0266 22.9204 70.3878 20.875 67.6112L17.2973 62.9629C14.5269 63.6083 12.446 67.3374 12.446 70.9781V75.4074H15.8208V68.6578H19.1956V75.4074H32.6948V68.6578H36.0696V75.4074ZM25.3124 61.9082H21.0939C21.2569 62.5186 21.3941 62.5333 21.8132 63.0873C22.1673 63.5554 22.389 63.941 22.7813 64.2285C23.5351 63.7237 24.5378 62.5816 25.3124 61.9082ZM29.1091 64.2285C29.4863 63.952 30.6458 62.4727 30.7965 61.9082H26.578C27.3526 62.5816 28.3554 63.7237 29.1091 64.2285ZM32.6948 50.9401V47.1435C32.6948 46.3179 31.0941 45.727 30.7965 44.6124C29.7624 44.8885 28.9958 46.0556 26.6712 47.0257C23.1764 48.4842 22.9113 48.409 19.1956 48.409C19.1956 52.1322 18.9646 55.7602 23.0565 57.8364C26.947 59.8104 32.6948 57.3959 32.6948 50.9401ZM14.3443 51.7838H15.8208V48.409H14.3443C13.4038 48.409 12.446 49.2632 12.446 50.0964C12.446 50.9297 13.4038 51.7838 14.3443 51.7838ZM39.4444 50.0964C39.4444 49.2632 38.4866 48.409 37.5461 48.409H36.0696V51.7838H37.5461C38.4866 51.7838 39.4444 50.9297 39.4444 50.0964ZM36.0696 44.6124C36.0696 40.9214 36.8418 34.9098 30.5856 34.9098H21.3049C14.9775 34.9098 15.8208 41.1668 15.8208 45.0342C20.3827 45.0342 22.9859 45.4071 26.8608 42.9969C27.7252 42.4593 28.6265 41.7215 29.0284 40.7351C29.5105 39.5513 29.3065 38.2846 31.0074 38.2846C33.8793 38.2846 31.7668 43.6099 36.0696 44.6124ZM41.7646 65.283C41.9318 66.0008 42.2457 66.4804 42.4755 67.3142C43.0609 69.4383 42.8192 74.5358 42.8192 77.0948C42.8192 78.1151 42.1521 78.7822 41.1318 78.7822H10.7586C9.73832 78.7822 9.07122 78.1151 9.07122 77.0948C9.07122 71.269 8.27991 66.6448 11.9726 62.4894C13.5518 60.7123 15.6873 59.3652 18.3519 58.7444C18.0978 57.7927 16.9167 57.1465 16.4536 55.1586C13.9228 55.1586 13.0273 55.4159 11.3422 54.3641C8.78826 52.7699 8.35676 49.279 10.1151 46.9218C10.6806 46.1638 11.5891 45.6985 12.446 45.2452C12.446 41.2266 11.987 38.2833 13.5841 35.626C16.3307 31.0564 20.1168 31.535 24.2578 31.535V31.376H27.6326V31.535C31.7736 31.535 35.5598 31.0564 38.3064 35.626C39.9034 38.2833 39.4444 41.2266 39.4444 45.2452C41.8838 46.5359 42.8192 47.5704 42.8192 50.5183C42.8192 52.1102 41.6875 53.6262 40.6772 54.2822C38.9288 55.4174 38.118 55.1586 35.4368 55.1586C35.2401 56.0031 34.9778 56.4695 34.6102 57.074C34.3818 57.4496 34.3865 57.4667 34.1024 57.8317C33.6715 58.3851 33.7477 57.9611 33.5385 58.7444C35.3229 59.16 36.8873 59.8999 38.2724 60.971C38.7119 61.3108 39.2194 61.9082 39.6553 61.9082C40.2892 63.9151 41.026 63.5629 41.7646 65.283Z" fill="black"/>
<defs>
<linearGradient id="paint0_linear_174_3782" x1="79.3645" y1="84.2652" x2="87.5727" y2="174.671" gradientUnits="userSpaceOnUse">
<stop stop-color="#D54C00"/>
<stop offset="1" stop-color="#D30000"/>
</linearGradient>
<linearGradient id="paint1_linear_174_3782" x1="54.8701" y1="38.3303" x2="64.0792" y2="100.26" gradientUnits="userSpaceOnUse">
<stop stop-color="#D54C00"/>
<stop offset="1" stop-color="#D30000"/>
</linearGradient>
<linearGradient id="paint2_linear_174_3782" x1="54.8617" y1="39.0801" x2="55.2808" y2="44.1091" gradientUnits="userSpaceOnUse">
<stop stop-color="#D54C00"/>
<stop offset="1" stop-color="#D30000"/>
</linearGradient>
</defs>
</svg>
