<svg width="61" height="50" viewBox="0 0 61 50" fill="none" xmlns="http://www.w3.org/2000/svg">
<path fill-rule="evenodd" clip-rule="evenodd" d="M27.8387 21.2052C28.0476 22.3972 25.6468 27.7321 25.1248 29.1626C24.4987 30.7423 23.9246 31.2489 21.8892 31.2489C19.4885 31.2489 18.0794 31.6065 17.2965 30.5634C5.34512 14.7378 22.7243 -3.26367 38.0678 3.79975C38.8507 4.18731 41.0426 5.1707 41.3036 5.82649C38.2245 5.61782 34.6234 5.79651 31.492 5.79651C29.6654 5.79651 28.4651 5.61782 27.6822 6.98877C27.2125 7.79347 26.6383 9.43266 26.2731 10.3863C25.3337 12.711 24.4464 15.0358 23.5069 17.3603C23.0894 18.3737 21.9935 20.3705 23.4548 20.7878C24.9162 21.1752 26.4818 20.3407 27.8387 21.2052ZM42.8694 35.2127C43.8609 34.8849 45.9484 32.6199 46.5748 31.7556C45.3223 30.3547 44.0174 29.58 42.3995 31.0403C40.4165 32.8583 42.1909 34.0206 42.8694 35.2127ZM32.7968 49.4886L32.901 47.8792C31.3355 47.8792 28.152 48.3859 28.0997 46.5678C28.0475 44.7202 31.231 45.1671 32.7968 45.1969L32.901 43.5875C30.5526 43.5875 25.5423 42.9319 25.5947 46.5678C25.5947 47.939 26.6906 49.0117 27.891 49.3397C28.987 49.6377 31.5441 49.4886 32.7968 49.4886ZM16.5136 49.4291C18.8621 49.4291 18.8621 49.7271 19.5406 48.4157L22.6198 48.3859C23.0894 49.7271 23.2462 49.4291 25.4381 49.4291C24.6029 47.4919 23.0373 45.6142 22.2544 43.7068H19.6971C19.2275 44.9884 17.2442 47.7601 16.5136 49.4291ZM43.0259 49.3993L45.4788 49.4291L46.0528 48.4157L49.1321 48.3859C49.6538 49.7569 49.9671 49.4291 51.9502 49.4291C51.2196 47.7005 49.2363 44.8989 48.8188 43.7068H46.2617L43.0259 49.3993ZM47.6607 45.2352L48.1494 46.0222L48.6378 46.8094H47.6607H46.6837L47.1721 46.0222L47.6607 45.2352ZM5.39723 47.909C4.97973 48.5946 3.93607 48.535 3.15318 48.0581C2.47472 47.611 1.63971 47.6708 0.387207 47.8197C0.752399 49.8762 5.18858 50.2338 7.11955 49.0417C8.47648 48.2072 8.21552 46.9554 6.70205 46.3594C5.6582 45.9718 3.51857 46.0314 3.15318 45.0182C4.35357 44.5711 4.35357 44.9584 5.18858 45.2267C5.91916 45.4949 6.9109 45.346 7.7459 45.346C6.80647 42.5743 2.21375 43.5279 1.22221 44.1837C-0.0826052 45.1075 0.752399 46.3594 1.90068 46.8361C2.99664 47.2534 4.66665 47.2832 5.39723 47.909ZM52.4721 49.3397L54.8206 49.4291V46.7169C55.5514 46.9852 56.2298 47.9986 56.9083 48.535C58.2129 49.6377 57.8477 49.4291 60.0396 49.4291V43.7068H57.691L57.7433 46.5678C57.2214 46.2698 57.1169 46.1805 56.6473 45.6738C56.2298 45.2267 55.9689 45.048 55.499 44.6604C54.2988 43.6472 54.8206 43.5577 52.5244 43.7366L52.4721 49.3397ZM8.52859 49.4291H11.1903V47.4621L13.4344 47.4025V49.4291H16.0961V43.7068H13.4344V45.8229H11.2425L11.1903 43.7068H8.52859V49.4291ZM34.0493 49.3993L36.3978 49.4291L36.3457 46.5381C37.0763 46.9256 37.7547 48.0283 38.3288 48.3561C38.5897 48.0283 39.738 46.6872 40.0511 46.4785L40.1032 49.4291H42.5561V43.7068C39.0595 43.7068 40.8861 43.4386 38.3288 46.0016C37.7547 45.644 36.5543 43.8259 35.9803 43.7068H33.997L34.0493 49.3993ZM42.1386 35.928L40.7817 34.0504C39.2161 34.7658 39.0072 35.3022 36.3457 36.1963C32.588 37.4183 28.5695 37.3586 24.9162 35.9876L21.576 34.3484C20.9498 33.9313 20.8975 33.9908 20.5323 33.5437C23.7679 33.6033 27.1081 33.5437 30.3439 33.5437C32.2226 33.5735 33.3185 33.6928 34.0493 32.441C34.5712 31.4874 35.0932 29.9673 35.5107 28.954C36.3978 26.6294 37.3372 24.3046 38.2766 21.9799C38.6941 21.0263 39.7901 19.0593 38.4332 18.6122C36.9197 18.1055 34.6234 19.0891 33.997 18.0459C33.5795 17.3603 36.0847 11.7872 36.4499 10.7738C37.8068 7.34635 38.1722 8.06171 43.913 8.06171C46.0528 10.6545 47.9317 13.4562 48.3492 18.1055C48.7146 22.6357 47.4098 26.5996 45.3223 29.4606C45.7919 29.9375 46.6269 30.5931 47.2009 30.8614C49.9671 26.3909 51.4806 22.0694 50.4367 16.4067C49.6538 12.115 47.8273 8.62796 44.8524 5.79651C44.5394 5.43893 44.1219 4.96203 43.7044 4.63423C35.5628 -2.01185 23.7679 -1.35625 16.9835 5.61782C15.8873 6.7801 15.8873 6.66097 14.8436 8.09149C6.18012 19.8042 12.9648 36.4347 27.3168 39.0575C31.231 39.7727 35.6149 39.2362 39.1638 37.5374C40.2597 37.001 41.2515 36.3454 42.1386 35.928Z" fill="white"/>
</svg>
