<svg width="12" height="19" viewBox="0 0 12 19" fill="none" xmlns="http://www.w3.org/2000/svg">
<path fill-rule="evenodd" clip-rule="evenodd" d="M10.1317 0.575079C10.5434 0.727357 10.802 0.894875 11.0713 1.1838C11.2796 1.40723 11.394 1.59015 11.5186 1.89891L11.6071 2.1183V10.4551C11.6071 18.5426 11.6053 16.7973 11.5452 16.971C11.3027 17.6727 10.8138 18.1456 10.0736 18.3946L9.80377 18.4854H5.80357H1.80337L1.53116 18.3926C1.20104 18.28 1.00572 18.1768 0.779941 17.9956C0.435694 17.7194 0.208732 17.3955 0.0619376 16.971C0.00183617 16.7973 0 18.544 0 10.4551V2.1183L0.0872831 1.90223C0.283818 1.4157 0.618097 1.02631 1.05822 0.771255C1.26157 0.653432 1.58874 0.529748 1.78698 0.495782C1.83206 0.488064 3.67641 0.483635 5.88554 0.48598L9.90214 0.490213L10.1317 0.575079ZM4.85454 1.73588C4.27392 1.74373 4.15864 1.75337 4.1086 1.79838C4.03181 1.86738 4.03279 3.01188 4.11057 3.08176C4.16621 3.13182 4.31868 3.13677 5.80737 3.13706L7.443 3.13735L7.51677 3.05275C7.55736 3.00621 7.59055 2.95512 7.59055 2.93919C7.59055 2.92327 7.55736 1.87426 7.51677 1.83026L7.443 1.75025L6.49213 1.73842C5.96915 1.73194 5.23223 1.73077 4.85454 1.73588ZM1.99267 3.87877C1.94352 3.90525 1.88821 3.95501 1.86972 3.9893C1.84709 4.03131 1.83611 6.1429 1.83611 10.4524V14.8532L1.93178 14.9596L2.02746 15.066H5.79872H9.57001L9.6705 14.9703L9.77103 14.8747V10.4465V4.01838L9.67519 3.92319L9.57935 3.828L5.83069 3.8293C2.70386 3.83044 2.07032 3.83692 1.99267 3.87877ZM5.47018 15.8244C5.27525 15.8936 5.10065 16.0169 5.00133 16.1554C4.62584 16.6792 4.77526 17.3656 5.33135 17.6715C5.49142 17.7595 5.5369 17.7689 5.80357 17.7686C6.0604 17.7684 6.1205 17.7569 6.26714 17.6804C6.60312 17.5049 6.81015 17.1677 6.81254 16.7919C6.81428 16.5202 6.74188 16.3206 6.56554 16.1111C6.31855 15.8176 5.84124 15.6927 5.47018 15.8244Z" fill="#8F909A"/>
</svg>
