<svg width="154" height="154" viewBox="0 0 154 154" fill="none" xmlns="http://www.w3.org/2000/svg">
<rect x="13" y="13" width="128" height="128" rx="64" fill="#E3EDF1"/>
<path fill-rule="evenodd" clip-rule="evenodd" d="M74.7548 20.1226H75.6667V23.1238C75.5163 23.1195 75.3628 23.1172 75.2058 23.1172C70.6858 23.1173 68.4456 26.7278 67.5926 27.3065C66.6895 27.919 64.7917 27.0147 61.5275 28.1114C57.4779 29.4719 56.5443 31.4727 55.779 31.6992C54.9701 31.9386 51.1812 31.7745 49.3111 34.5674H75.6667V37.562H39.2701V46.1936H46.3164C46.4422 44.6811 48.3083 42.8137 49.4835 41.9622C50.8204 40.9937 52.8066 40.3805 55.1241 40.3805H75.6667V43.3751H55.6527C51.5169 43.3751 48.9375 45.2091 48.6064 49.1883H75.6667V52.1829H48.2541C48.2541 53.5253 47.9889 55.292 47.8012 56.6623C47.5146 58.7529 46.6211 68.8111 46.3164 69.4461H63.5796L55.4764 58.8767C55.7399 58.5171 57.3088 57.3573 57.7665 57.1152C58.3948 57.536 66.7709 68.4245 67.455 69.4461H75.6667V72.6168H45.9641C45.9641 73.7885 45.788 74.1418 45.788 75.2592H49.8395C53.4656 75.2592 53.7439 77.1286 53.714 79.3117C53.6831 81.5657 53.2688 81.2485 56.5334 81.2485C56.5334 78.1396 56.0739 75.2592 60.585 75.2592H75.6667V78.4301H59.5281V80.72C59.5281 81.1259 59.6506 81.2485 60.0565 81.2485H75.6667V84.2431H57.0099L56.3451 83.9793L56.0967 83.8807C55.2929 83.5618 54.49 83.2137 53.6905 82.8482C52.913 82.4929 52.1153 82.1087 51.3128 81.7137C50.9908 81.5553 50.679 81.4004 50.3755 81.2485H50.7203V78.4301H45.4356C45.421 78.4929 45.4055 78.5665 45.3894 78.6488C45.2013 78.5433 45.0154 78.4382 44.8291 78.3327L44.4529 78.1198C44.2263 77.9908 43.8419 77.7719 43.5402 77.7006L43.4535 77.6801H43.1261L43.0342 77.7035C42.8794 77.7429 42.6848 77.8332 42.4911 77.937C42.5641 77.1603 42.6171 76.3369 42.6171 75.4354H38.9179C35.951 75.4354 33.3501 72.7292 33.2809 69.6222C31.7716 69.5887 30.4624 68.3635 30.4624 66.8038V54.649C30.4624 53.7838 31.1686 52.9519 31.736 52.5757C33.1685 51.6259 32.967 53.0528 33.4578 50.9505C33.9007 49.0532 34.8737 48.0131 36.2755 47.0744C36.2755 45.0012 35.8988 37.6289 36.4979 36.3751C37.144 35.0226 38.1732 34.5525 40.1467 34.5632C41.9682 34.573 43.7901 34.5674 45.6117 34.5674C47.2171 31.5333 50.2054 29.3656 53.7113 28.9269C55.9536 28.6462 56.2467 25.9841 62.9998 24.6513C65.7295 24.1125 65.6087 25.0911 67.2329 23.4236C69.2062 21.3976 71.9458 20.2964 74.7548 20.1226ZM64.8214 87.0782C64.9313 87.0675 65.0456 87.0616 65.165 87.0616H75.6667V90.0563H68.9625L68.9623 89.7266C68.9623 89.2973 68.9086 88.9677 68.7304 88.6587C68.5401 88.3289 68.261 88.1071 67.826 87.9244C67.432 87.7589 66.9934 87.6501 66.5859 87.549L66.4712 87.5198C66.1617 87.4425 65.8534 87.3651 65.5447 87.2823C65.2863 87.2131 65.0418 87.1448 64.8214 87.0782ZM68.9974 95.6933H75.6667V98.6879H68.994C69.0033 97.6901 69.0025 96.6918 68.9974 95.6933ZM33.4571 55.1776H36.2755V66.6276H33.4571V55.1776ZM42.9694 72.4408C39.0609 72.4408 37.0869 73.1054 36.2755 69.6222C37.9014 69.586 39.2701 68.2756 39.2701 66.6276V55.1776C39.2701 53.0621 37.8488 52.3733 36.2755 52.0067C37.1271 48.3516 40.453 49.1883 45.6117 49.1883L44.9588 54.8769C44.6968 56.94 44.589 58.6997 44.327 60.7628C44.099 62.5578 43.8345 64.7067 43.6691 66.6227L42.9694 72.4408Z" fill="black"/>
<path fill-rule="evenodd" clip-rule="evenodd" d="M73.9731 28.4016C73.9731 29.0323 74.5072 28.9897 75.667 28.9494V25.9355H73.9731V28.4016Z" fill="black"/>
<path fill-rule="evenodd" clip-rule="evenodd" d="M65.3413 31.7485H68.336V28.7539H65.3413V31.7485Z" fill="black"/>
<path fill-rule="evenodd" clip-rule="evenodd" d="M100.396 107.319H94.4071C90.7298 107.319 91.5886 102.438 91.5886 98.6879C95.4747 98.6879 99.259 97.8912 102.184 95.5432C102.703 95.1262 102.578 95.1492 103.215 94.8124C103.215 96.7387 103.516 104.413 102.814 105.862C102.428 106.658 101.523 107.319 100.396 107.319ZM75.667 20.1226V23.1238C78.6852 23.211 80.4133 24.1732 82.2965 26.0676C83.8932 27.6739 83.3286 27.544 85.4219 27.5223C87.2309 27.5037 88.2039 27.646 89.5891 28.1114C93.6197 29.4655 94.5692 31.4718 95.3375 31.6992C95.8145 31.8404 96.8105 31.8736 97.3772 31.9496C97.9397 32.0249 98.5879 32.2676 99.1071 32.5096C100.239 33.0371 101.169 33.6174 101.806 34.5674H75.667V37.562H111.846V46.1936H104.8C104.678 44.7239 102.813 42.8583 101.734 42.0375C100.353 40.9879 98.3551 40.3805 95.9925 40.3805H75.667V43.3751H95.464C97.7768 43.3751 99.086 43.7719 100.403 44.7774C100.944 45.1899 101.49 45.906 101.815 46.5365C102.134 47.1554 102.438 48.3183 102.51 49.1883H75.667V52.1829H102.863C102.863 53.477 103.107 55.1745 103.29 56.5112C103.495 58.0021 103.619 59.3253 103.759 60.7983C103.86 61.8476 104.603 69.0355 104.8 69.4461H96.521C94.2692 66.0833 88.9112 59.9564 87.0086 57.1152C86.0031 57.3837 85.3508 58.4847 84.5424 58.7007C85.5013 60.5128 92.4049 68.5447 92.6456 69.4461H75.667V72.6168H105.152C105.152 73.7885 105.329 74.1418 105.329 75.2592H101.277C95.0443 75.2592 98.6264 81.2485 96.8733 81.2485H94.5832C94.5832 78.1455 95.0476 75.2592 90.5317 75.2592H75.667V78.4301H91.5886C91.5886 80.345 91.8579 81.2485 91.0601 81.2485H75.667V84.2431H105.857C105.778 85.1887 105.353 86.2016 105.152 87.0616C102.863 87.0616 100.571 87.071 98.2819 87.061C96.9012 87.0551 96.3093 86.9592 95.5051 87.6312C94.0784 88.8235 94.4071 90.8293 94.4071 92.8747C94.4071 94.2142 95.1164 94.5589 95.6402 95.3409C94.6299 95.425 94.0596 95.6933 92.8216 95.6933H88.7702C88.7702 92.1427 89.582 87.0616 85.9516 87.0616H75.667V90.0563H85.7755V95.6933H75.667V98.6879H88.5939C88.5939 102.402 88.0163 106.226 90.1306 108.425C90.9207 109.247 92.3667 110.314 93.8786 110.314H100.925C102.118 110.314 103.279 109.567 104.026 109.011C107.05 106.76 106.209 101.797 106.209 97.8071C106.209 96.3392 106.213 94.8708 106.209 93.403C106.203 90.795 106.218 91.5592 107.092 89.8823C110.398 83.5426 108.5 80.7687 108.5 75.4354C111.19 75.4354 114.195 75.8259 116.121 73.7208C116.98 72.7819 117.798 71.3111 117.836 69.6222C119.345 69.5887 120.654 68.3635 120.654 66.8038V54.649C120.654 53.8279 119.895 52.9578 119.376 52.5806C118.027 51.6003 118.16 53.0979 117.659 50.9505C117.201 48.9883 116.289 48.0436 114.841 47.0744C114.841 45.0012 115.218 37.6289 114.619 36.3751C113.973 35.0226 112.943 34.5525 110.97 34.5632C109.148 34.573 107.326 34.5674 105.505 34.5674C104.404 32.4876 102.234 30.3399 99.8048 29.5219C96.615 28.4477 97.3625 29.4225 95.7401 28.1257C94.697 27.2918 93.6833 26.5808 92.412 25.9931C89.2538 24.5332 88.4077 24.8095 85.841 24.4609C84.4719 24.2749 84.7488 24.3267 83.9701 23.5135C81.9708 21.4258 79.1808 20.2969 76.3285 20.1226H75.667ZM100.22 92.8747H97.4017V90.0563H103.391C102.882 90.8163 101.329 92.8747 100.22 92.8747ZM100.396 78.4301H105.681C105.818 79.0198 106.033 80.5646 106.033 81.2485H100.396V78.4301ZM114.841 55.1776H117.66V66.6276H114.841V55.1776ZM105.505 49.1883C107.668 49.1883 112.291 48.8348 113.645 49.8562C114.65 50.6146 114.371 51.0263 114.841 52.0067C113.285 52.3691 111.846 53.0452 111.846 55.1776V66.6276C111.846 68.2756 113.215 69.586 114.841 69.6222C114.03 73.1054 112.056 72.4408 108.147 72.4408C107.964 71.6543 107.868 70.5272 107.79 69.6272L105.505 49.1883Z" fill="#2B2A29"/>
<path fill-rule="evenodd" clip-rule="evenodd" d="M75.667 25.9355V28.9494C75.9464 28.9397 76.262 28.9301 76.6153 28.9301C77.4279 28.9301 77.1439 27.9399 77.1439 25.9355H75.667Z" fill="#2B2A29"/>
<path fill-rule="evenodd" clip-rule="evenodd" d="M82.7808 31.749H85.7754V28.7544H82.7808V31.749Z" fill="#2B2A29"/>
<path fill-rule="evenodd" clip-rule="evenodd" d="M42.0175 77.7758C42.0976 77.7285 42.1822 77.6799 42.2682 77.633C42.5016 77.5055 42.744 77.3908 42.942 77.3403L43.0799 77.3052H43.4951L43.6253 77.336C43.9784 77.4195 44.3928 77.6553 44.6371 77.7944L45.0175 78.0097C45.5793 78.3277 46.1375 78.6436 46.7978 78.987L48.1832 79.7079L49.1335 80.2002C49.4492 80.362 49.8171 80.549 50.267 80.7754C50.6987 80.9927 51.1052 81.1956 51.477 81.3784H51.4784C51.9061 81.5889 52.3096 81.7856 52.6722 81.959C53.0618 82.1454 53.4532 82.3291 53.8459 82.5085C54.2171 82.6782 54.6131 82.8543 55.04 83.0378C55.4609 83.2189 55.8611 83.3856 56.2345 83.5336L56.4855 83.6332C58.6538 84.494 60.8212 85.3544 63.0097 86.0835C63.0941 86.0835 63.5534 86.2927 63.6382 86.2927C64.0444 86.4307 64.4502 86.5686 64.7594 86.6667V86.6681C64.8588 86.6997 65.0002 86.7416 65.1735 86.7912C65.3296 86.8358 65.486 86.879 65.6415 86.9206L66.1 87.0399C66.2729 87.0837 66.5157 87.1285 66.6854 87.1883C67.106 87.2926 67.5584 87.4054 67.9711 87.5788C68.2192 87.683 68.4271 87.8018 68.6045 87.945C68.7883 88.0935 68.9349 88.266 69.0542 88.4728C69.1645 88.664 69.2361 88.8603 69.2795 89.0729C69.3216 89.2789 69.3374 89.4921 69.3374 89.7267C69.3374 91.444 69.3456 92.3992 69.3536 93.3521L69.3538 93.3746L69.3553 93.3775L69.3538 93.3776C69.3787 96.2989 69.4037 99.2203 69.2877 102.13C69.2488 103.106 69.1959 104.094 69.1202 105.072C69.0435 106.061 68.9419 107.064 68.8058 108.07C68.6684 109.085 68.497 110.091 68.2826 111.072C68.067 112.058 67.8054 113.031 67.4879 113.977C67.0039 115.42 66.468 116.801 65.8696 118.127C65.2702 119.455 64.6054 120.734 63.8645 121.971C63.1223 123.21 62.3056 124.403 61.4041 125.557C60.4992 126.715 59.5143 127.828 58.4396 128.903C58.1174 129.225 57.7749 129.557 57.4139 129.895C57.0548 130.232 56.6988 130.556 56.3477 130.866C55.9976 131.174 55.636 131.483 55.2645 131.789C54.9078 132.084 54.5309 132.385 54.1347 132.692C53.7708 132.975 53.393 133.258 53.0012 133.541C52.6694 133.78 52.3282 134.017 51.978 134.25V134.255L51.8081 134.367C51.4092 134.629 50.9966 134.885 50.5704 135.133C50.1501 135.376 49.7216 135.608 49.286 135.823C49.0514 135.939 48.7805 136.091 48.5094 136.244C48.5057 136.244 48.4964 136.25 48.4929 136.253C48.3552 136.33 48.2155 136.409 48.0106 136.519C47.8598 136.601 47.7014 136.673 47.5397 136.74C47.391 136.801 47.2346 136.86 47.0788 136.918C47.0289 136.937 46.9768 136.956 46.8328 137.013C46.747 137.047 46.6636 137.082 46.5853 137.117C46.2823 137.254 45.9912 137.372 45.7095 137.472C45.4298 137.571 45.156 137.653 44.8857 137.719C44.6063 137.786 44.3391 137.834 44.0812 137.864C43.8239 137.894 43.5668 137.906 43.3079 137.902C42.9599 137.897 42.6274 137.863 42.301 137.805C41.9735 137.747 41.6456 137.664 41.309 137.559C40.9968 137.462 40.6774 137.346 40.3426 137.214C40.0155 137.086 39.6685 136.94 39.2962 136.78C38.3529 136.376 37.4214 135.87 36.5146 135.325C35.6072 134.779 34.7366 134.204 33.9031 133.652L33.6254 133.468C33.1916 133.182 32.7625 132.875 32.3404 132.554C31.9108 132.226 31.4966 131.891 31.0991 131.554C30.6967 131.213 30.3028 130.863 29.9198 130.51C29.5407 130.16 29.1657 129.801 28.7989 129.44C28.4236 129.071 28.0494 128.691 27.6812 128.303C27.314 127.916 26.9477 127.516 26.5863 127.104C26.2205 126.687 25.8687 126.267 25.5359 125.848C25.1977 125.422 24.8735 124.991 24.5684 124.556L24.4121 124.332H24.4027L24.2901 124.163C23.8305 123.512 23.3718 122.863 22.9519 122.154C22.2179 120.915 21.5628 119.679 20.9827 118.431C20.404 117.187 19.8998 115.929 19.4661 114.643C19.0322 113.357 18.6714 112.051 18.38 110.713C18.0883 109.373 17.8639 107.992 17.703 106.557C17.629 105.898 17.5687 105.236 17.5199 104.571C17.4722 103.922 17.4346 103.253 17.4053 102.57C17.3774 101.922 17.3579 101.262 17.3447 100.592C17.3317 99.9341 17.3249 99.2693 17.3221 98.6017C17.3186 97.789 17.3207 96.977 17.3254 96.1663C17.3302 95.3524 17.3378 94.5439 17.3452 93.7358C17.3507 93.1428 17.3563 92.5485 17.3603 91.9031C17.3635 91.3946 17.3657 90.7264 17.3657 89.7267V89.7199C17.3657 89.4473 17.3658 89.1283 17.465 88.7964C17.5721 88.4377 17.7857 88.0947 18.212 87.8379L18.302 87.7837H18.3121C18.4355 87.7177 18.5633 87.6636 18.6887 87.6179C18.8029 87.5762 18.9176 87.5409 19.0243 87.5094C19.0536 87.4975 19.086 87.4873 19.1216 87.4784L19.162 87.4683L19.8748 87.2671C19.9854 87.2351 20.0983 87.2012 20.2152 87.1638L20.2746 87.1448H20.2794C20.4376 87.0948 20.569 87.0557 20.6863 87.0223L21.1415 86.8974C21.2418 86.8701 21.3451 86.8418 21.5763 86.7754C21.7269 86.7321 21.8781 86.6866 22.0289 86.6374C23.1658 86.2661 24.3017 85.8808 25.4324 85.4785C26.5627 85.0764 27.6882 84.6571 28.8048 84.2178C29.9097 83.783 31.0121 83.3254 32.109 82.8415C33.1987 82.3608 34.2802 81.8548 35.3497 81.3204L38.4687 79.7619C38.7626 79.6151 39.033 79.4766 39.2809 79.3461C39.553 79.203 39.8056 79.0665 40.0406 78.9361C40.2966 78.7941 40.5574 78.6457 40.8224 78.4919C40.9757 78.403 41.1343 78.3096 41.2978 78.2119L42.0146 77.7709L42.0175 77.7758ZM42.5865 85.755L42.6265 85.7368C42.7302 85.6907 42.8351 85.6519 42.9365 85.626V85.624L43.0959 85.5835H43.5098L43.66 85.6191C43.8282 85.6596 43.9985 85.7296 44.1519 85.8042C44.2906 85.8727 44.4164 85.9443 44.5096 85.9974L44.7798 86.1503C44.9547 86.2494 45.1331 86.3502 45.3799 86.4867C45.5719 86.5929 45.7821 86.7064 46.0287 86.8346L47.6857 87.6963L48.4869 88.103C49.0527 88.3852 49.6169 88.6626 50.1854 88.9398L50.5976 89.1348L51.0113 89.3262L51.4147 89.5066C51.5411 89.5626 51.6844 89.6253 51.8497 89.6962L52.2807 89.8793C52.3957 89.927 52.5283 89.9808 52.6845 90.0426V90.0445C52.7402 90.0666 52.8123 90.0905 52.8645 90.1159C54.3868 90.7202 55.9086 91.3244 57.4344 91.8341C57.5222 91.8543 57.6179 91.8911 57.7137 91.9279C57.7645 91.9474 57.7039 91.9671 57.7595 91.9671H57.8392L57.9312 91.9983C58.1982 92.089 58.4649 92.1796 58.7063 92.2561L58.8504 92.3018L59.1492 92.3874L59.629 92.5143L59.747 92.5418C59.8536 92.5659 59.9685 92.592 60.0678 92.625C60.2068 92.6595 60.3518 92.6959 60.5213 92.745C60.7 92.7967 60.8738 92.8539 61.0305 92.9197C61.1277 92.9605 61.2268 93.0098 61.3289 93.0687C61.4299 93.1268 61.5199 93.1878 61.5995 93.252L61.6015 93.254C61.6906 93.3261 61.7708 93.404 61.8427 93.4884C61.9162 93.5747 61.981 93.6668 62.038 93.7656V93.7676C62.0914 93.8604 62.1355 93.954 62.171 94.0492C62.2069 94.1454 62.2344 94.2427 62.2547 94.3422C62.2751 94.4426 62.2886 94.5362 62.2962 94.6254C62.304 94.7189 62.3075 94.8118 62.3075 94.9062C62.3075 96.2753 62.3118 96.8498 62.3162 97.3786L62.6118 97.9993H62.3214C62.3371 99.9158 62.3461 101.831 62.2702 103.735C62.2558 104.099 62.2393 104.452 62.2205 104.787C62.1998 105.159 62.1767 105.513 62.1513 105.843C62.1249 106.182 62.0927 106.54 62.0535 106.917C62.0164 107.274 61.9734 107.636 61.924 108.002C61.8726 108.382 61.8169 108.747 61.7568 109.094C61.6932 109.462 61.6232 109.822 61.5466 110.173C61.4724 110.512 61.3853 110.868 61.2838 111.24L61.2856 111.241C61.1935 111.579 61.0874 111.929 60.9666 112.289C60.7928 112.807 60.609 113.316 60.4144 113.815C60.2159 114.325 60.011 114.815 59.7995 115.283C59.5801 115.769 59.3516 116.241 59.1134 116.698C58.8786 117.148 58.6237 117.604 58.348 118.064C58.0761 118.518 57.7939 118.958 57.501 119.386C57.2089 119.812 56.8971 120.237 56.5653 120.662C56.238 121.081 55.8957 121.492 55.5381 121.896C55.1675 122.315 54.795 122.711 54.4206 123.086C54.2046 123.302 53.9573 123.54 53.6804 123.8C53.5423 123.93 53.4131 124.049 53.2927 124.159C53.1487 124.29 53.0208 124.405 52.9114 124.501C52.8132 124.588 52.6851 124.698 52.5258 124.834C52.3704 124.967 52.2386 125.078 52.1303 125.167C52.0651 125.221 51.9296 125.33 51.731 125.489C51.5625 125.624 51.4236 125.733 51.3141 125.818C51.1984 125.908 51.0649 126.01 50.9131 126.123C50.7725 126.229 50.6329 126.331 50.4953 126.43C50.3308 126.549 50.2083 126.636 50.131 126.69L49.9776 126.795V126.801L49.6303 127.029V127.031C49.5141 127.107 49.367 127.201 49.1863 127.313C49.0228 127.414 48.8693 127.506 48.7278 127.588C48.5703 127.68 48.4147 127.767 48.262 127.849C48.1086 127.932 47.95 128.014 47.7862 128.095C47.6463 128.164 47.4657 128.265 47.2836 128.367L47.1652 128.446H47.1407L46.8959 128.581C46.8338 128.615 46.7696 128.647 46.7043 128.677C46.6523 128.701 46.5882 128.729 46.5162 128.759C46.5001 128.766 46.4304 128.793 46.341 128.827L46.3391 128.829C46.2273 128.872 46.116 128.914 46.0047 128.957L46.0043 128.956C45.9881 128.963 46.018 128.952 45.9266 128.99L45.8521 129.021C45.7354 129.074 45.6238 129.122 45.518 129.165H45.516C45.4007 129.212 45.2923 129.253 45.1912 129.289C45.0821 129.328 44.9759 129.363 44.8727 129.393C44.7785 129.422 44.6732 129.45 44.5573 129.478C44.4526 129.503 44.3455 129.526 44.2365 129.546C44.118 129.567 44.0144 129.583 43.9253 129.593C43.8313 129.604 43.7284 129.612 43.6179 129.617C43.5219 129.622 43.4201 129.624 43.3135 129.622C43.173 129.62 43.0384 129.612 42.9092 129.6C42.7648 129.586 42.6351 129.568 42.5183 129.548C42.3927 129.525 42.2643 129.497 42.1332 129.465C42.0082 129.433 41.8809 129.397 41.7512 129.357C41.624 129.317 41.5058 129.278 41.3944 129.238V129.236C41.2529 129.185 41.1342 129.141 41.0316 129.1C40.91 129.053 40.7871 129.002 40.6622 128.95L40.2747 128.786C39.9258 128.637 39.5804 128.469 39.24 128.289C38.9063 128.113 38.5713 127.921 38.2384 127.721C37.8998 127.518 37.5818 127.317 37.2777 127.121C36.9683 126.921 36.6627 126.719 36.364 126.521L36.1668 126.391C36.012 126.289 35.8538 126.18 35.6936 126.066C35.5337 125.952 35.378 125.837 35.2268 125.722C35.0746 125.606 34.923 125.487 34.7728 125.366C34.6161 125.239 34.4667 125.116 34.3255 124.996C34.2002 124.89 34.0548 124.763 33.8937 124.621C33.7279 124.474 33.5885 124.348 33.4723 124.241C33.3433 124.122 33.2066 123.993 33.065 123.858C32.9342 123.733 32.8004 123.603 32.6644 123.469C32.5292 123.336 32.394 123.201 32.2597 123.064C32.1218 122.924 31.9877 122.786 31.8588 122.65C31.7184 122.502 31.5853 122.359 31.4607 122.223L31.4617 122.222C31.3172 122.064 31.1852 121.917 31.0675 121.782C30.9183 121.612 30.7866 121.459 30.6743 121.325C30.551 121.177 30.4279 121.026 30.3058 120.873C30.1972 120.736 30.0772 120.58 29.9456 120.405C29.8312 120.252 29.7282 120.112 29.6386 119.985H29.626L29.402 119.649C29.0701 119.181 28.7391 118.712 28.4313 118.193C28.1687 117.749 27.918 117.302 27.6793 116.851C27.4419 116.403 27.2185 115.953 27.0093 115.503C26.8019 115.057 26.6062 114.605 26.4222 114.146C26.2404 113.691 26.0705 113.23 25.9125 112.762C25.7556 112.297 25.6118 111.828 25.481 111.355C25.3467 110.869 25.2282 110.39 25.1254 109.917C25.0225 109.444 24.9294 108.953 24.8462 108.442C24.764 107.936 24.6942 107.428 24.6368 106.915C24.6139 106.711 24.5898 106.472 24.565 106.202C24.5395 105.923 24.5194 105.685 24.5048 105.485C24.4892 105.273 24.4739 105.035 24.4592 104.776C24.4467 104.555 24.4347 104.312 24.4235 104.05C24.4141 103.833 24.4056 103.597 24.398 103.346C24.3911 103.119 24.3851 102.881 24.3804 102.634C24.3759 102.405 24.3722 102.167 24.3696 101.923L24.3643 101.212L24.3633 100.344L24.3667 99.4781C24.3698 98.9452 24.3747 98.423 24.3793 97.9015L24.3915 96.45L24.3942 95.81L24.3933 94.9014C24.3933 94.7979 24.3934 94.6853 24.4041 94.5501C24.4154 94.4092 24.4386 94.2593 24.4853 94.1028C24.5382 93.9254 24.6198 93.7488 24.7437 93.581L24.7447 93.5817C24.8688 93.4137 25.0291 93.2619 25.2366 93.1369L25.4205 93.0261H25.4521L25.4995 93.0048C25.5554 92.9805 25.6101 92.9588 25.6631 92.9396C25.7062 92.9239 25.7536 92.9079 25.8019 92.8925C25.8151 92.8925 25.9307 92.8521 25.9578 92.8429C26.1878 92.7757 26.4196 92.7133 26.6501 92.6474V92.6455C26.8055 92.5991 26.9594 92.5507 27.1151 92.5048H27.1209L27.5602 92.3842L27.5599 92.3832L27.7492 92.3295L27.7496 92.3308L27.9001 92.2859L28.0511 92.2373C28.4497 92.1072 28.8514 91.9734 29.2556 91.8359C29.6559 91.6998 30.0565 91.5605 30.4569 91.4181C30.8943 91.2625 31.2942 91.1172 31.6504 90.9842C32.0142 90.8484 32.4093 90.6966 32.8366 90.5286C33.2237 90.3763 33.6125 90.219 34.0024 90.0568C34.3824 89.8986 34.7694 89.7328 35.1639 89.5588C35.5803 89.3751 35.9636 89.2014 36.3105 89.0387C36.6511 88.879 37.0288 88.6956 37.4442 88.4881L39.953 87.2347L40.2267 87.0917L40.5025 86.9446L40.7565 86.8064L41.0278 86.6537L41.3025 86.4957L41.302 86.4948L41.6303 86.3022L42.5682 85.7245L42.5865 85.755ZM41.301 125.554C41.5436 125.674 41.7821 125.785 42.0104 125.883C42.2192 125.972 42.421 126.051 42.6107 126.115C42.7584 126.166 42.8964 126.207 43.0214 126.236C43.1186 126.259 43.2045 126.274 43.2767 126.281H43.3504C43.3902 126.281 43.4303 126.277 43.4702 126.271C43.521 126.263 43.5901 126.248 43.6733 126.227C43.7716 126.202 43.8679 126.174 43.9614 126.144C44.0665 126.11 44.1827 126.069 44.306 126.022C44.4497 125.968 44.5967 125.908 44.7436 125.846C44.904 125.778 45.068 125.704 45.2294 125.629C45.4337 125.534 45.6041 125.452 45.7445 125.382C45.9196 125.294 46.0846 125.208 46.2275 125.132L50.583 122.104L50.9422 121.771L50.9431 121.772L51.3279 121.411L51.327 121.41L51.5276 121.22L51.5285 121.221L51.7177 121.041L51.7168 121.04C51.844 120.917 51.9725 120.794 52.0976 120.669C52.1237 120.643 52.1655 120.596 52.2141 120.54L52.215 120.541L52.2275 120.527L52.2194 120.52C52.3698 120.35 52.5187 120.181 52.6707 120.012C52.7087 119.972 52.7516 119.928 52.8012 119.879L52.9041 119.774L53.0064 119.664C53.1115 119.542 53.3901 119.242 53.4703 119.126C53.6364 118.94 53.7874 118.758 53.9264 118.58C54.0691 118.397 54.2129 118.202 54.3571 117.998C54.4999 117.797 54.6384 117.594 54.7744 117.39L55.2841 116.614L55.3789 116.464H55.3802L55.5587 116.159C55.6899 115.924 55.8239 115.692 55.9575 115.458H55.9593C56.1244 115.163 56.2844 114.862 56.4393 114.555C56.6383 114.16 56.8193 113.774 56.9828 113.396C57.1459 113.019 57.3006 112.63 57.4468 112.229C57.5875 111.843 57.7191 111.447 57.8414 111.039C57.9666 110.622 58.0759 110.219 58.1697 109.828C58.2664 109.426 58.3533 109.014 58.4308 108.592C58.5074 108.175 58.5741 107.752 58.631 107.323C58.6852 106.915 58.7326 106.475 58.7736 106.005C58.7954 105.753 58.8128 105.535 58.8255 105.354C58.8418 105.121 58.8547 104.913 58.8646 104.728C58.8768 104.496 58.8867 104.284 58.8941 104.092C58.9025 103.873 58.9092 103.666 58.9141 103.471C58.9197 103.247 58.924 103.032 58.9269 102.825C58.9301 102.607 58.9322 102.392 58.9332 102.181L58.9341 101.534L58.9308 100.886C58.928 100.514 58.9234 100.131 58.9182 99.7437C58.9122 99.3387 58.9001 98.93 58.9001 98.5254C58.8856 97.58 58.8709 96.636 58.8655 95.8313L58.6148 95.7603L58.3296 95.6753L58.3291 95.677L58.0195 95.5812L57.7547 95.4966L57.7537 95.5L57.2667 95.3391L56.5831 95.1081L55.8807 94.8615C55.4231 94.696 54.9667 94.5309 54.5101 94.3618L54.5082 94.3598C54.169 94.2334 53.8303 94.1076 53.492 93.9787L53.49 93.9767C53.1365 93.8406 52.7834 93.7042 52.4308 93.5661L52.4288 93.5642C51.9792 93.386 51.5317 93.2064 51.0832 93.0248L51.0849 93.0204C50.8781 92.9345 50.6716 92.8457 50.4649 92.7588L50.2235 92.6534L49.9771 92.5416C49.9534 92.532 49.858 92.4874 49.6996 92.4134C49.045 92.1073 48.3903 91.8026 47.7373 91.4936L46.6224 90.9575C46.4548 90.8757 46.2601 90.7791 46.015 90.6551C45.8038 90.5483 45.5982 90.4418 45.4021 90.3366C45.2025 90.2295 45.0011 90.1176 44.7986 90L44.5625 89.8628C44.1676 89.6379 43.772 89.4029 43.3732 89.186L35.9147 92.9149C35.7946 92.9713 35.6596 93.0328 35.5109 93.0988C35.3856 93.1553 35.2485 93.2146 35.1032 93.2761C34.9125 93.3569 34.7812 93.4117 34.6974 93.4456L34.2956 93.6041L34.2936 93.6061L34.2443 93.6249L34.2439 93.6238L33.8604 93.7712L33.4848 93.9123L32.2529 94.3595C31.8655 94.4964 31.4779 94.6314 31.0897 94.7661L31.0878 94.7681C30.5535 94.95 30.0193 95.1297 29.4843 95.3096L29.2943 95.3718C28.9909 95.466 28.6866 95.5571 28.3824 95.6488L27.8355 95.8205C27.8301 96.6607 27.8146 97.639 27.7992 98.6187L27.7968 98.7693C27.785 99.5161 27.7731 100.263 27.7671 100.983L27.7633 101.619L27.7636 102.257C27.7644 102.465 27.7664 102.677 27.7693 102.892C27.7721 103.097 27.7762 103.308 27.7817 103.528C27.7865 103.727 27.7931 103.935 27.8015 104.154C27.8089 104.348 27.8185 104.557 27.8306 104.786C27.8407 104.979 27.8537 105.188 27.8695 105.414C27.8866 105.66 27.9026 105.867 27.917 106.029C27.9636 106.553 28.0286 107.089 28.112 107.636C28.1925 108.165 28.2894 108.688 28.4025 109.205C28.5177 109.732 28.646 110.239 28.7868 110.725C28.9303 111.221 29.0915 111.715 29.2703 112.205C29.4453 112.686 29.6396 113.167 29.8529 113.649C30.0686 114.137 30.2953 114.607 30.5326 115.059C30.7721 115.515 31.0331 115.975 31.3154 116.437C31.598 116.9 31.8929 117.351 32.1999 117.79L32.3712 118.032L32.5414 118.268V118.27L32.7148 118.503L32.9026 118.748L33.081 118.974C33.1339 119.04 33.1954 119.115 33.2671 119.2L33.4545 119.421C33.5261 119.503 33.5855 119.57 33.6304 119.618L34.2487 120.275L34.5684 120.608L34.895 120.942C35.0001 121.048 35.1065 121.154 35.2139 121.26C35.3164 121.36 35.4234 121.464 35.5354 121.571C35.6343 121.665 35.7408 121.765 35.8548 121.87C35.9696 121.976 36.0681 122.066 36.1457 122.135L37.9325 123.524C38.1284 123.668 38.3715 123.837 38.6477 124.019C38.9239 124.201 39.2141 124.386 39.5024 124.561C39.7794 124.729 40.0891 124.909 40.4256 125.095C40.719 125.257 41.0139 125.413 41.301 125.554ZM40.1555 133.506C40.8387 133.843 41.5011 134.133 42.0845 134.332C42.5344 134.485 42.9299 134.583 43.24 134.603H43.3516C43.5185 134.603 43.7325 134.567 43.9766 134.505C44.2713 134.431 44.602 134.321 44.9445 134.192C45.3911 134.024 45.8544 133.823 46.2913 133.62C46.8684 133.351 47.3986 133.079 47.7848 132.873L53.9703 128.572L54.5185 128.063L55.0658 127.551C55.2572 127.37 55.4431 127.194 55.6201 127.023C55.8043 126.846 55.9846 126.671 56.159 126.498C56.2868 126.372 56.4321 126.198 56.5765 126.025L56.5818 126.019C56.6688 125.916 56.7556 125.812 56.8425 125.713L56.8417 125.712C56.9317 125.61 57.0314 125.503 57.1496 125.387C57.2624 125.276 57.3676 125.164 57.4688 125.051C57.5551 124.954 57.6711 124.819 57.7876 124.684L58.1246 124.294C58.5889 123.773 59.0143 123.218 59.4199 122.645C59.8193 122.082 60.2179 121.473 60.6163 120.865L60.7416 120.674C60.8442 120.518 60.9332 120.372 61.015 120.232L61.014 120.231C61.1127 120.063 61.1954 119.915 61.278 119.768L61.5083 119.366H61.5098C62.147 118.261 62.7041 117.154 63.188 116.036C63.6693 114.925 64.0802 113.796 64.4272 112.641C64.7737 111.488 65.0534 110.318 65.2735 109.122C65.4932 107.927 65.6554 106.694 65.767 105.413C65.8221 104.78 65.8641 104.173 65.8952 103.59C65.9277 102.978 65.9503 102.383 65.9649 101.801C65.9804 101.187 65.9887 100.578 65.9918 99.9722C65.9949 99.3624 65.993 98.7524 65.9884 98.1435C65.9802 97.0764 65.9633 95.9873 65.9465 94.8986L65.9458 94.8565C65.9217 93.2922 65.8973 91.7282 65.8938 90.4894C65.7452 90.4518 65.5887 90.4102 65.4261 90.3655C65.1695 90.295 64.9076 90.2184 64.6436 90.1383C64.332 90.0439 64.0735 89.9628 63.8458 89.8898C63.6467 89.826 63.4095 89.7477 63.1648 89.6666L63.1644 89.668C62.8527 89.5648 62.5342 89.457 62.2101 89.3454C61.9178 89.2448 61.5888 89.1296 61.2267 89.0011C60.965 88.9084 60.6566 88.797 60.3133 88.6719C60.0324 88.5695 59.6918 88.4438 59.3053 88.3002C58.9287 88.1604 58.6047 88.0391 58.332 87.9358C58.0427 87.8263 57.7293 87.7062 57.3924 87.5759C56.9976 87.4232 56.6619 87.2922 56.3916 87.1856C56.0501 87.051 55.7472 86.9301 55.4857 86.8243L55.1405 86.6845L55.1412 86.6827L54.7913 86.5392C54.5679 86.4472 54.3224 86.3448 54.0418 86.226C53.7596 86.1066 53.5117 86.0001 53.3115 85.9116C53.0961 85.8165 52.8562 85.7074 52.5875 85.5818L50.6086 84.6565C50.0667 84.4009 49.5612 84.1612 49.1289 83.9527L49.1091 83.9431C48.5508 83.6739 47.983 83.3999 47.4193 83.1146C46.8519 82.8276 46.2884 82.5287 45.7425 82.2116L45.41 82.0185L44.0587 81.249V81.2445C43.9275 81.1699 43.7822 81.0887 43.6461 81.0173L43.3919 80.8854L32.5859 86.2879C32.216 86.4615 31.8426 86.627 31.468 86.7855C31.0899 86.9455 30.7172 87.0961 30.3503 87.2391L30.2809 87.2655C29.9171 87.4068 29.5644 87.5398 29.2197 87.6674C28.95 87.7671 28.5479 87.9129 28.1157 88.0691C27.6738 88.2294 27.2842 88.3686 26.9368 88.4912C26.5221 88.6375 26.1664 88.7618 25.8615 88.8668L24.8442 89.2131L23.6067 89.6292C23.4305 89.6883 23.2616 89.7419 23.0969 89.7924C22.9142 89.8484 22.7611 89.8939 22.6076 89.9394L22.0772 90.0985L21.7106 90.2136C21.4068 90.3094 21.1007 90.4069 20.8094 90.4863C20.8059 91.7739 20.7805 93.3788 20.7551 94.9841L20.7533 95.0997C20.7364 96.1664 20.7194 97.2334 20.7106 98.2766C20.7055 98.877 20.7032 99.4781 20.7057 100.079C20.7083 100.676 20.7161 101.277 20.7311 101.883C20.7456 102.471 20.768 103.067 20.8 103.672C20.8319 104.274 20.8728 104.867 20.9244 105.447C21.0629 107.004 21.2939 108.522 21.6188 110.006C21.9425 111.486 22.3586 112.923 22.8681 114.322C23.3789 115.724 23.9838 117.09 24.6838 118.424C25.3848 119.76 26.1825 121.066 27.078 122.347C27.2397 122.578 27.4033 122.808 27.5671 123.033C27.727 123.252 27.8995 123.482 28.0866 123.723C28.2559 123.942 28.4324 124.162 28.6163 124.382C28.8035 124.606 28.9833 124.812 29.1525 124.995C29.4111 125.274 29.6975 125.58 30.0285 125.928C30.3291 126.244 30.6358 126.561 30.9495 126.878C31.2503 127.181 31.5554 127.482 31.8648 127.777C32.1711 128.069 32.4756 128.35 32.7768 128.617L35.292 130.573C35.8491 130.982 36.6574 131.523 37.5709 132.077C38.3797 132.568 39.2747 133.072 40.1555 133.506Z" fill="url(#paint0_linear_174_3720)"/>
<defs>
<linearGradient id="paint0_linear_174_3720" x1="43.3475" y1="84.0382" x2="52.0862" y2="174.118" gradientUnits="userSpaceOnUse">
<stop stop-color="#D54C00"/>
<stop offset="1" stop-color="#D30000"/>
</linearGradient>
</defs>
</svg>
