<svg width="154" height="154" viewBox="0 0 154 154" fill="none" xmlns="http://www.w3.org/2000/svg">
<rect x="19.3599" y="12" width="128" height="128" rx="64" fill="#E3EDF1"/>
<path fill-rule="evenodd" clip-rule="evenodd" d="M61.0689 138.447V129.726C70.1814 128.967 76.2981 127.15 83.2335 122.536C84.267 121.848 85.0954 121.266 86.0814 120.491C86.8803 119.863 88.1846 118.828 88.7215 118.026L93.5608 122.759C94.1379 123.333 94.8075 123.627 94.8903 124.621C94.2953 124.779 92.37 126.702 91.6119 127.298C85.4273 132.159 79.3499 135.081 71.5779 137.044C68.744 137.76 63.9712 138.447 61.0689 138.447ZM30.6511 118.026C32.1085 119.002 34.0569 121.461 39.0912 124.263C40.2112 124.887 41.3206 125.408 42.4892 125.971C47.3034 128.289 52.976 129.265 58.5164 129.726V138.447C56.8878 138.447 54.6399 138.179 53.0226 137.985C51.4454 137.795 49.5758 137.439 48.0073 137.044C44.9174 136.266 41.6927 135.309 39.0858 134.054C34.201 131.701 31.193 129.973 27.1818 126.601C26.299 125.858 25.2519 124.769 24.6951 124.621C24.8115 123.222 29.3055 120.036 30.6511 118.026ZM97.0174 122.493C96.0237 122.411 95.7295 121.741 95.156 121.164L90.4232 116.325C93.0405 114.572 97.1551 107.217 98.3674 104.699C100.686 99.8851 101.661 94.2125 102.122 88.6721H110.844C110.844 92.0155 110.152 96.3655 109.441 99.1811C107.395 107.281 103.814 114.672 98.3451 120.843C97.8253 121.43 97.2363 121.673 97.0174 122.493ZM8.74165 88.6721H17.4629C17.9821 94.9115 18.9732 99.8871 21.1487 104.556C23.3697 109.322 24.8374 111.289 27.8539 115.08C28.2527 115.582 28.6507 115.982 29.1621 116.325L24.4293 121.164C23.8558 121.741 23.5616 122.411 22.568 122.493C22.4193 121.937 21.33 120.89 20.5877 120.007L17.377 115.772C13.8373 110.453 11.7544 105.555 10.1446 99.1811C9.43346 96.3655 8.74165 92.0155 8.74165 88.6721ZM19.8027 87.3958C19.8027 65.4477 37.8445 47.4059 59.7926 47.4059C81.7408 47.4059 99.7826 65.4477 99.7826 87.3958C99.7826 109.342 81.7317 127.386 59.7926 127.386C37.8495 127.386 19.8027 109.339 19.8027 87.3958ZM97.0174 52.2983C97.1762 52.8932 99.0992 54.8185 99.695 55.5766C102.684 59.3796 104.294 62.2099 106.45 66.689C107.725 69.3356 108.648 72.4725 109.441 75.6106C110.152 78.4262 110.844 82.7762 110.844 86.1196H102.122C101.603 79.8802 100.612 74.9045 98.4366 70.2358C96.9177 66.9763 95.0722 63.886 92.8882 61.1071C92.2603 60.3082 91.2251 59.0039 90.4232 58.4669C91.0542 57.5248 92.6589 56.1249 93.5608 55.2231C94.6477 54.1362 96.0253 52.3808 97.0174 52.2983ZM17.4629 86.1196H8.74165C8.74165 80.2653 10.74 71.6624 13.1348 66.689C15.3591 62.07 17.8722 57.7488 21.2402 53.9485C21.76 53.362 22.349 53.1184 22.568 52.2983C23.5616 52.381 23.8558 53.0506 24.4293 53.6277L29.1621 58.4669C28.6893 58.7835 28.3422 59.1178 27.948 59.5928C21.0071 67.9586 18.3776 75.1273 17.4629 86.1196ZM61.0689 36.3449C64.4123 36.3449 68.7623 37.0367 71.5779 37.7478C79.6168 39.7782 87.0389 43.3477 93.24 48.8434C93.8265 49.3632 94.0701 49.9522 94.8903 50.1712C94.8077 51.1632 93.0523 52.5408 91.9654 53.6278C91.0636 54.5296 89.6637 56.1343 88.7215 56.7653C88.1445 55.9035 87.0359 55.0759 86.2007 54.3938C79.505 48.9264 69.8003 45.2606 61.0689 45.0661V36.3449ZM30.6511 56.7653C29.3222 54.7808 24.8115 51.5702 24.6951 50.1712C25.5152 49.9522 25.7588 49.3632 26.3453 48.8434C26.738 48.4954 26.7898 48.5206 27.1818 48.1909C27.5325 47.8961 27.5894 47.7953 27.9734 47.4935C36.3276 40.9276 47.687 36.3449 58.5164 36.3449V45.0661L54.0661 45.5082C45.9624 46.4106 38.1094 50.3982 31.9902 55.5519C31.4329 56.0213 31.2442 56.3681 30.6511 56.7653ZM6.40186 86.3323C6.40186 97.6852 8.71793 105.368 13.4869 113.919C14.9109 116.473 17.0137 119.527 18.9044 121.69L23.6828 126.696C27.1655 130.219 32.966 133.686 37.4547 135.897C50.6234 142.384 68.9619 142.384 82.1306 135.897C86.3637 133.812 90.5369 131.387 94.0868 128.284C98.6845 124.265 103.093 119.451 106.024 114.058C110.828 105.221 113.184 98.1157 113.184 86.3323C113.184 78.7218 110.805 70.1543 108.294 65.0579C107.576 63.6008 106.899 62.3085 106.098 60.8723C102.404 54.2468 99.3129 51.4867 94.1988 46.6084L88.5767 42.4456C87.7437 41.954 87.3297 41.6395 86.4549 41.164C84.9604 40.3517 83.6395 39.6375 82.1306 38.8943C68.9619 32.4076 50.6234 32.4076 37.4547 38.8943C28.1898 43.4579 25.5669 46.1109 19.0052 52.9897L14.8424 58.6118C9.9996 66.8162 6.40186 75.1733 6.40186 86.3323Z" fill="black"/>
<path d="M60.6671 138.447V129.356L61.0361 129.325C65.5667 128.949 69.3468 128.31 72.8469 127.195C76.343 126.082 79.5742 124.489 83.0122 122.202C83.528 121.859 83.9906 121.543 84.4429 121.22C84.8904 120.9 85.3387 120.565 85.8334 120.176C86.2347 119.861 86.7618 119.444 87.2345 119.024C87.7051 118.607 88.1418 118.173 88.3888 117.804L88.6572 117.403C90.3833 119.091 92.1377 120.769 93.8437 122.475C93.9738 122.604 94.1009 122.713 94.2247 122.818C94.7408 123.257 95.2137 123.66 95.2908 124.588L95.3186 124.922L94.9941 125.009C94.6844 125.091 93.7207 125.962 92.91 126.694C92.4878 127.076 92.104 127.423 91.8602 127.614C88.7464 130.061 85.6567 132.022 82.3647 133.619C79.0747 135.215 75.5872 136.446 71.6755 137.434C70.2006 137.806 68.1992 138.172 66.2039 138.438C64.3379 138.687 62.4815 138.849 61.0691 138.849H60.6671V138.447ZM61.4711 130.095V138.041C62.8001 138.015 64.4482 137.864 66.1001 137.643C68.0565 137.382 70.0243 137.022 71.4807 136.655C75.3408 135.68 78.7783 134.467 82.0161 132.897C85.2517 131.327 88.2933 129.396 91.3639 126.983C91.6153 126.785 91.9761 126.459 92.3729 126.101C93.0817 125.46 93.8985 124.723 94.4456 124.393C94.3297 123.958 94.0294 123.702 93.7065 123.427C93.563 123.305 93.4159 123.18 93.2814 123.047L88.7644 118.629C88.4873 118.956 88.1343 119.297 87.7653 119.624C87.252 120.08 86.7273 120.495 86.3297 120.807C85.8386 121.193 85.3793 121.537 84.9079 121.873C84.4413 122.207 83.9727 122.526 83.4551 122.871C79.9579 125.197 76.6628 126.82 73.0887 127.958C69.6149 129.065 65.8904 129.71 61.4711 130.095ZM30.8742 117.694C31.3385 118.005 31.8366 118.447 32.4549 118.996C33.8305 120.217 35.8201 121.984 39.2861 123.913C40.2648 124.458 41.2331 124.923 42.2402 125.407L42.6637 125.61C45.0383 126.753 47.6305 127.567 50.3154 128.152C53.0087 128.739 55.795 129.096 58.5495 129.325L58.9186 129.356V138.849H58.5165C57.6989 138.849 56.7145 138.781 55.7278 138.688C54.7175 138.593 53.7685 138.479 52.9756 138.384C52.1956 138.29 51.3376 138.154 50.4746 137.992C49.589 137.826 48.7078 137.634 47.9101 137.434C46.3589 137.043 44.7717 136.607 43.2415 136.11C41.7085 135.612 40.2338 135.052 38.9116 134.415C36.4609 133.235 34.4776 132.209 32.5959 131.051C30.7167 129.894 28.9471 128.608 26.9245 126.907C26.6651 126.689 26.398 126.448 26.1329 126.208C25.5104 125.644 24.8984 125.091 24.5917 125.009L24.2671 124.922L24.2949 124.588C24.3735 123.642 25.8982 122.225 27.4619 120.772C28.6005 119.714 29.7612 118.636 30.3183 117.804L30.5413 117.471L30.8742 117.694ZM31.9241 119.596C31.471 119.193 31.085 118.851 30.7406 118.586C30.0875 119.427 29.0392 120.402 28.0083 121.359C26.7331 122.544 25.4862 123.703 25.1707 124.398C25.6081 124.653 26.1355 125.13 26.6701 125.614C26.9316 125.851 27.1952 126.089 27.4395 126.295C29.428 127.967 31.1683 129.231 33.0168 130.369C34.863 131.506 36.8263 132.521 39.2603 133.693C40.5448 134.311 41.9863 134.858 43.4897 135.347C44.996 135.836 46.5664 136.268 48.1049 136.655C48.8976 136.854 49.7624 137.043 50.6222 137.204C51.456 137.361 52.2952 137.493 53.0699 137.586C53.8944 137.685 54.8782 137.803 55.8032 137.89C56.599 137.965 57.3987 138.023 58.1145 138.04V130.095C55.4491 129.862 52.7568 129.507 50.1458 128.937C47.406 128.34 44.7544 127.507 42.315 126.332L41.8948 126.129C40.871 125.638 39.8867 125.165 38.8967 124.614C35.3552 122.642 33.3265 120.841 31.9241 119.596ZM96.9846 122.894C96.0565 122.817 95.654 122.344 95.2148 121.828C95.1094 121.704 95.0011 121.577 94.8719 121.447C93.166 119.741 91.4877 117.987 89.7995 116.26L90.2005 115.992C91.1907 115.329 92.43 113.789 93.6405 112.018C95.5059 109.288 97.2806 106.032 98.0064 104.525C99.1498 102.151 99.9635 99.5584 100.549 96.8734C101.136 94.1802 101.493 91.3939 101.722 88.6394L101.753 88.2703H111.246V88.6723C111.246 90.2385 111.094 92.0295 110.86 93.7855C110.591 95.8019 110.213 97.7635 109.83 99.2787C108.777 103.449 107.318 107.436 105.405 111.17C103.578 114.736 101.339 118.069 98.6452 121.109C98.4631 121.314 98.2901 121.468 98.1239 121.616H98.1224C97.8107 121.892 97.5261 122.145 97.4054 122.597L97.3187 122.922L96.9846 122.894ZM95.8241 121.31C96.0911 121.623 96.3398 121.915 96.7523 122.038C96.9535 121.583 97.2604 121.31 97.5907 121.016L97.59 121.016C97.7452 120.878 97.9067 120.734 98.0454 120.578C100.694 117.59 102.896 114.312 104.692 110.806C106.574 107.132 108.011 103.202 109.051 99.0839C109.43 97.5864 109.802 95.6565 110.065 93.6818C110.274 92.1161 110.416 90.5163 110.439 89.0744H102.492C102.259 91.7398 101.903 94.4321 101.334 97.0431C100.737 99.7829 99.9034 102.434 98.7287 104.874C97.9922 106.403 96.1926 109.705 94.3032 112.47C93.1882 114.102 92.0343 115.555 91.0302 116.372L95.4435 120.885C95.5768 121.019 95.702 121.166 95.8241 121.31ZM8.74182 88.2703H17.8328L17.8635 88.6394C18.122 91.7458 18.4968 94.5325 19.0758 97.1152C19.6536 99.6919 20.4367 102.076 21.5132 104.387C22.6155 106.752 23.5291 108.42 24.5392 109.964C25.5537 111.515 26.6684 112.946 28.1681 114.831C28.3578 115.069 28.5455 115.282 28.7439 115.473C28.9413 115.664 29.1508 115.835 29.3852 115.992L29.7861 116.26C28.0981 117.987 26.4196 119.741 24.7137 121.447C24.5844 121.577 24.4762 121.704 24.3709 121.828C23.9316 122.344 23.5291 122.817 22.6011 122.894L22.2669 122.922L22.1803 122.597C22.0984 122.291 21.5446 121.679 20.9813 121.056C20.7414 120.791 20.4997 120.524 20.2816 120.264C19.1768 118.883 18.1236 117.402 17.0427 115.994C15.2617 113.318 13.8454 110.743 12.6698 108.031C11.4946 105.32 10.5643 102.482 9.75525 99.2787C9.3726 97.7635 8.99478 95.8019 8.72566 93.7855C8.49128 92.0295 8.3398 90.2385 8.3398 88.6723V88.2703H8.74182ZM17.0941 89.0744H9.14707C9.16982 90.5163 9.31118 92.1161 9.52023 93.6818C9.7838 95.6565 10.156 97.5864 10.5342 99.0839C11.335 102.254 12.2514 105.053 13.4047 107.714C14.5579 110.374 15.953 112.908 17.7117 115.551L20.9007 119.757C21.1046 119.999 21.3406 120.26 21.5748 120.519C22.0687 121.065 22.556 121.603 22.8068 122.046C23.2352 121.928 23.4889 121.63 23.7616 121.31C23.8836 121.166 24.0088 121.019 24.1421 120.885L28.5533 116.374C28.4259 116.271 28.3049 116.164 28.188 116.051C27.96 115.832 27.7492 115.593 27.54 115.33C26.0233 113.424 24.8957 111.976 23.867 110.404C22.8342 108.825 21.9033 107.127 20.7845 104.726C19.6857 102.367 18.8853 99.9293 18.2938 97.2912C17.727 94.763 17.3536 92.0602 17.0941 89.0744ZM19.4008 87.3961C19.4008 76.3111 23.9566 66.2128 31.2831 58.8863C38.6097 51.5597 48.7078 47.0041 59.7928 47.0041C70.8778 47.0041 80.976 51.5597 88.3026 58.8863C95.6292 66.2129 100.185 76.3111 100.185 87.3961C100.185 98.4791 95.6275 108.577 88.3008 115.903C80.973 123.231 70.8741 127.788 59.7928 127.788C48.7103 127.788 38.6121 123.231 31.2849 115.904C23.9577 108.577 19.4008 98.4785 19.4008 87.3961ZM31.8515 59.4548C24.6703 66.636 20.2049 76.533 20.2049 87.3961C20.2049 98.2566 24.6715 108.154 31.8534 115.335C39.0354 122.517 48.9323 126.984 59.7928 126.984C70.6521 126.984 80.5498 122.517 87.7323 115.335C94.9138 108.153 99.3807 98.2571 99.3807 87.3961C99.3807 76.533 94.9154 66.636 87.7341 59.4548C80.5528 52.2735 70.6559 47.8081 59.7928 47.8081C48.9297 47.8081 39.0329 52.2735 31.8515 59.4548ZM97.4054 52.1949C97.4881 52.5045 98.3586 53.4681 99.091 54.2788C99.4725 54.7011 99.8192 55.0849 100.011 55.3287C101.513 57.2406 102.672 58.9124 103.729 60.6737C104.783 62.4304 105.729 64.267 106.812 66.5149C107.458 67.857 108.014 69.3195 108.508 70.8416C109.001 72.361 109.433 73.9381 109.83 75.5134C110.213 77.0286 110.591 78.9902 110.86 81.0066C111.094 82.7626 111.246 84.5536 111.246 86.1198V86.5218H101.753L101.722 86.1528C101.464 83.0463 101.089 80.2595 100.51 77.6769C99.9321 75.1002 99.149 72.7158 98.0725 70.4056C97.3023 68.7526 96.4523 67.1509 95.5222 65.6205C94.6231 64.1412 93.6404 62.714 92.5727 61.3555C92.2574 60.9542 91.8406 60.4271 91.4212 59.9544C91.0036 59.4838 90.5694 59.0471 90.2005 58.8001L89.8674 58.5772L90.0905 58.2442C90.5788 57.5149 91.5827 56.5613 92.446 55.7413C92.7385 55.4635 93.0139 55.2018 93.2767 54.9391C93.5293 54.6864 93.7727 54.4255 94.0224 54.1578C94.9945 53.1151 96.0577 51.9752 96.9846 51.8981L97.3187 51.8704L97.4054 52.1949ZM98.4974 54.8159C97.8647 54.1155 97.1366 53.3096 96.8012 52.7626C96.1927 53.0065 95.3701 53.8886 94.6096 54.7042C94.3374 54.9961 94.0722 55.2805 93.8452 55.5075C93.6278 55.7249 93.3227 56.0147 92.9989 56.3223C92.2866 56.9989 91.4754 57.7695 90.981 58.3868C91.3209 58.6692 91.6786 59.0377 92.0211 59.4236C92.4765 59.9369 92.8916 60.4615 93.204 60.8592C94.2829 62.232 95.2836 63.6868 96.2069 65.2059C97.1624 66.7781 98.0267 68.4045 98.8011 70.0664C99.9 72.4247 100.7 74.8628 101.292 77.501C101.859 80.0291 102.232 82.7319 102.492 85.7178H110.439C110.416 84.2758 110.274 82.676 110.065 81.1104C109.802 79.1356 109.43 77.2057 109.051 75.7082C108.657 74.1456 108.23 72.5847 107.745 71.0898C107.261 69.5974 106.717 68.1678 106.089 66.8635C105.015 64.6325 104.078 62.814 103.041 61.0852C102.007 59.3609 100.866 57.7159 99.3795 55.825C99.1819 55.5736 98.8559 55.2128 98.4974 54.8159ZM17.4631 86.5218H8.3398V86.1198C8.3398 83.1963 8.83349 79.5945 9.62484 76.0942C10.4322 72.5232 11.5514 69.0537 12.7738 66.5149C13.8923 64.1923 15.0834 61.9444 16.418 59.8C17.7549 57.6518 19.2384 55.6038 20.9404 53.6833C21.1169 53.4841 21.2936 53.3272 21.4633 53.1765C21.7751 52.8996 22.0596 52.6469 22.1803 52.1949L22.267 51.8704L22.6011 51.8981C23.5292 51.9753 23.9316 52.4481 24.3709 52.9641C24.4762 53.088 24.5845 53.2151 24.7137 53.3452C26.4196 55.0511 28.0981 56.8055 29.7861 58.5317L29.3852 58.8001C29.1648 58.9477 28.9758 59.0973 28.799 59.2628C28.6237 59.4266 28.4492 59.6181 28.2576 59.849C24.8139 63.9996 22.4415 67.8483 20.8195 72.0159C19.1961 76.187 18.3178 80.6925 17.8635 86.1528L17.8328 86.5218H17.4631ZM9.14699 85.7178H17.0943C17.5633 80.3509 18.4539 75.8847 20.0721 71.727C21.7285 67.4709 24.1417 63.5519 27.6388 59.337C27.8412 59.093 28.0376 58.8796 28.2525 58.6785C28.3502 58.5872 28.4497 58.5007 28.5529 58.4176L24.1421 53.9075C24.0089 53.7729 23.8836 53.6259 23.7616 53.4824C23.4945 53.1688 23.2458 52.8767 22.8334 52.7539C22.6319 53.2099 22.3248 53.4827 21.9942 53.7763C21.8424 53.911 21.6846 54.0513 21.5403 54.2141C19.8744 56.0938 18.4172 58.1068 17.0996 60.224C15.7796 62.3448 14.6019 64.5673 13.4962 66.8635C12.2994 69.349 11.2013 72.7565 10.4069 76.2701C9.66504 79.5515 9.18928 82.9224 9.14699 85.7178ZM61.0691 35.943C62.6352 35.943 64.4263 36.0945 66.1822 36.3289C68.1986 36.598 70.1603 36.9758 71.6755 37.3585C75.8267 38.407 79.8178 39.865 83.5668 41.7852C87.1245 43.6076 90.461 45.8454 93.5056 48.5437C93.7044 48.7198 93.8611 48.8962 94.0116 49.0657L94.0123 49.065C94.2902 49.3779 94.5437 49.6633 94.9941 49.7835L95.3186 49.8703L95.2908 50.2044C95.2137 51.1312 94.0738 52.1943 93.0312 53.1664C92.752 53.4269 92.4799 53.6805 92.2498 53.9107V53.9122C91.9871 54.175 91.7254 54.4504 91.4476 54.7429C90.6276 55.6062 89.674 56.6101 88.9447 57.0984L88.6116 57.3215L88.3888 56.9884C87.9263 56.2978 87.0601 55.601 86.3105 54.9982C86.1984 54.9081 86.0902 54.8211 85.948 54.7049C82.6182 51.986 78.5315 49.7155 74.1894 48.104C69.8929 46.5094 65.3547 45.5623 61.0612 45.4667L60.6671 45.458V35.943H61.0691ZM66.0785 37.1235C64.5129 36.9144 62.913 36.7731 61.4711 36.7503V44.677C65.7447 44.8219 70.2278 45.7761 74.4689 47.3502C78.8873 48.99 83.0524 51.3057 86.4537 54.0831L86.8131 54.3732C87.4929 54.9199 88.2636 55.5398 88.8047 56.2058C89.4216 55.7112 90.191 54.9013 90.8666 54.19C91.1742 53.8662 91.464 53.5611 91.6814 53.3437L91.6822 53.3445C91.9317 53.0949 92.2046 52.8405 92.4848 52.5792C93.2835 51.8344 94.1459 51.0301 94.4103 50.4258C93.9679 50.2243 93.7003 49.923 93.4125 49.5989V49.5974C93.2778 49.4457 93.1376 49.2878 92.9748 49.1435C89.9813 46.4905 86.7007 44.2902 83.2024 42.4982C79.5142 40.6091 75.5796 39.1727 71.4807 38.1375C69.9832 37.7592 68.0533 37.387 66.0785 37.1235ZM30.3183 56.9884C29.7706 56.1705 28.6177 55.0986 27.4823 54.0429C25.9123 52.5834 24.3737 51.1528 24.2949 50.2044L24.2671 49.8703L24.5917 49.7835C25.0436 49.6629 25.2963 49.3784 25.5732 49.0666C25.724 48.8968 25.8809 48.7202 26.08 48.5437C26.3122 48.338 26.4311 48.2541 26.5572 48.1653C26.6588 48.0937 26.7657 48.0183 26.9245 47.8848C27.0559 47.7743 27.1551 47.6806 27.2495 47.5915C27.3778 47.4704 27.4984 47.3565 27.7255 47.1781C32.0557 43.7748 37.1887 40.8998 42.6388 38.9105C47.7846 37.0322 53.2132 35.943 58.5165 35.943H58.9186V45.4292L54.1102 45.9068C50.2664 46.3353 46.4756 47.4675 42.9013 49.0937C39.02 50.8596 35.4 53.2037 32.2479 55.8583C32.0403 56.0333 31.8775 56.2013 31.7233 56.3608C31.482 56.6102 31.2588 56.8409 30.8742 57.0984L30.5413 57.3215L30.3183 56.9884ZM28.0287 53.4557C29.0524 54.4074 30.0899 55.3721 30.7355 56.2005C30.8877 56.0712 31.0135 55.9412 31.1453 55.8049L31.1469 55.8033C31.3097 55.6351 31.4812 55.4577 31.7329 55.2458C34.9448 52.5406 38.6271 50.155 42.5684 48.3619C46.214 46.7033 50.087 45.5477 54.0223 45.1095L58.1145 44.7034V36.7494C53.0321 36.8028 47.8408 37.8653 42.912 39.6644C37.5451 41.6234 32.4889 44.4556 28.2217 47.8094C28.0155 47.9715 27.9107 48.0704 27.7992 48.1758C27.7085 48.2614 27.6134 48.3512 27.4395 48.4974C27.2347 48.6696 27.124 48.7476 27.0189 48.8217C26.906 48.9013 26.7996 48.9763 26.6109 49.1435C26.448 49.2879 26.3078 49.4457 26.1731 49.5974C25.8866 49.9201 25.6198 50.2203 25.1834 50.4217C25.5207 51.1237 26.7636 52.2795 28.0287 53.4557ZM6.80405 86.3325C6.80405 91.9752 7.37847 96.7014 8.54403 101.074C9.70991 105.448 11.4689 109.478 13.8372 113.725C14.5521 115.007 15.4456 116.424 16.401 117.795L16.4 117.795C17.3127 119.105 18.279 120.365 19.1952 121.414L23.9735 126.42C25.5199 127.983 27.534 129.539 29.6869 130.977C32.3273 132.742 35.1765 134.328 37.6323 135.538C44.1593 138.753 51.9738 140.361 59.7928 140.361C67.6118 140.361 75.4264 138.753 81.9534 135.538C84.0576 134.502 86.1476 133.38 88.1531 132.132C90.1543 130.886 92.0682 129.517 93.8232 127.983C96.2542 125.858 98.6329 123.508 100.766 120.966C102.637 118.736 104.317 116.362 105.673 113.867C108.061 109.474 109.839 105.514 111.019 101.195C112.198 96.8796 112.782 92.1909 112.782 86.3325C112.782 82.8059 112.267 79.072 111.464 75.5791C110.548 71.5937 109.259 67.9247 107.935 65.2355C107.57 64.4943 107.222 63.809 106.873 63.1427C106.519 62.4682 106.151 61.7891 105.748 61.0672C102.288 54.8624 99.3535 52.069 94.7521 47.6893L93.939 46.9148L88.3591 42.7833C88.0373 42.593 87.765 42.4207 87.5034 42.2553C87.1258 42.0164 86.7708 41.7919 86.2635 41.516C85.539 41.1222 84.8508 40.7491 84.1115 40.3583C83.4078 39.9864 82.703 39.6234 81.9534 39.2541C75.4264 36.0391 67.6118 34.4315 59.7928 34.4315C51.9738 34.4315 44.1593 36.0391 37.6323 39.2541C33.0279 41.5221 30.0768 43.3131 27.4661 45.3881C24.856 47.4625 22.5717 49.8323 19.3115 53.2499L15.1801 58.8296C12.7742 62.9068 10.6785 67.0195 9.18631 71.4915C7.69527 75.9599 6.80405 80.7973 6.80405 86.3325ZM7.76828 101.279C6.58374 96.8344 6 92.0426 6 86.3325C6 80.7089 6.9077 75.7879 8.42615 71.2371C9.94187 66.6946 12.0637 62.5305 14.4971 58.4078L14.505 58.3942C15.9063 56.509 17.3035 54.6194 18.6991 52.73L18.7148 52.7135C22.0078 49.2614 24.3129 46.8692 26.9668 44.76C29.624 42.648 32.6172 40.8303 37.2774 38.5348C43.919 35.2633 51.8582 33.6274 59.7928 33.6274C67.7274 33.6274 75.6667 35.2633 82.3083 38.5348C83.0674 38.9087 83.7778 39.2746 84.4852 39.6485C85.157 40.0036 85.877 40.394 86.6467 40.8125C87.1842 41.1047 87.5459 41.3334 87.9305 41.5768C88.1791 41.7341 88.4382 41.898 88.7811 42.1003L88.7946 42.1084C90.6857 43.5014 92.573 44.9022 94.4589 46.3024L95.305 47.1083C99.9593 51.5383 102.928 54.3639 106.449 60.6777C106.847 61.3919 107.218 62.0772 107.583 62.7721C107.951 63.4751 108.301 64.1648 108.654 64.8806C110.004 67.6217 111.316 71.3537 112.246 75.4001C113.062 78.9514 113.586 82.7474 113.586 86.3325C113.586 92.2575 112.992 97.0133 111.792 101.405C110.593 105.794 108.792 109.806 106.376 114.25C104.991 116.799 103.282 119.216 101.382 121.481C99.2235 124.053 96.8144 126.432 94.3508 128.586C92.5562 130.155 90.6083 131.549 88.5772 132.813C86.5505 134.075 84.4369 135.209 82.3083 136.257C75.6667 139.529 67.7274 141.165 59.7928 141.165C51.8582 141.165 43.919 139.529 37.2774 136.257C34.7972 135.036 31.9163 133.431 29.241 131.643C27.0444 130.176 24.9853 128.584 23.3972 126.978C21.8663 125.447 20.0143 123.571 18.6031 121.954C17.6658 120.882 16.6769 119.593 15.743 118.253H15.7414C14.7791 116.873 13.8714 115.432 13.1369 114.114C10.7364 109.81 8.95265 105.722 7.76828 101.279Z" fill="black"/>
<path fill-rule="evenodd" clip-rule="evenodd" d="M59.7929 112.26C60.9183 112.26 62.2135 112.783 63.1999 113.612C63.9526 114.244 64.5172 115.049 64.6698 115.923H54.8852L54.8909 115.91C55.4 114.753 56.0202 113.344 57.823 112.679C57.9944 112.616 58.4735 112.495 58.9344 112.398C59.3007 112.321 59.6463 112.26 59.7929 112.26ZM35.6583 96.7318H51.6781C51.5663 97.3681 51.3297 98.035 51.0173 98.6691C50.595 99.5262 50.0378 100.318 49.4637 100.892C48.5678 101.789 47.5205 102.411 46.4099 102.781C44.9188 103.277 43.3096 103.32 41.7945 102.962C40.2818 102.604 38.8663 101.846 37.7599 100.741C36.9383 99.9198 36.287 98.9067 35.8932 97.7237C35.8524 97.601 35.7996 97.362 35.745 97.1142L35.7447 97.1124C35.7166 96.9853 35.6881 96.856 35.6583 96.7318ZM76.5973 103.16C75.2609 103.16 74.1907 103.071 73.2112 102.766C72.2377 102.463 71.3345 101.941 70.3213 101.073C69.751 100.584 69.1535 99.7589 68.6849 98.8525C68.3199 98.1467 68.0372 97.3991 67.9112 96.7318H83.9022C83.8834 96.8149 83.8688 96.896 83.8535 96.9811L83.8533 96.9825C83.8253 97.1378 83.7942 97.3103 83.7195 97.5441C83.2381 99.0512 82.2037 100.517 80.8555 101.577C79.6306 102.539 78.1497 103.16 76.5973 103.16ZM75.4006 81.4165H76.3574C76.6486 81.9554 76.9558 82.4852 77.2678 83.0231L77.2812 83.0462C77.53 83.4753 77.7817 83.9094 78.0149 84.3306L81.4932 90.6373L82.3877 92.3156L82.9501 93.3752H68.9696L72.0602 87.5784C72.2286 87.2523 72.5788 86.6462 72.9917 85.9316L72.9928 85.9298C73.8711 84.4095 75.0277 82.4077 75.4006 81.4165ZM43.2033 81.4165H44.1679C44.3036 81.8758 44.4556 82.1117 44.6778 82.4568L44.6779 82.457L44.6856 82.469C44.7536 82.5746 44.8278 82.6899 44.8847 82.7838L50.611 93.3752H36.647L42.4283 82.8245C42.6086 82.4598 42.7371 82.2038 42.8642 81.9754C42.965 81.7945 43.0694 81.6221 43.2033 81.4165ZM42.9986 77.7496C43.1053 77.4017 43.2556 77.2245 43.4156 77.1563C43.5039 77.1187 43.6021 77.1118 43.6996 77.1251C43.8123 77.1404 43.9243 77.1821 44.0236 77.2363C44.1782 77.3207 44.2884 77.3887 44.2884 77.3984C44.2884 77.718 44.2526 77.8243 44.2028 77.9725L44.2027 77.9728L44.2002 77.9803C44.1843 78.0277 44.1673 78.0783 44.1499 78.1354C44.0763 78.157 44.0084 78.1786 43.9445 78.1989L43.9287 78.2039C43.59 78.3121 43.4332 78.362 42.9986 77.7496ZM75.9591 77.1623C76.1772 77.1623 76.3179 77.2948 76.3799 77.4642C76.4083 77.542 76.4226 77.6288 76.4226 77.7175C76.4226 77.8067 76.4085 77.8936 76.3799 77.9708C76.3179 78.1403 76.1773 78.2727 75.9591 78.2727L75.8469 78.2735C75.7954 78.2112 75.7274 78.1453 75.6393 78.0761H75.6377L75.5908 78.0312C75.5434 77.9852 75.489 77.9296 75.4644 77.9041L75.3981 77.8238L75.3632 77.7775L75.3823 77.7358C75.5126 77.4518 75.6456 77.1623 75.9591 77.1623ZM58.2806 72.7188C58.2806 71.8309 58.6575 71.2884 59.1446 71.0613C59.3366 70.9718 59.5451 70.9285 59.7534 70.9302C59.9627 70.9318 60.1749 70.9791 60.3728 71.0705C60.8939 71.3109 61.3054 71.8676 61.3054 72.7188C61.3054 73.3821 60.9074 73.8194 60.4027 74.0125C60.1968 74.0913 59.9762 74.1319 59.7584 74.1331C59.5397 74.1343 59.3222 74.0971 59.1242 74.0207C58.6489 73.8372 58.2806 73.4091 58.2806 72.7188ZM59.7658 58.9553C59.9357 59.2568 60.1266 59.6441 60.319 60.064C60.746 60.9957 61.1604 62.0624 61.3844 62.7446H58.1567C58.3154 62.2063 58.6517 61.4839 58.988 60.7617L58.9896 60.7583C59.2819 60.1303 59.5741 59.5026 59.7658 58.9553ZM53.6131 66.1012H58.1146V68.1573C57.2016 68.4378 56.4933 68.9731 55.9737 69.7008C55.4218 70.4733 55.0905 71.4578 54.9579 72.5773C54.0776 72.7372 52.7186 73.2252 51.6431 73.6114L51.6412 73.612C51.2603 73.7488 50.9154 73.8726 50.6531 73.9601C50.3378 74.0652 50.0183 74.1831 49.6699 74.3117L49.6516 74.3184L49.6493 74.3193C48.6055 74.7046 47.305 75.1846 46.4514 75.2783C46.4116 75.1945 46.3659 75.114 46.3144 75.0372C45.9982 74.565 45.4726 74.2383 44.8295 74.0882C44.2226 73.9466 43.5041 73.9609 42.7605 74.1594C42.2693 74.2905 41.7639 74.5034 41.2703 74.8061C40.9281 74.6165 40.6001 74.4148 40.2667 74.2096L40.2601 74.2055C39.8963 73.9817 39.5251 73.7534 39.0658 73.5034C38.8684 73.396 38.6354 73.2488 38.3909 73.0943L38.3875 73.0922L38.3868 73.0918C37.6964 72.6554 36.919 72.1641 36.2149 72.1056L35.8696 72.0769L35.7909 72.4149C35.6823 72.8809 35.5419 73.0673 35.4127 73.2386C35.1943 73.5282 34.9981 73.7884 34.9306 74.6002L34.9091 74.859L39.2532 77.2349L39.4153 77.3322C39.6372 77.464 39.734 77.5215 39.7477 77.5429C39.7537 77.5523 39.7657 77.62 39.7868 77.7392C39.808 77.8596 39.8362 78.0185 39.8986 78.2778C39.9981 78.6914 40.0868 78.9981 40.1583 79.2454L40.1585 79.2461C40.292 79.7075 40.3559 79.9287 40.2863 80.1752C40.2076 80.4538 39.9777 80.8463 39.5372 81.5985L39.5356 81.6012L39.5325 81.6064C39.228 82.1262 38.8278 82.8094 38.3165 83.73L37.9069 84.4638C36.427 87.1113 32.3765 94.3577 32.3765 95.0535C32.3765 98.0837 33.5949 100.795 35.3981 102.794C37.3581 104.967 40.0165 106.304 42.5633 106.304V106.302L42.8012 106.302C45.9929 106.304 47.2012 106.304 50.1951 104.283C51.6492 103.301 52.7328 102.078 53.5049 100.674C54.3337 99.1657 54.8001 97.4508 54.9787 95.6017C55.0824 94.5278 54.2011 93.0393 53.2541 91.4399C52.8162 90.7004 52.3635 89.9359 52.0004 89.202C51.7397 88.6753 51.5053 88.2627 51.2577 87.8269L51.2553 87.8227L51.2525 87.8176C51.0809 87.5157 50.9025 87.2019 50.7163 86.8527C50.5528 86.5462 50.4604 86.4035 50.364 86.2545C50.2869 86.1353 50.2066 86.0111 50.0811 85.7846L46.8675 79.8051C46.8712 79.6237 46.9389 79.1922 47.1992 78.7864C47.3647 78.5284 47.6117 78.2903 47.9755 78.1586C48.4838 77.9746 49.0484 77.7969 49.634 77.6127C50.0033 77.4965 50.3821 77.3773 50.8523 77.2206C51.1793 77.1116 51.6077 76.9579 52.0906 76.7847L52.0993 76.7816L52.1019 76.7807C53.4311 76.304 55.1766 75.678 56.1224 75.5017C56.4248 76.1646 56.9911 76.4295 57.4946 76.6649C57.8262 76.8199 58.1146 76.9549 58.1146 77.1857V109.357C56.6428 109.518 55.1292 110.379 53.9266 111.582C52.7125 112.796 51.8036 114.368 51.5659 115.923H48.1172V119.067H71.4687L71.4688 115.923H71.0667C67.7444 115.923 67.7427 115.89 67.7218 115.465C67.6895 114.808 67.6342 113.688 65.7682 111.837C65.207 111.28 64.5337 110.673 63.7308 110.195C63.01 109.765 62.1892 109.442 61.2586 109.353V77.1857C61.2586 76.9737 61.3977 76.9279 61.5971 76.8622C61.8284 76.786 62.0999 76.6964 62.3986 76.4885C62.6633 76.3042 62.8422 76.1179 63.0248 75.9275C63.1627 75.7837 63.3036 75.6369 63.4889 75.4943C64.327 75.7257 67.3305 76.6578 69.6535 77.4854C71.0766 77.9923 72.2162 78.4387 72.3483 78.6049C73.1037 79.5553 72.5439 80.4597 71.7808 81.6923L71.7795 81.6944C71.5033 82.1405 71.2037 82.6245 70.9264 83.1601L65.0331 93.8639L65.0237 93.8827C64.5325 94.8945 64.54 94.9573 64.6382 95.7852L64.6382 95.7853L64.6409 95.8076C64.6561 95.9361 64.6727 96.0762 64.6823 96.1676C64.7399 96.7156 64.7913 97.088 64.8645 97.4377C64.938 97.7885 65.0325 98.1104 65.1763 98.5577C65.3894 99.2206 65.6838 99.8979 66.0317 100.536C66.3784 101.171 66.7782 101.768 67.2039 102.273C67.424 102.534 67.6486 102.778 67.8769 103.007C69.9844 105.114 72.7179 106.225 75.4802 106.341C78.2409 106.457 81.0307 105.577 83.2529 103.704C83.5001 103.495 83.7363 103.279 83.9604 103.055C84.9827 102.032 85.8158 100.813 86.3829 99.4155C86.9129 98.109 87.2095 96.6495 87.2095 95.0535C87.2095 94.3483 86.1701 92.6045 85.7989 91.9815L85.7952 91.9755L85.7852 91.9596C85.4966 91.4762 85.2651 91.0434 85.0337 90.6108C84.7972 90.1687 84.5605 89.7263 84.2711 89.2401L82.7636 86.4932C82.5718 86.1158 82.4447 85.9098 82.3053 85.6841L82.3035 85.6811L82.3012 85.6774C82.2112 85.5316 82.115 85.3758 81.986 85.1437C81.7285 84.6758 81.4724 84.2058 81.2161 83.7354C80.6678 82.7292 80.1187 81.7215 79.5537 80.7293L79.5537 80.7293C79.1884 80.0885 79.0484 79.8428 79.041 79.7264C79.0388 79.6918 79.0701 79.6184 79.1208 79.4998L79.1209 79.4995C79.2194 79.269 79.3651 78.928 79.5034 78.2981C79.5194 78.2249 79.538 78.124 79.5545 78.0336V78.0321C79.6068 77.7452 79.6247 77.6488 80.1913 77.3219L80.1918 77.3228L84.6769 74.8592L84.6553 74.6002C84.5878 73.7885 84.3917 73.5282 84.1733 73.2387C84.0441 73.0674 83.9035 72.8809 83.7951 72.4149L83.7163 72.0769L83.3711 72.1056C82.6751 72.1635 81.4866 72.9061 80.3631 73.6081L80.363 73.6081C79.3808 74.2217 78.4529 74.8014 78.2139 74.769C78.2042 74.7677 78.1919 74.76 78.1707 74.7465C78.1468 74.7313 78.1116 74.709 78.0559 74.6805V74.679C77.1837 74.2338 74.8458 73.0408 73.0411 75.433L64.7816 72.608C64.4224 72.4264 64.3793 72.065 64.3268 71.6228C64.2253 70.7673 64.0978 69.696 62.4763 68.6413C62.0606 68.3708 61.7612 68.251 61.5432 68.1638L61.5422 68.1634H61.5406C61.4061 68.1097 61.3292 68.0788 61.319 68.0548C61.2502 67.8941 61.2517 67.4664 61.2553 66.4716V66.4713L61.2569 66.1012H65.9728L65.9366 65.6663C65.8627 64.7778 62.4263 57.0524 61.7393 55.5081L61.7205 55.4658C61.6081 55.2132 61.5729 55.1358 61.5375 55.0579L61.5315 55.0446H61.5299C61.1169 54.1378 60.4594 52.6936 60.4061 52.0527L60.3754 51.6836H59.2106L59.1798 52.0527C59.1305 52.6452 57.3812 56.5999 56.6626 58.2243L56.6605 58.2291L56.1711 59.3368L56.1688 59.342C55.4015 61.0666 53.717 64.8531 53.6493 65.6663L53.6131 66.1012Z" fill="url(#paint0_linear_174_3738)"/>
<path fill-rule="evenodd" clip-rule="evenodd" d="M8.95459 37.1962H20.2283C20.9508 37.1962 23.3747 40.749 23.8445 41.4505C24.457 41.0403 25.14 40.568 25.5462 39.9615C25.2279 39.3601 22.2964 34.8564 21.5046 34.8564H8.95459V37.1962Z" fill="black"/>
<path d="M9.35679 36.7939H20.2285C20.6295 36.7939 21.2156 37.3247 21.8221 38.0383C22.6066 38.9612 23.4953 40.2261 23.9514 40.8933C24.1451 40.7589 24.3384 40.618 24.5184 40.4699C24.7215 40.3029 24.9104 40.1249 25.0675 39.9337C24.6832 39.2964 23.633 37.6969 22.6973 36.5151C22.1325 35.8016 21.6524 35.2582 21.5048 35.2582H9.35679V36.7939ZM20.2285 37.598H8.55273V34.4541H21.5048C21.9398 34.4541 22.6223 35.1306 23.3255 36.0188C24.4301 37.4141 25.6962 39.3869 25.9012 39.7744L26.0127 39.9851L25.8793 40.1842C25.6519 40.5237 25.3526 40.8211 25.0272 41.0887C24.7141 41.3463 24.3814 41.573 24.0676 41.7831L23.7346 42.0062L23.5117 41.6731C23.2163 41.232 22.1384 39.6493 21.2096 38.5566C20.7424 38.0069 20.3529 37.598 20.2285 37.598Z" fill="black"/>
<path fill-rule="evenodd" clip-rule="evenodd" d="M8.95459 132.916H20.4411C21.2956 132.916 22.5482 136.008 23.8445 136.958C24.408 136.808 25.0554 136.223 25.5462 135.894C25.31 134.881 24.3314 133.888 23.7214 133.039C23.2752 132.419 22.2347 130.577 21.5046 130.577H8.95459V132.916Z" fill="black"/>
<path d="M9.35679 132.515H20.4412C21.1097 132.515 21.73 133.467 22.4149 134.519C22.8983 135.261 23.4185 136.06 23.9218 136.505C24.2205 136.373 24.5635 136.117 24.8755 135.884L25.0789 135.733C24.859 135.137 24.3699 134.521 23.9179 133.952C23.7378 133.725 23.5631 133.505 23.3965 133.274C23.2935 133.13 23.1925 132.976 23.0779 132.802C22.6072 132.085 21.8815 130.979 21.5048 130.979H9.35679V132.515ZM20.4412 133.319H8.55273V130.175H21.5048C22.3146 130.175 23.1852 131.501 23.7501 132.362C23.8741 132.551 23.9826 132.716 24.0467 132.806C24.1856 132.999 24.3632 133.222 24.546 133.453C25.1163 134.171 25.7401 134.957 25.9373 135.804L26.0001 136.073L25.7693 136.228C25.6603 136.3 25.5115 136.412 25.356 136.528C24.9209 136.853 24.4337 137.216 23.9483 137.346L23.7629 137.396L23.6075 137.282C22.9387 136.792 22.3165 135.836 21.7428 134.955C21.1834 134.096 20.6768 133.319 20.4412 133.319Z" fill="black"/>
<path fill-rule="evenodd" clip-rule="evenodd" d="M94.8906 137.596H109.78C110.271 137.596 110.419 137.448 110.419 136.958V135.256H94.8906V137.596Z" fill="black"/>
<path d="M95.2923 137.194H109.78C109.914 137.194 109.986 137.189 109.999 137.177C110.011 137.164 110.016 137.092 110.016 136.958V135.659H95.2923V137.194ZM109.78 137.998H94.4883V134.854H110.82V136.958C110.82 137.314 110.751 137.562 110.567 137.745C110.383 137.929 110.136 137.998 109.78 137.998Z" fill="black"/>
<path fill-rule="evenodd" clip-rule="evenodd" d="M93.8267 41.8759H109.142V39.5361H93.8267V41.8759Z" fill="black"/>
<path d="M94.2289 41.4736H108.74V39.9378H94.2289V41.4736ZM109.142 42.2776H93.4248V39.1338H109.544V42.2776H109.142Z" fill="black"/>
<path fill-rule="evenodd" clip-rule="evenodd" d="M54.0498 123.557H65.1109V121.217H54.0498V123.557Z" fill="black"/>
<path d="M54.4515 123.155H64.7085V121.619H54.4515V123.155ZM65.1105 123.959H53.6475V120.815H65.5126V123.959H65.1105Z" fill="black"/>
<path fill-rule="evenodd" clip-rule="evenodd" d="M105.313 52.9365H107.653V50.5967H105.313V52.9365Z" fill="black"/>
<path d="M105.715 52.5346H107.251V50.9989H105.715V52.5346ZM107.653 53.3387H104.911V50.1948H108.055V53.3387H107.653Z" fill="black"/>
<path fill-rule="evenodd" clip-rule="evenodd" d="M99.3574 132.916H101.697V130.577H99.3574V132.916Z" fill="black"/>
<path d="M99.7596 132.515H101.295V130.979H99.7596V132.515ZM101.697 133.319H98.9556V130.175H102.099V133.319H101.697Z" fill="black"/>
<path fill-rule="evenodd" clip-rule="evenodd" d="M9.80566 49.5332H12.1455V47.1934H9.80566V49.5332Z" fill="black"/>
<path d="M10.2074 49.1313H11.7431V47.5956H10.2074V49.1313ZM12.1451 49.9354H9.40332V46.7915H12.5472V49.9354H12.1451Z" fill="black"/>
<path fill-rule="evenodd" clip-rule="evenodd" d="M109.78 52.9365H112.12V50.5967H109.78V52.9365Z" fill="black"/>
<path d="M110.182 52.5346H111.718V50.9989H110.182V52.5346ZM112.12 53.3387H109.378V50.1948H112.522V53.3387H112.12Z" fill="black"/>
<path fill-rule="evenodd" clip-rule="evenodd" d="M94.8906 132.916H97.2304V130.577H94.8906V132.916Z" fill="black"/>
<path d="M95.2923 132.515H96.8281V130.979H95.2923V132.515ZM97.2301 133.319H94.4883V130.175H97.6321V133.319H97.2301Z" fill="black"/>
<path fill-rule="evenodd" clip-rule="evenodd" d="M93.8267 37.1962H96.1665V35.4945C96.1665 35.0044 96.0185 34.8564 95.5284 34.8564H93.8267V37.1962Z" fill="black"/>
<path d="M94.2289 36.7939H95.7647V35.4942C95.7647 35.3601 95.7598 35.2881 95.7472 35.2756L95.748 35.2749C95.7333 35.2628 95.661 35.2582 95.5285 35.2582H94.2289V36.7939ZM96.1667 37.598H93.4248V34.4541H95.5285C95.8834 34.4541 96.1303 34.5234 96.3142 34.7071H96.3157C96.4995 34.8909 96.5687 35.1382 96.5687 35.4942V37.598H96.1667Z" fill="black"/>
<path fill-rule="evenodd" clip-rule="evenodd" d="M98.0811 35.4945V37.1962H100.421V34.8564H98.7192C98.2291 34.8564 98.0811 35.0044 98.0811 35.4945Z" fill="black"/>
<path d="M98.4833 35.4942V36.7939H100.019V35.2582H98.7194C98.5853 35.2582 98.5133 35.2631 98.5008 35.2756H98.4992C98.4877 35.2872 98.4833 35.3591 98.4833 35.4942ZM97.6792 37.1959V35.4942C97.6792 35.1396 97.7487 34.8927 97.9331 34.7079L97.9323 34.7071C98.1161 34.5233 98.3634 34.4541 98.7194 34.4541H100.823V37.598H97.6792V37.1959Z" fill="black"/>
<path fill-rule="evenodd" clip-rule="evenodd" d="M108.079 131.215V132.916H110.418V130.577H108.717C108.227 130.577 108.079 130.725 108.079 131.215Z" fill="black"/>
<path d="M108.481 131.215V132.515H110.017V130.979H108.717C108.583 130.979 108.511 130.984 108.498 130.996C108.486 131.009 108.481 131.081 108.481 131.215ZM107.677 132.917V131.215C107.677 130.859 107.746 130.612 107.93 130.428C108.114 130.244 108.361 130.175 108.717 130.175H110.821V133.319H107.677V132.917Z" fill="black"/>
<path fill-rule="evenodd" clip-rule="evenodd" d="M102.548 35.4945V37.1962H104.888V34.8564H103.186C102.696 34.8564 102.548 35.0044 102.548 35.4945Z" fill="black"/>
<path d="M102.95 35.4942V36.7939H104.486V35.2582H103.186C103.052 35.2582 102.98 35.2631 102.967 35.2756C102.955 35.2881 102.95 35.3601 102.95 35.4942ZM102.146 37.1959V35.4942C102.146 35.1382 102.215 34.8909 102.399 34.7071C102.583 34.5233 102.83 34.4541 103.186 34.4541H105.29V37.598H102.146V37.1959Z" fill="black"/>
<path fill-rule="evenodd" clip-rule="evenodd" d="M103.824 132.916H106.164V131.215C106.164 130.725 106.016 130.577 105.526 130.577H103.824V132.916Z" fill="black"/>
<path d="M104.226 132.515H105.762V131.215C105.762 131.081 105.757 131.009 105.745 130.996C105.732 130.984 105.66 130.979 105.526 130.979H104.226V132.515ZM106.164 133.319H103.422V130.175H105.526C105.882 130.175 106.129 130.244 106.313 130.428C106.497 130.612 106.566 130.859 106.566 131.215V133.319H106.164Z" fill="black"/>
<path fill-rule="evenodd" clip-rule="evenodd" d="M14.2725 49.5332H16.3996V47.1934H14.2725V49.5332Z" fill="black"/>
<path d="M14.6747 49.1313H15.9977V47.5956H14.6747V49.1313ZM16.3998 49.9354H13.8706V46.7915H16.8018V49.9354H16.3998Z" fill="black"/>
<path fill-rule="evenodd" clip-rule="evenodd" d="M107.015 35.4945V37.1962H109.142V34.8564H107.653C107.163 34.8564 107.015 35.0044 107.015 35.4945Z" fill="black"/>
<path d="M107.417 35.4942V36.7939H108.74V35.2582H107.653C107.519 35.2582 107.447 35.2631 107.434 35.2756H107.433C107.421 35.2872 107.417 35.3591 107.417 35.4942ZM106.613 37.1959V35.4942C106.613 35.1396 106.682 34.8927 106.867 34.7079L106.866 34.7071C107.05 34.5233 107.297 34.4541 107.653 34.4541H109.544V37.598H106.613V37.1959Z" fill="black"/>
<defs>
<linearGradient id="paint0_linear_174_3738" x1="59.793" y1="59.1706" x2="70.0398" y2="159.231" gradientUnits="userSpaceOnUse">
<stop stop-color="#D54C00"/>
<stop offset="1" stop-color="#D30000"/>
</linearGradient>
</defs>
</svg>
