<svg width="22" height="20" viewBox="0 0 22 20" fill="none" xmlns="http://www.w3.org/2000/svg">
<path fill-rule="evenodd" clip-rule="evenodd" d="M2.22222 10C2.22222 5.70445 5.70445 2.22222 10 2.22222C14.2955 2.22222 17.7778 5.70445 17.7778 10C17.7778 11.7132 17.2252 13.294 16.2883 14.5783C16.2231 14.6677 16.1732 14.7636 16.138 14.8628C16.1107 14.8871 16.0843 14.913 16.0589 14.9404C15.6425 15.3912 15.6703 16.0941 16.121 16.5106L19.3154 19.4619C19.7662 19.8784 20.4691 19.8506 20.8856 19.3999C21.302 18.9491 21.2742 18.2462 20.8235 17.8297L18.3335 15.5292C19.3863 13.9452 20 12.0428 20 10C20 4.47715 15.5228 0 10 0C4.47715 0 0 4.47715 0 10C0 15.5228 4.47715 20 10 20C11.5945 20 13.1048 19.626 14.4451 18.9599C14.9946 18.6868 15.2187 18.02 14.9456 17.4704C14.6725 16.9209 14.0057 16.6968 13.4561 16.9699C12.4163 17.4867 11.2437 17.7778 10 17.7778C5.70445 17.7778 2.22222 14.2955 2.22222 10Z" fill="white" fill-opacity="0.56"/>
</svg>
