<svg width="154" height="154" viewBox="0 0 154 154" fill="none" xmlns="http://www.w3.org/2000/svg">
<rect x="13.3369" y="13" width="128" height="128" rx="64" fill="#E3EDF1"/>
<path fill-rule="evenodd" clip-rule="evenodd" d="M73.714 84.9834C74.7335 86.5058 81.4684 92.8369 83.2874 94.656C84.0966 95.4652 89.753 101.541 90.5852 101.628C92.2456 101.803 97.0246 99.4177 104.139 102.97C115.242 108.514 118.307 123.701 109.181 132.752C107.419 134.498 106.169 135.417 103.874 136.572C101.243 137.895 98.1275 138.356 94.7457 138.356C89.8774 138.356 84.4912 135.246 82.2712 132.577C80.8611 130.882 79.5332 129.227 78.6162 127.105C77.3299 124.128 76.313 117.779 77.8317 114.397L69.1506 105.618L71.5315 103.634C72.5211 105.112 80.6308 112.4 81.0268 113.403C81.3153 114.134 80.893 114.984 80.6959 115.774C80.1192 118.086 80.2617 118.497 80.2617 120.896C80.2617 123.557 81.8643 127.226 83.3173 129.15L85.1032 131.134C86.7026 132.39 87.7178 133.287 89.6983 134.078C95.7804 136.508 102.319 135.294 106.701 130.867C111.608 125.91 112.869 118.831 109.827 112.759C106.86 106.833 100.009 102.887 92.5746 104.439C89.2337 105.137 90.0363 105.77 87.3549 103.088C85.182 100.916 72.4716 87.9924 71.4042 87.2308L73.714 84.9834ZM45.6898 82.2536L36.4125 73.0787C33.7613 73.2992 34.9786 73.6739 30.2617 73.6739C25.1928 73.6739 20.3967 70.8395 17.3163 67.3732C15.8459 65.7185 12.4511 60.101 13.1026 57.5231C13.3911 56.3816 14.478 55.4199 15.7776 55.4199C17.2946 55.4199 25.2808 59.1331 28.0791 59.785C28.8234 58.6735 30.6657 57.0103 31.6178 55.9819C32.4852 55.045 31.8541 54.258 31.8417 52.8478C31.8293 51.4459 31.6506 50.6284 31.6506 49.4675C30.9019 49.4052 30.2526 49.1074 29.6664 48.8724L20.7908 45.6448C19.4301 45.1147 18.5553 44.3007 18.5553 42.7215C18.5553 38.788 36.189 30.9236 46.1085 44.1365C48.2823 47.0321 50.2976 52.1099 49.7663 56.066C49.6394 57.0104 49.6947 57.6131 49.5288 58.4173C49.3845 59.1172 49.1681 59.8906 49.1109 60.5786C49.7106 60.9802 54.5516 65.5435 54.756 66.4408C54.9725 67.3906 54.1184 68.3168 53.0791 68.3168C52.2186 68.3168 49.7401 65.4738 49.0613 64.7949C44.7974 60.531 45.6687 62.3312 46.4488 58.115C47.7069 51.315 44.3581 44.8516 38.6589 41.6656C35.9823 40.1692 32.8268 39.7363 29.8579 39.9363C27.7107 40.081 23.3423 41.2609 22.1268 42.9199C23.1844 43.0079 29.8892 45.5958 31.5104 46.2347C32.0797 46.459 32.78 46.6554 33.2363 46.8898C35.4576 48.0305 34.8227 52.4508 35.1111 55.1416C35.2817 56.7323 34.4587 57.4834 33.5855 58.3469C27.8541 64.015 30.8445 63.8431 22.302 60.9986C20.6848 60.4601 17.9472 59.1224 16.3728 58.9913C18.2499 67.0484 26.461 72.0123 34.4537 70.3262C35.3912 70.1284 36.2146 69.7056 37.2061 69.7056C38.0952 69.7056 46.0548 78.7082 47.722 79.8247L45.6898 82.2536ZM54.6851 80.5279C55.9876 81.7975 58.3404 83.9485 59.0802 85.032L66.3728 77.6421C64.0277 76.0718 61.2112 72.4072 58.9904 70.3393C57.8242 69.2535 56.2537 70.0457 56.2537 71.2929C56.2537 72.4972 59.0884 74.822 59.9739 75.7076C61.016 76.7496 63.1593 79.1343 64.1902 79.8247L59.0802 85.032L54.6851 80.5279Z" fill="black"/>
<path fill-rule="evenodd" clip-rule="evenodd" d="M88.1984 122.483C88.1984 115.411 87.5937 117.234 90.4305 114.397C93.2817 111.546 91.4296 112.165 98.7142 112.165C99.2338 112.165 103.278 116.209 103.278 116.729C103.278 124.171 103.902 122.354 101.145 125.112C98.4022 127.854 100.195 127.245 92.9603 127.245C92.4384 127.245 88.1984 123.005 88.1984 122.483ZM85.2222 115.538C85.2222 126.582 84.0104 122.858 90.2315 129.18C90.9376 129.897 91.1958 130.419 92.5635 130.419C101.842 130.419 99.2053 131.395 105.014 125.608C105.583 125.041 106.452 124.484 106.452 123.475V115.935C106.452 114.844 104.435 113.224 103.327 112.116C99.4089 108.197 101.123 108.991 92.5635 108.991C90.9652 108.991 90.1565 110.306 88.5456 111.917C87.9532 112.51 85.2222 114.845 85.2222 115.538Z" fill="black"/>
<path fill-rule="evenodd" clip-rule="evenodd" d="M27.0873 129.229L22.0784 124.317C22.7511 123.337 42.1974 104.099 44.5972 101.699C46.0338 100.262 48.5252 97.5582 51.151 100.006C52.6665 101.419 52.628 103.289 51.3841 104.915L46.5813 109.834C44.9499 111.465 27.986 128.627 27.0873 129.229ZM106.805 36.7686H107.543C108.535 36.9708 109.403 38.0332 111.363 39.9927C113.557 42.1866 115.743 43.5968 113.794 46.4914L106.917 57.4713C106.032 58.9305 105.367 58.9981 103.625 59.3385C101.576 59.739 98.5677 60.0265 97.6631 60.9158C94.7391 63.7898 74.5306 83.7636 73.7142 84.9828L71.4044 87.2302C71.3971 87.225 71.3881 87.2181 71.3819 87.2139L66.373 92.1257C68.3177 95.0298 72.6821 97.0959 72.867 100.299C72.9554 101.831 72.0828 102.811 71.5317 103.634L69.1508 105.618C66.3707 106.952 64.7044 104.972 63.5952 104.229C63.5952 108.912 58.5509 112.745 55.5099 115.786C54.6719 116.624 53.1353 118.713 51.8888 118.713C51.1115 118.713 50.5 117.975 50.5 117.126C50.5 116.003 55.0655 111.866 56.1051 110.826C58.1884 108.743 60.619 107.023 60.619 103.634C60.619 100.59 60.2863 100.821 58.2876 98.8221L52.5337 93.0681C51.5003 92.0347 50.7959 90.7368 49.1111 90.7368C45.9524 90.7368 44.44 91.3335 42.4146 93.3657L19.1012 116.679C17.5422 118.238 14.984 120.329 16.5157 122.935C17.6237 124.821 19.0079 123.122 20.0933 122.036C23.6954 118.434 35.7282 106.776 37.602 104.426L42.6145 99.3195C44.1055 97.9246 45.3671 96.5321 47.5457 96.1132C52.2999 95.1993 56.1982 99.2403 55.2111 103.978C54.7785 106.056 53.3639 107.417 51.9384 108.842L29.3194 131.461C28.8891 131.891 27.4841 132.994 27.4841 133.594C27.4841 135.261 30.6967 136.281 32.992 133.943C33.6935 133.229 34.2651 132.666 34.9742 131.957C36.4152 130.516 46.1056 120.3 47.1269 120.3C48.1437 120.3 48.9127 120.502 48.9127 121.689C48.9127 122.736 47.6375 123.659 46.8789 124.417L36.1647 135.132C34.0533 137.243 33.0715 138.356 29.8651 138.356C27.2103 138.356 24.3096 136.179 24.3096 133.594C24.3096 132.782 24.7502 132.075 24.8562 131.46L19.9445 126.451C19.1485 126.636 18.3218 127.147 17.2457 126.981C14.7461 126.597 13 124.2 13 121.491C13 118.202 14.2322 117.183 16.125 115.29L28.625 102.79C32.8207 98.5946 36.8912 94.2425 41.2208 90.1878C42.3879 89.0947 44.9214 87.7606 47.1269 87.7606C46.2321 86.4243 44.5035 85.0649 45.69 82.2531L47.7222 79.8241C50.1638 78.1891 51.9762 77.8018 54.3224 80.1684C54.4305 80.2775 54.5525 80.3979 54.6853 80.5274L59.0804 85.0314L66.373 77.6415C67.7686 76.707 84.842 59.2717 87.2559 56.8578C88.2903 55.8234 90.805 53.8359 91.1354 52.404C92.4494 46.7086 91.0094 46.3149 94.9832 43.7518C95.4846 43.4284 95.8635 43.2362 96.3301 42.9162C97.4222 42.1671 99.3095 41.91 99.3095 43.9114C99.3095 45.4111 95.9808 46.3445 95.3579 47.3011C95.1174 47.6706 94.1507 52.6464 94.1507 53.4352C94.1507 53.4518 95.7977 55.0532 96.0272 55.3286C98.0763 57.7875 97.9722 57.294 100.814 56.7255C102.107 56.4669 103.766 56.56 104.52 55.471C106.997 51.8925 109.01 48.0545 111.461 44.4581L106.849 39.9432C106.042 40.4838 104.261 41.9273 103.278 41.9273C102.069 41.9273 100.104 40.4214 103.882 38.1668C105.226 37.3649 106.098 36.896 106.805 36.7686ZM50.8968 81.6098C51.8988 81.6098 59.7766 89.9936 60.5694 90.7863L67.613 97.83C70.0665 100.283 70.4761 100.234 68.5132 102.204C66.8801 103.843 66.3907 102.56 63.6448 99.8142C61.5791 97.7484 59.6589 95.8282 57.5932 93.7626C55.5606 91.73 53.6734 89.8428 51.6408 87.8102C49.1511 85.3204 47.479 84.5487 49.0505 82.9407C49.4713 82.5101 50.2188 81.6098 50.8968 81.6098ZM64.2396 89.9922L61.3647 87.2133L92.4141 56.0637L95.3892 58.9428L64.2396 89.9922Z" fill="url(#paint0_linear_174_3730)"/>
<defs>
<linearGradient id="paint0_linear_174_3730" x1="63.7748" y1="48.056" x2="76.3946" y2="199.437" gradientUnits="userSpaceOnUse">
<stop stop-color="#D54C00"/>
<stop offset="1" stop-color="#D30000"/>
</linearGradient>
</defs>
</svg>
