<svg width="40" height="40" viewBox="0 0 40 40" fill="none" xmlns="http://www.w3.org/2000/svg">
<g clip-path="url(#clip0_174_3523)">
<path d="M0 20C0 8.95431 8.95431 0 20 0C31.0457 0 40 8.95431 40 20C40 31.0457 31.0457 40 20 40C8.95431 40 0 31.0457 0 20Z" fill="#0073DD" fill-opacity="0.5"/>
<g clip-path="url(#clip1_174_3523)">
<path d="M29.1668 11.6926L10.8335 19.4853L15.6396 21.3928L17.3506 27.824L20.5009 24.7715L25.6261 28.3113L29.1668 11.6926ZM17.6002 22.2172L17.4152 23.894L16.7048 21.2231L23.3971 16.6649L17.6002 22.2172ZM23.616 15.2178L16.0219 20.3902L13.6561 19.4513L23.616 15.2178ZM18.3305 25.3805L18.5468 23.4218L19.6007 24.1498L18.3305 25.3805ZM18.9581 22.4021L27.5393 14.1831L24.9121 26.5142L18.9581 22.4021Z" fill="white"/>
</g>
</g>
<defs>
<clipPath id="clip0_174_3523">
<rect width="40" height="40" fill="white"/>
</clipPath>
<clipPath id="clip1_174_3523">
<rect width="18.3333" height="18.3333" fill="white" transform="translate(10.8335 10.8333)"/>
</clipPath>
</defs>
</svg>
