<svg width="42" height="42" viewBox="0 0 42 42" fill="none" xmlns="http://www.w3.org/2000/svg">
<g clip-path="url(#clip0_174_3533)">
<path fill-rule="evenodd" clip-rule="evenodd" d="M22.0593 41.9999C22.0396 42 22.0198 42 22 42C10.9543 42 2 33.0457 2 22C2 33.0259 10.9757 41.9679 22.0593 41.9999ZM22.0593 2.00009C10.9757 2.03207 2 10.974 2 22C2 10.9543 10.9543 2 22 2C22.0198 2 22.0396 2.00003 22.0593 2.00009ZM33.0802 24.8819C32.827 24.6435 32.5738 24.4052 32.3244 24.1631C31.4781 23.3422 31.4241 22.8663 32.1058 21.921C32.501 21.3701 32.9125 20.8307 33.324 20.2912C33.6848 19.8181 34.0457 19.3449 34.3958 18.8638C34.4205 18.8298 34.4452 18.7959 34.4699 18.7619C35.1449 17.8341 35.8228 16.9023 36.1778 15.7915C36.4116 15.0586 36.2045 14.7353 35.4488 14.6069C35.3179 14.5843 35.1837 14.5831 35.0515 14.5831L30.5671 14.5778C30.0147 14.5696 29.7101 14.809 29.5141 15.2956C29.2507 15.9536 28.9794 16.6103 28.6649 17.245C27.9524 18.6842 27.1567 20.0747 26.0399 21.2528C26.0241 21.2694 26.0081 21.2864 25.9921 21.3034C25.7582 21.5521 25.4956 21.8313 25.1104 21.705C24.5967 21.5188 24.4443 20.6758 24.453 20.3914L24.4489 15.2469C24.3493 14.5119 24.1846 14.1846 23.4506 14.0413L18.7937 14.0421C18.1718 14.0421 17.8605 14.2811 17.5284 14.6674C17.3369 14.8908 17.2793 15.0357 17.6728 15.1098C18.4455 15.2554 18.8814 15.753 18.9967 16.5236C19.1819 17.7549 19.1692 18.9907 19.0621 20.2269C19.0308 20.5878 18.9687 20.9479 18.8246 21.2847C18.5994 21.8146 18.2356 21.9223 17.758 21.5965C17.3254 21.3015 17.0216 20.8849 16.724 20.4671C15.6072 18.8982 14.716 17.2065 13.9891 15.4285C13.7787 14.915 13.4165 14.6036 12.869 14.595C11.5237 14.5737 10.1785 14.5704 8.83325 14.5962C8.02355 14.6114 7.78233 15.0017 8.11205 15.7314C9.57709 18.971 11.2076 22.1203 13.3366 24.9897C14.4299 26.4616 15.6846 27.7616 17.3057 28.6828C19.1432 29.7271 21.1203 30.0413 23.2041 29.9443C24.1792 29.8989 24.4723 29.6464 24.5172 28.6803C24.5485 28.0194 24.6234 27.3614 24.9515 26.7677C25.2734 26.1841 25.7616 26.0728 26.3235 26.4362C26.6051 26.6175 26.8413 26.8479 27.0657 27.0926C27.2474 27.2899 27.4269 27.4893 27.6064 27.6888C27.9694 28.0921 28.3324 28.4955 28.7139 28.8812C29.4281 29.6047 30.2752 30.0315 31.3398 29.9439L35.4615 29.9448C36.1251 29.901 36.47 29.0928 36.088 28.3558C35.8205 27.839 35.4689 27.3794 35.096 26.935C34.478 26.1976 33.7791 25.5398 33.0802 24.8819Z" fill="white"/>
<path d="M22.119 2C11.008 2 2 10.9543 2 22C2 33.0457 11.008 42 22.119 42C33.23 42 42.238 33.0457 42.238 22C42.238 10.9543 33.23 2 22.119 2ZM32.3244 24.1631C33.2621 25.0736 34.2542 25.9304 35.096 26.935C35.4689 27.3794 35.8205 27.839 36.088 28.3558C36.47 29.0928 36.1251 29.901 35.4615 29.9448L31.3398 29.9439C30.2752 30.0315 29.4281 29.6047 28.7139 28.8812C28.1438 28.3047 27.6148 27.6888 27.0657 27.0926C26.8413 26.8479 26.6051 26.6175 26.3235 26.4362C25.7616 26.0728 25.2734 26.1841 24.9515 26.7677C24.6234 27.3614 24.5485 28.0194 24.5172 28.6803C24.4723 29.6464 24.1792 29.8989 23.2041 29.9443C21.1203 30.0413 19.1432 29.7271 17.3057 28.6828C15.6846 27.7616 14.4299 26.4616 13.3366 24.9897C11.2076 22.1203 9.57709 18.971 8.11205 15.7314C7.78233 15.0017 8.02355 14.6114 8.83325 14.5962C10.1785 14.5704 11.5237 14.5737 12.869 14.595C13.4165 14.6036 13.7787 14.915 13.9891 15.4285C14.716 17.2065 15.6072 18.8982 16.724 20.4671C17.0216 20.8849 17.3254 21.3015 17.758 21.5965C18.2356 21.9223 18.5994 21.8146 18.8246 21.2847C18.9687 20.9479 19.0308 20.5878 19.0621 20.2269C19.1692 18.9907 19.1819 17.7549 18.9967 16.5236C18.8814 15.753 18.4455 15.2554 17.6728 15.1098C17.2793 15.0357 17.3369 14.8908 17.5284 14.6674C17.8605 14.2811 18.1718 14.0421 18.7937 14.0421L23.4506 14.0413C24.1846 14.1846 24.3493 14.5119 24.4489 15.2469L24.453 20.3914C24.4443 20.6758 24.5967 21.5188 25.1104 21.705C25.522 21.84 25.7937 21.5118 26.0399 21.2528C27.1567 20.0747 27.9524 18.6842 28.6649 17.245C28.9794 16.6103 29.2507 15.9536 29.5141 15.2956C29.7101 14.809 30.0147 14.5696 30.5671 14.5778L35.0515 14.5831C35.1837 14.5831 35.3179 14.5843 35.4488 14.6069C36.2045 14.7353 36.4116 15.0586 36.1778 15.7915C35.8098 16.943 35.0947 17.9022 34.3958 18.8638C33.6466 19.8934 32.8476 20.887 32.1058 21.921C31.4241 22.8663 31.4781 23.3422 32.3244 24.1631Z" fill="#00A1D5" fill-opacity="0.5"/>
</g>
<defs>
<clipPath id="clip0_174_3533">
<rect width="42" height="42" fill="white"/>
</clipPath>
</defs>
</svg>
