<svg width="35" height="40" viewBox="0 0 35 40" fill="none" xmlns="http://www.w3.org/2000/svg">
<path fill-rule="evenodd" clip-rule="evenodd" d="M20.0593 39.9999C20.0396 40 20.0198 40 20 40C8.9543 40 0 31.0457 0 20C0 31.0259 8.97572 39.9679 20.0593 39.9999ZM20.0593 8.60887e-05C8.97572 0.0320735 0 8.97405 0 20C0 8.9543 8.9543 0 20 0C20.0198 0 20.0396 2.87094e-05 20.0593 8.60887e-05ZM31.0802 22.8819C30.827 22.6435 30.5738 22.4052 30.3244 22.1631C29.4781 21.3422 29.4241 20.8663 30.1058 19.921C30.501 19.3701 30.9125 18.8307 31.324 18.2912C31.6848 17.8181 32.0457 17.3449 32.3958 16.8638C32.4205 16.8298 32.4452 16.7959 32.4699 16.7619C33.1449 15.8341 33.8228 14.9023 34.1778 13.7915C34.4116 13.0586 34.2045 12.7353 33.4488 12.6069C33.3179 12.5843 33.1837 12.5831 33.0515 12.5831L28.5671 12.5778C28.0147 12.5696 27.7101 12.809 27.5141 13.2956C27.2507 13.9536 26.9794 14.6103 26.6649 15.245C25.9524 16.6842 25.1567 18.0747 24.0399 19.2528C24.0241 19.2694 24.0081 19.2864 23.9921 19.3034C23.7582 19.5521 23.4956 19.8313 23.1104 19.705C22.5967 19.5188 22.4443 18.6758 22.453 18.3914L22.4489 13.2469C22.3493 12.5119 22.1846 12.1846 21.4506 12.0413L16.7937 12.0421C16.1718 12.0421 15.8605 12.2811 15.5284 12.6674C15.3369 12.8908 15.2793 13.0357 15.6728 13.1098C16.4455 13.2554 16.8814 13.753 16.9967 14.5236C17.1819 15.7549 17.1692 16.9907 17.0621 18.2269C17.0308 18.5878 16.9687 18.9479 16.8246 19.2847C16.5994 19.8146 16.2356 19.9223 15.758 19.5965C15.3254 19.3015 15.0216 18.8849 14.724 18.4671C13.6072 16.8982 12.716 15.2065 11.9891 13.4285C11.7787 12.915 11.4165 12.6036 10.869 12.595C9.52374 12.5737 8.17849 12.5704 6.83325 12.5962C6.02355 12.6114 5.78233 13.0017 6.11205 13.7314C7.57709 16.971 9.2076 20.1203 11.3366 22.9897C12.4299 24.4616 13.6846 25.7616 15.3057 26.6828C17.1432 27.7271 19.1203 28.0413 21.2041 27.9443C22.1792 27.8989 22.4723 27.6464 22.5172 26.6803C22.5485 26.0194 22.6234 25.3614 22.9515 24.7677C23.2734 24.1841 23.7616 24.0728 24.3235 24.4362C24.6051 24.6175 24.8413 24.8479 25.0657 25.0926C25.2474 25.2899 25.4269 25.4893 25.6064 25.6888C25.9694 26.0921 26.3324 26.4955 26.7139 26.8812C27.4281 27.6047 28.2752 28.0315 29.3398 27.9439L33.4615 27.9448C34.1251 27.901 34.47 27.0928 34.088 26.3558C33.8205 25.839 33.4689 25.3794 33.096 24.935C32.478 24.1976 31.7791 23.5398 31.0802 22.8819Z" fill="white"/>
</svg>
