<svg width="38" height="38" viewBox="0 0 38 38" fill="none" xmlns="http://www.w3.org/2000/svg">
<g clip-path="url(#clip0_271_4173)">
<path d="M32.4236 5.57637C28.9887 2.14142 24.4228 0.25 19.5648 0.25C19.5645 0.25 19.5633 0.25 19.5631 0.25C17.1604 0.250286 14.8189 0.715488 12.6042 1.63302C10.3892 2.55055 8.40478 3.8772 6.70562 5.57637C3.27096 9.01102 1.37954 13.5778 1.37954 18.4352C1.37954 21.332 2.07848 24.2108 3.40285 26.7757L0.346135 35.5081C0.1307 36.1241 0.283192 36.7936 0.744961 37.255C1.06797 37.5783 1.49312 37.75 1.93028 37.75C2.11768 37.75 2.30708 37.7185 2.4919 37.6539L11.2243 34.5974C13.7892 35.9218 16.668 36.6208 19.5648 36.6208C24.4222 36.6208 28.9887 34.729 32.4236 31.2944C35.8583 27.8597 37.75 23.293 37.75 18.4355C37.75 13.5778 35.8586 9.01102 32.4236 5.57637ZM30.8684 29.7391C27.8492 32.7587 23.8346 34.4212 19.5648 34.4212C16.9527 34.4212 14.3577 33.7752 12.0603 32.5524C11.6437 32.3309 11.1514 32.2929 10.7093 32.4477L2.77572 35.2243L5.55263 27.2907C5.70741 26.8481 5.66907 26.3557 5.44763 25.9394C4.22511 23.6426 3.5788 21.0476 3.5788 18.4352C3.5788 14.1654 5.24163 10.1509 8.26087 7.13162C11.2798 4.11267 15.2938 2.44984 19.5633 2.44927H19.5648C23.8349 2.44927 27.8492 4.11209 30.8684 7.13162C33.8879 10.1509 35.5507 14.1652 35.5507 18.4352C35.5507 22.7053 33.8879 26.7199 30.8684 29.7391Z" fill="white"/>
<path d="M26.323 20.0598C25.4864 19.2233 24.1252 19.2233 23.2886 20.0598L22.3737 20.9748C20.1017 19.7368 18.2632 17.8983 17.025 15.6264L17.9399 14.7114C18.7768 13.8749 18.7768 12.5136 17.9399 11.677L15.4743 9.21141C14.6377 8.37484 13.2765 8.37484 12.4399 9.21141L10.4675 11.1838C9.33769 12.3136 9.28133 14.256 10.3087 16.6532C11.2008 18.7346 12.8333 21.0223 14.9055 23.0945C16.9778 25.1668 19.2654 26.7993 21.3468 27.6913C22.4858 28.1794 23.5218 28.4229 24.417 28.4229C25.406 28.4229 26.2232 28.1256 26.8162 27.5325L28.7886 25.5599V25.5602C29.194 25.1547 29.4172 24.616 29.4172 24.043C29.4172 23.4696 29.194 22.9309 28.7886 22.5258L26.323 20.0598ZM25.261 25.9773C24.9386 26.2997 23.9469 26.4127 22.2134 25.67C20.383 24.8855 18.3399 23.4184 16.4608 21.5393C14.5817 19.6602 13.1148 17.6174 12.3303 15.7869C11.5873 14.0534 11.7003 13.0615 12.0228 12.739L13.9574 10.8044L16.3469 13.1942L15.2016 14.3398C14.6838 14.8576 14.5588 15.643 14.8909 16.2942C16.3967 19.2467 18.7533 21.6034 21.7059 23.1091C22.3573 23.4413 23.1427 23.3165 23.6605 22.7984L24.8058 21.6531L27.1956 24.043L25.261 25.9773Z" fill="white"/>
</g>
<defs>
<clipPath id="clip0_271_4173">
<rect width="37.5" height="37.5" fill="white" transform="translate(0.25 0.25)"/>
</clipPath>
</defs>
</svg>
